<?xml version="1.0" encoding="utf-8" standalone="no"?>
<!DOCTYPE svg PUBLIC "-//W3C//DTD SVG 1.1//EN"
  "http://www.w3.org/Graphics/SVG/1.1/DTD/svg11.dtd">
<!-- Created with matplotlib (https://matplotlib.org/) -->
<svg height="576pt" version="1.1" viewBox="0 0 576 576" width="576pt" xmlns="http://www.w3.org/2000/svg" xmlns:xlink="http://www.w3.org/1999/xlink">
 <defs>
  <style type="text/css">
*{stroke-linecap:butt;stroke-linejoin:round;}
  </style>
 </defs>
 <g id="figure_1">
  <g id="patch_1">
   <path d="M 0 576 
L 576 576 
L 576 0 
L 0 0 
z
" style="fill:#ffffff;"/>
  </g>
  <g id="axes_1">
   <g id="text_1">
    <!-- $\sum_{n=1}^{\infty} \frac{3}{4^{n}} \hspace{2} \ i.e. \hspace{2} \frac{3}{4} + \frac{3}{4^{2}} + \frac{3}{4^{3}} + \dots$ -->
    <defs>
     <path d="M 45.5625 17.046875 
Q 44.046875 18.796875 41.65625 22.90625 
Q 38.375 17.046875 35.5 14.453125 
Q 31.890625 11.328125 26.265625 11.328125 
Q 19.671875 11.328125 15.328125 16.265625 
Q 10.75 21.4375 10.75 29.984375 
Q 10.75 38.1875 15.328125 43.75 
Q 19.4375 48.6875 26.375 48.6875 
Q 29.9375 48.6875 32.5625 47.21875 
Q 35.640625 45.609375 37.75 42.828125 
Q 39.703125 40.328125 41.65625 36.96875 
Q 44.921875 42.828125 47.796875 45.40625 
Q 51.421875 48.53125 57.03125 48.53125 
Q 63.625 48.53125 67.96875 43.609375 
Q 72.5625 38.421875 72.5625 29.890625 
Q 72.5625 21.6875 67.96875 16.109375 
Q 63.875 11.1875 56.9375 11.1875 
Q 53.375 11.1875 50.734375 12.640625 
Q 48.09375 13.96875 45.5625 17.046875 
z
M 25.734375 17.71875 
Q 33.796875 17.71875 38.625 29.4375 
Q 32.421875 42.234375 25.734375 42.234375 
Q 20.84375 42.234375 18.359375 38.71875 
Q 15.671875 34.96875 15.671875 29.984375 
Q 15.671875 24.515625 18.359375 21.140625 
Q 21.09375 17.71875 25.734375 17.71875 
z
M 57.5625 42.140625 
Q 50.296875 42.140625 44.671875 30.421875 
Q 50.828125 17.625 57.5625 17.625 
Q 62.453125 17.625 64.9375 21.140625 
Q 67.625 24.90625 67.625 29.890625 
Q 67.625 35.359375 64.9375 38.71875 
Q 62.203125 42.140625 57.5625 42.140625 
z
" id="DejaVuSans-8734"/>
     <path d="M 3.8125 101.703125 
L 90.671875 101.703125 
L 90.671875 88.375 
L 24.46875 88.375 
L 70.84375 38.875 
L 22.953125 -13.875 
L 92.484375 -13.875 
L 92.484375 -27.15625 
L 1.703125 -27.15625 
L 1.703125 -16.84375 
L 51.8125 38.484375 
L 3.8125 89.5 
z
" id="DejaVuSansDisplay-8721"/>
     <path d="M 55.71875 33.015625 
L 49.3125 0 
L 40.28125 0 
L 46.6875 32.671875 
Q 47.125 34.96875 47.359375 36.71875 
Q 47.609375 38.484375 47.609375 39.5 
Q 47.609375 43.609375 45.015625 45.890625 
Q 42.4375 48.1875 37.796875 48.1875 
Q 30.5625 48.1875 25.34375 43.375 
Q 20.125 38.578125 18.5 30.328125 
L 12.5 0 
L 3.515625 0 
L 14.109375 54.6875 
L 23.09375 54.6875 
L 21.296875 46.09375 
Q 25.046875 50.828125 30.3125 53.40625 
Q 35.59375 56 41.40625 56 
Q 48.640625 56 52.609375 52.09375 
Q 56.59375 48.1875 56.59375 41.109375 
Q 56.59375 39.359375 56.375 37.359375 
Q 56.15625 35.359375 55.71875 33.015625 
z
" id="DejaVuSans-Oblique-110"/>
     <path d="M 10.59375 45.40625 
L 73.1875 45.40625 
L 73.1875 37.203125 
L 10.59375 37.203125 
z
M 10.59375 25.484375 
L 73.1875 25.484375 
L 73.1875 17.1875 
L 10.59375 17.1875 
z
" id="DejaVuSans-61"/>
     <path d="M 12.40625 8.296875 
L 28.515625 8.296875 
L 28.515625 63.921875 
L 10.984375 60.40625 
L 10.984375 69.390625 
L 28.421875 72.90625 
L 38.28125 72.90625 
L 38.28125 8.296875 
L 54.390625 8.296875 
L 54.390625 0 
L 12.40625 0 
z
" id="DejaVuSans-49"/>
     <path d="M 40.578125 39.3125 
Q 47.65625 37.796875 51.625 33 
Q 55.609375 28.21875 55.609375 21.1875 
Q 55.609375 10.40625 48.1875 4.484375 
Q 40.765625 -1.421875 27.09375 -1.421875 
Q 22.515625 -1.421875 17.65625 -0.515625 
Q 12.796875 0.390625 7.625 2.203125 
L 7.625 11.71875 
Q 11.71875 9.328125 16.59375 8.109375 
Q 21.484375 6.890625 26.8125 6.890625 
Q 36.078125 6.890625 40.9375 10.546875 
Q 45.796875 14.203125 45.796875 21.1875 
Q 45.796875 27.640625 41.28125 31.265625 
Q 36.765625 34.90625 28.71875 34.90625 
L 20.21875 34.90625 
L 20.21875 43.015625 
L 29.109375 43.015625 
Q 36.375 43.015625 40.234375 45.921875 
Q 44.09375 48.828125 44.09375 54.296875 
Q 44.09375 59.90625 40.109375 62.90625 
Q 36.140625 65.921875 28.71875 65.921875 
Q 24.65625 65.921875 20.015625 65.03125 
Q 15.375 64.15625 9.8125 62.3125 
L 9.8125 71.09375 
Q 15.4375 72.65625 20.34375 73.4375 
Q 25.25 74.21875 29.59375 74.21875 
Q 40.828125 74.21875 47.359375 69.109375 
Q 53.90625 64.015625 53.90625 55.328125 
Q 53.90625 49.265625 50.4375 45.09375 
Q 46.96875 40.921875 40.578125 39.3125 
z
" id="DejaVuSans-51"/>
     <path d="M 37.796875 64.3125 
L 12.890625 25.390625 
L 37.796875 25.390625 
z
M 35.203125 72.90625 
L 47.609375 72.90625 
L 47.609375 25.390625 
L 58.015625 25.390625 
L 58.015625 17.1875 
L 47.609375 17.1875 
L 47.609375 0 
L 37.796875 0 
L 37.796875 17.1875 
L 4.890625 17.1875 
L 4.890625 26.703125 
z
" id="DejaVuSans-52"/>
     <path d="M 18.3125 75.984375 
L 27.296875 75.984375 
L 25.09375 64.59375 
L 16.109375 64.59375 
z
M 14.203125 54.6875 
L 23.1875 54.6875 
L 12.5 0 
L 3.515625 0 
z
" id="DejaVuSans-Oblique-105"/>
     <path d="M 10.6875 12.40625 
L 21 12.40625 
L 21 0 
L 10.6875 0 
z
" id="DejaVuSans-46"/>
     <path d="M 48.09375 32.234375 
Q 48.25 33.015625 48.3125 33.84375 
Q 48.390625 34.671875 48.390625 35.5 
Q 48.390625 41.453125 44.890625 44.921875 
Q 41.40625 48.390625 35.40625 48.390625 
Q 28.71875 48.390625 23.578125 44.15625 
Q 18.453125 39.9375 15.828125 32.171875 
z
M 55.90625 25.203125 
L 14.109375 25.203125 
Q 13.8125 23.34375 13.71875 22.265625 
Q 13.625 21.1875 13.625 20.40625 
Q 13.625 13.625 17.796875 9.90625 
Q 21.96875 6.203125 29.59375 6.203125 
Q 35.453125 6.203125 40.671875 7.515625 
Q 45.90625 8.84375 50.390625 11.375 
L 48.6875 2.484375 
Q 43.84375 0.53125 38.6875 -0.4375 
Q 33.546875 -1.421875 28.21875 -1.421875 
Q 16.84375 -1.421875 10.71875 4.015625 
Q 4.59375 9.46875 4.59375 19.484375 
Q 4.59375 28.03125 7.640625 35.375 
Q 10.6875 42.71875 16.609375 48.484375 
Q 20.40625 52.09375 25.65625 54.046875 
Q 30.90625 56 36.8125 56 
Q 46.09375 56 51.578125 50.4375 
Q 57.078125 44.875 57.078125 35.5 
Q 57.078125 33.25 56.78125 30.6875 
Q 56.5 28.125 55.90625 25.203125 
z
" id="DejaVuSans-Oblique-101"/>
     <path d="M 46 62.703125 
L 46 35.5 
L 73.1875 35.5 
L 73.1875 27.203125 
L 46 27.203125 
L 46 0 
L 37.796875 0 
L 37.796875 27.203125 
L 10.59375 27.203125 
L 10.59375 35.5 
L 37.796875 35.5 
L 37.796875 62.703125 
z
" id="DejaVuSans-43"/>
     <path d="M 19.1875 8.296875 
L 53.609375 8.296875 
L 53.609375 0 
L 7.328125 0 
L 7.328125 8.296875 
Q 12.9375 14.109375 22.625 23.890625 
Q 32.328125 33.6875 34.8125 36.53125 
Q 39.546875 41.84375 41.421875 45.53125 
Q 43.3125 49.21875 43.3125 52.78125 
Q 43.3125 58.59375 39.234375 62.25 
Q 35.15625 65.921875 28.609375 65.921875 
Q 23.96875 65.921875 18.8125 64.3125 
Q 13.671875 62.703125 7.8125 59.421875 
L 7.8125 69.390625 
Q 13.765625 71.78125 18.9375 73 
Q 24.125 74.21875 28.421875 74.21875 
Q 39.75 74.21875 46.484375 68.546875 
Q 53.21875 62.890625 53.21875 53.421875 
Q 53.21875 48.921875 51.53125 44.890625 
Q 49.859375 40.875 45.40625 35.40625 
Q 44.1875 33.984375 37.640625 27.21875 
Q 31.109375 20.453125 19.1875 8.296875 
z
" id="DejaVuSans-50"/>
     <path d="M 44.828125 12.40625 
L 55.171875 12.40625 
L 55.171875 0 
L 44.828125 0 
z
M 78.078125 12.40625 
L 88.484375 12.40625 
L 88.484375 0 
L 78.078125 0 
z
M 11.53125 12.40625 
L 21.921875 12.40625 
L 21.921875 0 
L 11.53125 0 
z
" id="DejaVuSans-8230"/>
    </defs>
    <g transform="translate(72 69.12)scale(0.3 -0.3)">
     <use transform="translate(58 139.91875)scale(0.7)" xlink:href="#DejaVuSans-8734"/>
     <use transform="translate(42 19.465625)" xlink:href="#DejaVuSansDisplay-8721"/>
     <use transform="translate(0 -77.475)scale(0.7)" xlink:href="#DejaVuSans-Oblique-110"/>
     <use transform="translate(58.00293 -77.475)scale(0.7)" xlink:href="#DejaVuSans-61"/>
     <use transform="translate(130.292969 -77.475)scale(0.7)" xlink:href="#DejaVuSans-49"/>
     <use transform="translate(191.829102 45.507812)scale(0.7)" xlink:href="#DejaVuSans-51"/>
     <use transform="translate(174.829102 -40.974375)scale(0.7)" xlink:href="#DejaVuSans-52"/>
     <use transform="translate(220.035156 -14.1775)scale(0.49)" xlink:href="#DejaVuSans-Oblique-110"/>
     <use transform="translate(492.79948 0.715625)" xlink:href="#DejaVuSans-Oblique-105"/>
     <use transform="translate(520.582683 0.715625)" xlink:href="#DejaVuSans-46"/>
     <use transform="translate(571.852214 0.715625)" xlink:href="#DejaVuSans-Oblique-101"/>
     <use transform="translate(633.375652 0.715625)" xlink:href="#DejaVuSans-46"/>
     <use transform="translate(879.469402 45.507812)scale(0.7)" xlink:href="#DejaVuSans-51"/>
     <use transform="translate(879.469402 -37.771875)scale(0.7)" xlink:href="#DejaVuSans-52"/>
     <use transform="translate(955.987957 0.715625)" xlink:href="#DejaVuSans-43"/>
     <use transform="translate(1076.259441 45.507812)scale(0.7)" xlink:href="#DejaVuSans-51"/>
     <use transform="translate(1059.259441 -49.901562)scale(0.7)" xlink:href="#DejaVuSans-52"/>
     <use transform="translate(1104.465496 -23.104687)scale(0.49)" xlink:href="#DejaVuSans-50"/>
     <use transform="translate(1169.537273 0.715625)" xlink:href="#DejaVuSans-43"/>
     <use transform="translate(1289.808757 45.507812)scale(0.7)" xlink:href="#DejaVuSans-51"/>
     <use transform="translate(1272.808757 -49.901562)scale(0.7)" xlink:href="#DejaVuSans-52"/>
     <use transform="translate(1318.014812 -23.104687)scale(0.49)" xlink:href="#DejaVuSans-51"/>
     <use transform="translate(1383.086589 0.715625)" xlink:href="#DejaVuSans-43"/>
     <use transform="translate(1486.358074 0.715625)" xlink:href="#DejaVuSans-8230"/>
     <path d="M 174.829102 19.5125 
L 174.829102 25.7625 
L 253.004883 25.7625 
L 253.004883 19.5125 
L 174.829102 19.5125 
z
"/>
     <path d="M 879.469402 19.5125 
L 879.469402 25.7625 
L 924.005535 25.7625 
L 924.005535 19.5125 
L 879.469402 19.5125 
z
"/>
     <path d="M 1059.259441 19.5125 
L 1059.259441 25.7625 
L 1137.554851 25.7625 
L 1137.554851 19.5125 
L 1059.259441 19.5125 
z
"/>
     <path d="M 1272.808757 19.5125 
L 1272.808757 25.7625 
L 1351.104167 25.7625 
L 1351.104167 19.5125 
L 1272.808757 19.5125 
z
"/>
    </g>
   </g>
  </g>
 </g>
</svg>
