<?xml version="1.0" encoding="utf-8" standalone="no"?>
<!DOCTYPE svg PUBLIC "-//W3C//DTD SVG 1.1//EN"
  "http://www.w3.org/Graphics/SVG/1.1/DTD/svg11.dtd">
<!-- Created with matplotlib (https://matplotlib.org/) -->
<svg height="720pt" version="1.1" viewBox="0 0 720 720" width="720pt" xmlns="http://www.w3.org/2000/svg" xmlns:xlink="http://www.w3.org/1999/xlink">
 <defs>
  <style type="text/css">
*{stroke-linecap:butt;stroke-linejoin:round;}
  </style>
 </defs>
 <g id="figure_1">
  <g id="patch_1">
   <path d="M 0 720 
L 720 720 
L 720 0 
L 0 0 
z
" style="fill:#ffffff;"/>
  </g>
  <g id="axes_1">
   <g id="patch_2">
    <path d="M 91.8 640.8 
L 646.2 640.8 
L 646.2 86.4 
L 91.8 86.4 
z
" style="fill:#ffffff;"/>
   </g>
   <g id="PathCollection_1">
    <path clip-path="url(#pd0d2d4b357)" d="M 324.9 559.759164 
L 331.2 561.059164 
L 337.5 562.159164 
L 343.8 563.059164 
L 350.1 563.759164 
L 356.4 564.259164 
L 362.7 564.559164 
L 369 564.659164 
L 375.3 564.559164 
L 381.6 564.259164 
L 387.9 563.759164 
L 394.2 563.059164 
L 400.5 562.159164 
L 406.8 561.059164 
L 413.1 559.759164 
L 416.708487 558.9 
L 419.4 558.238153 
L 425.7 556.482415 
L 432 554.52012 
L 437.577491 552.6 
L 438.3 552.342836 
L 444.6 549.886903 
L 450.9 547.217412 
L 452.904715 546.3 
L 457.2 544.265391 
L 463.5 541.060128 
L 465.449268 540 
L 469.8 537.547769 
L 476.1 533.767769 
L 476.206494 533.7 
L 482.4 529.609949 
L 485.565603 527.4 
L 488.7 525.126026 
L 493.964803 521.1 
L 495 520.276067 
L 501.3 515.004639 
L 501.533193 514.8 
L 507.6 509.249517 
L 508.382829 508.5 
L 513.9 502.982829 
L 514.649517 502.2 
L 520.2 496.133193 
L 520.404639 495.9 
L 525.676067 489.6 
L 526.5 488.564803 
L 530.526026 483.3 
L 532.8 480.165603 
L 535.009949 477 
L 539.1 470.806494 
L 539.167769 470.7 
L 542.947769 464.4 
L 545.4 460.049268 
L 546.460128 458.1 
L 549.665391 451.8 
L 551.7 447.504715 
L 552.617412 445.5 
L 555.286903 439.2 
L 557.742836 432.9 
L 558 432.177491 
L 559.92012 426.6 
L 561.882415 420.3 
L 563.638153 414 
L 564.3 411.308487 
L 565.159164 407.7 
L 566.459164 401.4 
L 567.559164 395.1 
L 568.459164 388.8 
L 569.159164 382.5 
L 569.659164 376.2 
L 569.959164 369.9 
L 570.059164 363.6 
L 569.959164 357.3 
L 569.659164 351 
L 569.159164 344.7 
L 568.459164 338.4 
L 567.559164 332.1 
L 566.459164 325.8 
L 565.159164 319.5 
L 564.3 315.891513 
L 563.638153 313.2 
L 561.882415 306.9 
L 559.92012 300.6 
L 558 295.022509 
L 557.742836 294.3 
L 555.286903 288 
L 552.617412 281.7 
L 551.7 279.695285 
L 549.665391 275.4 
L 546.460128 269.1 
L 545.4 267.150732 
L 542.947769 262.8 
L 539.167769 256.5 
L 539.1 256.393506 
L 535.009949 250.2 
L 532.8 247.034397 
L 530.526026 243.9 
L 526.5 238.635197 
L 525.676067 237.6 
L 520.404639 231.3 
L 520.2 231.066807 
L 514.649517 225 
L 513.9 224.217171 
L 508.382829 218.7 
L 507.6 217.950483 
L 501.533193 212.4 
L 501.3 212.195361 
L 495 206.923933 
L 493.964803 206.1 
L 488.7 202.073974 
L 485.565603 199.8 
L 482.4 197.590051 
L 476.206494 193.5 
L 476.1 193.432231 
L 469.8 189.652231 
L 465.449268 187.2 
L 463.5 186.139872 
L 457.2 182.934609 
L 452.904715 180.9 
L 450.9 179.982588 
L 444.6 177.313097 
L 438.3 174.857164 
L 437.577491 174.6 
L 432 172.67988 
L 425.7 170.717585 
L 419.4 168.961847 
L 416.708487 168.3 
L 413.1 167.440836 
L 406.8 166.140836 
L 400.5 165.040836 
L 394.2 164.140836 
L 387.9 163.440836 
L 381.6 162.940836 
L 375.3 162.640836 
L 369 162.540836 
L 362.7 162.640836 
L 356.4 162.940836 
L 350.1 163.440836 
L 343.8 164.140836 
L 337.5 165.040836 
L 331.2 166.140836 
L 324.9 167.440836 
L 321.291513 168.3 
L 318.6 168.961847 
L 312.3 170.717585 
L 306 172.67988 
L 300.422509 174.6 
L 299.7 174.857164 
L 293.4 177.313097 
L 287.1 179.982588 
L 285.095285 180.9 
L 280.8 182.934609 
L 274.5 186.139872 
L 272.550732 187.2 
L 268.2 189.652231 
L 261.9 193.432231 
L 261.793506 193.5 
L 255.6 197.590051 
L 252.434397 199.8 
L 249.3 202.073974 
L 244.035197 206.1 
L 243 206.923933 
L 236.7 212.195361 
L 236.466807 212.4 
L 230.4 217.950483 
L 229.617171 218.7 
L 224.1 224.217171 
L 223.350483 225 
L 217.8 231.066807 
L 217.595361 231.3 
L 212.323933 237.6 
L 211.5 238.635197 
L 207.473974 243.9 
L 205.2 247.034397 
L 202.990051 250.2 
L 198.9 256.393506 
L 198.832231 256.5 
L 195.052231 262.8 
L 192.6 267.150732 
L 191.539872 269.1 
L 188.334609 275.4 
L 186.3 279.695285 
L 185.382588 281.7 
L 182.713097 288 
L 180.257164 294.3 
L 180 295.022509 
L 178.07988 300.6 
L 176.117585 306.9 
L 174.361847 313.2 
L 173.7 315.891513 
L 172.840836 319.5 
L 171.540836 325.8 
L 170.440836 332.1 
L 169.540836 338.4 
L 168.840836 344.7 
L 168.340836 351 
L 168.040836 357.3 
L 167.940836 363.6 
L 168.040836 369.9 
L 168.340836 376.2 
L 168.840836 382.5 
L 169.540836 388.8 
L 170.440836 395.1 
L 171.540836 401.4 
L 172.840836 407.7 
L 173.7 411.308487 
L 174.361847 414 
L 176.117585 420.3 
L 178.07988 426.6 
L 180 432.177491 
L 180.257164 432.9 
L 182.713097 439.2 
L 185.382588 445.5 
L 186.3 447.504715 
L 188.334609 451.8 
L 191.539872 458.1 
L 192.6 460.049268 
L 195.052231 464.4 
L 198.832231 470.7 
L 198.9 470.806494 
L 202.990051 477 
L 205.2 480.165603 
L 207.473974 483.3 
L 211.5 488.564803 
L 212.323933 489.6 
L 217.595361 495.9 
L 217.8 496.133193 
L 223.350483 502.2 
L 224.1 502.982829 
L 229.617171 508.5 
L 230.4 509.249517 
L 236.466807 514.8 
L 236.7 515.004639 
L 243 520.276067 
L 244.035197 521.1 
L 249.3 525.126026 
L 252.434397 527.4 
L 255.6 529.609949 
L 261.793506 533.7 
L 261.9 533.767769 
L 268.2 537.547769 
L 272.550732 540 
L 274.5 541.060128 
L 280.8 544.265391 
L 285.095285 546.3 
L 287.1 547.217412 
L 293.4 549.886903 
L 299.7 552.342836 
L 300.422509 552.6 
L 306 554.52012 
L 312.3 556.482415 
L 318.6 558.238153 
L 321.291513 558.9 
z
M 337.330577 502.2 
L 331.2 500.631713 
L 324.9 498.727062 
L 318.6 496.529387 
L 317.00802 495.9 
L 312.3 493.947894 
L 306 491.028382 
L 303.211255 489.6 
L 299.7 487.709324 
L 293.4 483.99394 
L 292.317454 483.3 
L 287.1 479.774693 
L 283.297642 477 
L 280.8 475.073247 
L 275.521943 470.7 
L 274.5 469.801929 
L 268.74956 464.4 
L 268.2 463.85044 
L 262.798071 458.1 
L 261.9 457.078057 
L 257.526753 451.8 
L 255.6 449.302358 
L 252.825307 445.5 
L 249.3 440.282546 
L 248.60606 439.2 
L 244.890676 432.9 
L 243 429.388745 
L 241.571618 426.6 
L 238.652106 420.3 
L 236.7 415.59198 
L 236.070613 414 
L 233.872938 407.7 
L 231.968287 401.4 
L 230.4 395.269423 
L 230.358585 395.1 
L 229.098585 388.8 
L 228.118585 382.5 
L 227.418585 376.2 
L 226.998585 369.9 
L 226.858585 363.6 
L 226.998585 357.3 
L 227.418585 351 
L 228.118585 344.7 
L 229.098585 338.4 
L 230.358585 332.1 
L 230.4 331.930577 
L 231.968287 325.8 
L 233.872938 319.5 
L 236.070613 313.2 
L 236.7 311.60802 
L 238.652106 306.9 
L 241.571618 300.6 
L 243 297.811255 
L 244.890676 294.3 
L 248.60606 288 
L 249.3 286.917454 
L 252.825307 281.7 
L 255.6 277.897642 
L 257.526753 275.4 
L 261.9 270.121943 
L 262.798071 269.1 
L 268.2 263.34956 
L 268.74956 262.8 
L 274.5 257.398071 
L 275.521943 256.5 
L 280.8 252.126753 
L 283.297642 250.2 
L 287.1 247.425307 
L 292.317454 243.9 
L 293.4 243.20606 
L 299.7 239.490676 
L 303.211255 237.6 
L 306 236.171618 
L 312.3 233.252106 
L 317.00802 231.3 
L 318.6 230.670613 
L 324.9 228.472938 
L 331.2 226.568287 
L 337.330577 225 
L 337.5 224.958585 
L 343.8 223.698585 
L 350.1 222.718585 
L 356.4 222.018585 
L 362.7 221.598585 
L 369 221.458585 
L 375.3 221.598585 
L 381.6 222.018585 
L 387.9 222.718585 
L 394.2 223.698585 
L 400.5 224.958585 
L 400.669423 225 
L 406.8 226.568287 
L 413.1 228.472938 
L 419.4 230.670613 
L 420.99198 231.3 
L 425.7 233.252106 
L 432 236.171618 
L 434.788745 237.6 
L 438.3 239.490676 
L 444.6 243.20606 
L 445.682546 243.9 
L 450.9 247.425307 
L 454.702358 250.2 
L 457.2 252.126753 
L 462.478057 256.5 
L 463.5 257.398071 
L 469.25044 262.8 
L 469.8 263.34956 
L 475.201929 269.1 
L 476.1 270.121943 
L 480.473247 275.4 
L 482.4 277.897642 
L 485.174693 281.7 
L 488.7 286.917454 
L 489.39394 288 
L 493.109324 294.3 
L 495 297.811255 
L 496.428382 300.6 
L 499.347894 306.9 
L 501.3 311.60802 
L 501.929387 313.2 
L 504.127062 319.5 
L 506.031713 325.8 
L 507.6 331.930577 
L 507.641415 332.1 
L 508.901415 338.4 
L 509.881415 344.7 
L 510.581415 351 
L 511.001415 357.3 
L 511.141415 363.6 
L 511.001415 369.9 
L 510.581415 376.2 
L 509.881415 382.5 
L 508.901415 388.8 
L 507.641415 395.1 
L 507.6 395.269423 
L 506.031713 401.4 
L 504.127062 407.7 
L 501.929387 414 
L 501.3 415.59198 
L 499.347894 420.3 
L 496.428382 426.6 
L 495 429.388745 
L 493.109324 432.9 
L 489.39394 439.2 
L 488.7 440.282546 
L 485.174693 445.5 
L 482.4 449.302358 
L 480.473247 451.8 
L 476.1 457.078057 
L 475.201929 458.1 
L 469.8 463.85044 
L 469.25044 464.4 
L 463.5 469.801929 
L 462.478057 470.7 
L 457.2 475.073247 
L 454.702358 477 
L 450.9 479.774693 
L 445.682546 483.3 
L 444.6 483.99394 
L 438.3 487.709324 
L 434.788745 489.6 
L 432 491.028382 
L 425.7 493.947894 
L 420.99198 495.9 
L 419.4 496.529387 
L 413.1 498.727062 
L 406.8 500.631713 
L 400.669423 502.2 
L 400.5 502.241415 
L 394.2 503.501415 
L 387.9 504.481415 
L 381.6 505.181415 
L 375.3 505.601415 
L 369 505.741415 
L 362.7 505.601415 
L 356.4 505.181415 
L 350.1 504.481415 
L 343.8 503.501415 
L 337.5 502.241415 
z
" style="fill:#66cc00;"/>
   </g>
   <g id="matplotlib.axis_1">
    <g id="xtick_1">
     <g id="line2d_1">
      <path clip-path="url(#pd0d2d4b357)" d="M 167.933091 640.8 
L 167.933091 86.4 
" style="fill:none;stroke:#b0b0b0;stroke-linecap:square;stroke-width:0.8;"/>
     </g>
     <g id="line2d_2">
      <defs>
       <path d="M 0 0 
L 0 -3.5 
" id="mec63c4ab40" style="stroke:#000000;stroke-width:0.8;"/>
      </defs>
      <g>
       <use style="stroke:#000000;stroke-width:0.8;" x="167.933091" xlink:href="#mec63c4ab40" y="640.8"/>
      </g>
     </g>
     <g id="text_1">
      <!-- $-$$\frac{\sqrt{2}}{\sqrt{\pi}}$ -->
      <defs>
       <path d="M 10.59375 35.5 
L 73.1875 35.5 
L 73.1875 27.203125 
L 10.59375 27.203125 
z
" id="DejaVuSans-8722"/>
       <path d="M 108.90625 155.203125 
L 52.703125 -29.5 
L 48.5 -29.5 
L 25.40625 45.59375 
Q 24.296875 49.203125 22.890625 50.796875 
Q 21.5 52.40625 19.203125 52.40625 
Q 15.796875 52.40625 12.40625 49.703125 
L 11.203125 51.703125 
L 27.59375 64.296875 
L 30.09375 64.296875 
L 52.796875 -9.40625 
L 53.203125 -9.40625 
L 103.203125 155.203125 
z
" id="STIXSizeOneSym-Regular-8730"/>
       <path d="M 19.1875 8.296875 
L 53.609375 8.296875 
L 53.609375 0 
L 7.328125 0 
L 7.328125 8.296875 
Q 12.9375 14.109375 22.625 23.890625 
Q 32.328125 33.6875 34.8125 36.53125 
Q 39.546875 41.84375 41.421875 45.53125 
Q 43.3125 49.21875 43.3125 52.78125 
Q 43.3125 58.59375 39.234375 62.25 
Q 35.15625 65.921875 28.609375 65.921875 
Q 23.96875 65.921875 18.8125 64.3125 
Q 13.671875 62.703125 7.8125 59.421875 
L 7.8125 69.390625 
Q 13.765625 71.78125 18.9375 73 
Q 24.125 74.21875 28.421875 74.21875 
Q 39.75 74.21875 46.484375 68.546875 
Q 53.21875 62.890625 53.21875 53.421875 
Q 53.21875 48.921875 51.53125 44.890625 
Q 49.859375 40.875 45.40625 35.40625 
Q 44.1875 33.984375 37.640625 27.21875 
Q 31.109375 20.453125 19.1875 8.296875 
z
" id="DejaVuSans-50"/>
       <path d="M 54.5 81.109375 
L 63.71875 81.109375 
L 63.71875 76.421875 
L 58.109375 76.421875 
L 29.109375 -2 
L 25.875 -2 
L 10.296875 41.109375 
L 4.203125 38.921875 
L 2.984375 42.828125 
L 16.796875 47.609375 
L 29.296875 12.984375 
z
" id="DejaVuSans-8730"/>
       <path d="M 9.125 54.6875 
L 61.53125 54.6875 
L 59.765625 45.703125 
L 52.875 45.703125 
L 46.34375 12.109375 
Q 45.65625 8.59375 46.578125 7.03125 
Q 47.46875 5.515625 50.140625 5.515625 
Q 50.875 5.515625 51.953125 5.671875 
Q 53.078125 5.765625 53.421875 5.8125 
L 52.15625 -0.6875 
Q 50.34375 -1.3125 48.484375 -1.609375 
Q 46.578125 -1.90625 44.78125 -1.90625 
Q 38.921875 -1.90625 37.3125 1.265625 
Q 35.6875 4.5 37.359375 13.09375 
L 43.703125 45.703125 
L 23.53125 45.703125 
L 14.65625 0 
L 5.46875 0 
L 14.359375 45.703125 
L 7.375 45.703125 
z
" id="DejaVuSans-Oblique-960"/>
      </defs>
      <g transform="translate(142.808091 621.3)scale(0.25 -0.25)">
       <use transform="translate(0 0.185938)" xlink:href="#DejaVuSans-8722"/>
       <use transform="translate(83.789062 55.773438)scale(0.399712)" xlink:href="#STIXSizeOneSym-Regular-8730"/>
       <use transform="translate(134.782721 43.671875)scale(0.7)" xlink:href="#DejaVuSans-50"/>
       <use transform="translate(83.789062 -48.24375)scale(0.7)" xlink:href="#DejaVuSans-8730"/>
       <use transform="translate(137.143555 -47.923437)scale(0.7)" xlink:href="#DejaVuSans-Oblique-960"/>
       <path d="M 126.032721 113.25 
L 126.032721 117.625 
L 188.068854 117.625 
L 188.068854 113.25 
L 126.032721 113.25 
z
"/>
       <path d="M 83.789062 18.982813 
L 83.789062 25.232813 
L 188.068854 25.232813 
L 188.068854 18.982813 
L 83.789062 18.982813 
z
"/>
       <path d="M 128.393555 3.982813 
L 128.393555 8.357813 
L 188.037109 8.357813 
L 188.037109 3.982813 
L 128.393555 3.982813 
z
"/>
      </g>
     </g>
    </g>
    <g id="xtick_2">
     <g id="line2d_3">
      <path clip-path="url(#pd0d2d4b357)" d="M 226.824225 640.8 
L 226.824225 86.4 
" style="fill:none;stroke:#b0b0b0;stroke-linecap:square;stroke-width:0.8;"/>
     </g>
     <g id="line2d_4">
      <g>
       <use style="stroke:#000000;stroke-width:0.8;" x="226.824225" xlink:href="#mec63c4ab40" y="640.8"/>
      </g>
     </g>
     <g id="text_2">
      <!-- $-$$\frac{1}{\sqrt{\pi}}$ -->
      <defs>
       <path d="M 12.40625 8.296875 
L 28.515625 8.296875 
L 28.515625 63.921875 
L 10.984375 60.40625 
L 10.984375 69.390625 
L 28.421875 72.90625 
L 38.28125 72.90625 
L 38.28125 8.296875 
L 54.390625 8.296875 
L 54.390625 0 
L 12.40625 0 
z
" id="DejaVuSans-49"/>
      </defs>
      <g transform="translate(201.699225 614.55)scale(0.25 -0.25)">
       <use transform="translate(0 0.16875)" xlink:href="#DejaVuSans-8722"/>
       <use transform="translate(113.789062 43.965625)scale(0.7)" xlink:href="#DejaVuSans-49"/>
       <use transform="translate(83.789062 -48.260937)scale(0.7)" xlink:href="#DejaVuSans-8730"/>
       <use transform="translate(137.143555 -47.940625)scale(0.7)" xlink:href="#DejaVuSans-Oblique-960"/>
       <path d="M 83.789062 18.965625 
L 83.789062 25.215625 
L 188.037109 25.215625 
L 188.037109 18.965625 
L 83.789062 18.965625 
z
"/>
       <path d="M 128.393555 3.965625 
L 128.393555 8.340625 
L 188.037109 8.340625 
L 188.037109 3.965625 
L 128.393555 3.965625 
z
"/>
      </g>
     </g>
    </g>
    <g id="xtick_3">
     <g id="line2d_5">
      <path clip-path="url(#pd0d2d4b357)" d="M 369 640.8 
L 369 86.4 
" style="fill:none;stroke:#b0b0b0;stroke-linecap:square;stroke-width:0.8;"/>
     </g>
     <g id="line2d_6">
      <g>
       <use style="stroke:#000000;stroke-width:0.8;" x="369" xlink:href="#mec63c4ab40" y="640.8"/>
      </g>
     </g>
     <g id="text_3">
      <!-- 0 -->
      <defs>
       <path d="M 31.78125 66.40625 
Q 24.171875 66.40625 20.328125 58.90625 
Q 16.5 51.421875 16.5 36.375 
Q 16.5 21.390625 20.328125 13.890625 
Q 24.171875 6.390625 31.78125 6.390625 
Q 39.453125 6.390625 43.28125 13.890625 
Q 47.125 21.390625 47.125 36.375 
Q 47.125 51.421875 43.28125 58.90625 
Q 39.453125 66.40625 31.78125 66.40625 
z
M 31.78125 74.21875 
Q 44.046875 74.21875 50.515625 64.515625 
Q 56.984375 54.828125 56.984375 36.375 
Q 56.984375 17.96875 50.515625 8.265625 
Q 44.046875 -1.421875 31.78125 -1.421875 
Q 19.53125 -1.421875 13.0625 8.265625 
Q 6.59375 17.96875 6.59375 36.375 
Q 6.59375 54.828125 13.0625 64.515625 
Q 19.53125 74.21875 31.78125 74.21875 
z
" id="DejaVuSans-48"/>
      </defs>
      <g transform="translate(361.046875 609.796094)scale(0.25 -0.25)">
       <use xlink:href="#DejaVuSans-48"/>
      </g>
     </g>
    </g>
    <g id="xtick_4">
     <g id="line2d_7">
      <path clip-path="url(#pd0d2d4b357)" d="M 511.175775 640.8 
L 511.175775 86.4 
" style="fill:none;stroke:#b0b0b0;stroke-linecap:square;stroke-width:0.8;"/>
     </g>
     <g id="line2d_8">
      <g>
       <use style="stroke:#000000;stroke-width:0.8;" x="511.175775" xlink:href="#mec63c4ab40" y="640.8"/>
      </g>
     </g>
     <g id="text_4">
      <!-- $\frac{1}{\sqrt{\pi}}$ -->
      <g transform="translate(496.550775 614.55)scale(0.25 -0.25)">
       <use transform="translate(30 43.965625)scale(0.7)" xlink:href="#DejaVuSans-49"/>
       <use transform="translate(0 -48.260937)scale(0.7)" xlink:href="#DejaVuSans-8730"/>
       <use transform="translate(53.354492 -47.940625)scale(0.7)" xlink:href="#DejaVuSans-Oblique-960"/>
       <path d="M 0 18.965625 
L 0 25.215625 
L 104.248047 25.215625 
L 104.248047 18.965625 
L 0 18.965625 
z
"/>
       <path d="M 44.604492 3.965625 
L 44.604492 8.340625 
L 104.248047 8.340625 
L 104.248047 3.965625 
L 44.604492 3.965625 
z
"/>
      </g>
     </g>
    </g>
    <g id="xtick_5">
     <g id="line2d_9">
      <path clip-path="url(#pd0d2d4b357)" d="M 570.066909 640.8 
L 570.066909 86.4 
" style="fill:none;stroke:#b0b0b0;stroke-linecap:square;stroke-width:0.8;"/>
     </g>
     <g id="line2d_10">
      <g>
       <use style="stroke:#000000;stroke-width:0.8;" x="570.066909" xlink:href="#mec63c4ab40" y="640.8"/>
      </g>
     </g>
     <g id="text_5">
      <!-- $\frac{\sqrt{2}}{\sqrt{\pi}}$ -->
      <g transform="translate(555.441909 621.3)scale(0.25 -0.25)">
       <use transform="translate(0 55.773438)scale(0.399712)" xlink:href="#STIXSizeOneSym-Regular-8730"/>
       <use transform="translate(50.993658 43.671875)scale(0.7)" xlink:href="#DejaVuSans-50"/>
       <use transform="translate(0 -48.24375)scale(0.7)" xlink:href="#DejaVuSans-8730"/>
       <use transform="translate(53.354492 -47.923437)scale(0.7)" xlink:href="#DejaVuSans-Oblique-960"/>
       <path d="M 42.243658 113.25 
L 42.243658 117.625 
L 104.279791 117.625 
L 104.279791 113.25 
L 42.243658 113.25 
z
"/>
       <path d="M 0 18.982813 
L 0 25.232813 
L 104.279791 25.232813 
L 104.279791 18.982813 
L 0 18.982813 
z
"/>
       <path d="M 44.604492 3.982813 
L 44.604492 8.357813 
L 104.248047 8.357813 
L 104.248047 3.982813 
L 44.604492 3.982813 
z
"/>
      </g>
     </g>
    </g>
   </g>
   <g id="matplotlib.axis_2">
    <g id="ytick_1">
     <g id="line2d_11">
      <path clip-path="url(#pd0d2d4b357)" d="M 91.8 564.666909 
L 646.2 564.666909 
" style="fill:none;stroke:#b0b0b0;stroke-linecap:square;stroke-width:0.8;"/>
     </g>
     <g id="line2d_12">
      <defs>
       <path d="M 0 0 
L 3.5 0 
" id="m561f4d9ced" style="stroke:#000000;stroke-width:0.8;"/>
      </defs>
      <g>
       <use style="stroke:#000000;stroke-width:0.8;" x="91.8" xlink:href="#m561f4d9ced" y="564.666909"/>
      </g>
     </g>
     <g id="text_6">
      <!-- $-$$\frac{\sqrt{2}}{\sqrt{\pi}}$ -->
      <g transform="translate(91.55 579.916909)scale(0.25 -0.25)">
       <use transform="translate(0 0.185938)" xlink:href="#DejaVuSans-8722"/>
       <use transform="translate(83.789062 55.773438)scale(0.399712)" xlink:href="#STIXSizeOneSym-Regular-8730"/>
       <use transform="translate(134.782721 43.671875)scale(0.7)" xlink:href="#DejaVuSans-50"/>
       <use transform="translate(83.789062 -48.24375)scale(0.7)" xlink:href="#DejaVuSans-8730"/>
       <use transform="translate(137.143555 -47.923437)scale(0.7)" xlink:href="#DejaVuSans-Oblique-960"/>
       <path d="M 126.032721 113.25 
L 126.032721 117.625 
L 188.068854 117.625 
L 188.068854 113.25 
L 126.032721 113.25 
z
"/>
       <path d="M 83.789062 18.982813 
L 83.789062 25.232813 
L 188.068854 25.232813 
L 188.068854 18.982813 
L 83.789062 18.982813 
z
"/>
       <path d="M 128.393555 3.982813 
L 128.393555 8.357813 
L 188.037109 8.357813 
L 188.037109 3.982813 
L 128.393555 3.982813 
z
"/>
      </g>
     </g>
    </g>
    <g id="ytick_2">
     <g id="line2d_13">
      <path clip-path="url(#pd0d2d4b357)" d="M 91.8 505.775775 
L 646.2 505.775775 
" style="fill:none;stroke:#b0b0b0;stroke-linecap:square;stroke-width:0.8;"/>
     </g>
     <g id="line2d_14">
      <g>
       <use style="stroke:#000000;stroke-width:0.8;" x="91.8" xlink:href="#m561f4d9ced" y="505.775775"/>
      </g>
     </g>
     <g id="text_7">
      <!-- $-$$\frac{1}{\sqrt{\pi}}$ -->
      <g transform="translate(91.55 517.650775)scale(0.25 -0.25)">
       <use transform="translate(0 0.16875)" xlink:href="#DejaVuSans-8722"/>
       <use transform="translate(113.789062 43.965625)scale(0.7)" xlink:href="#DejaVuSans-49"/>
       <use transform="translate(83.789062 -48.260937)scale(0.7)" xlink:href="#DejaVuSans-8730"/>
       <use transform="translate(137.143555 -47.940625)scale(0.7)" xlink:href="#DejaVuSans-Oblique-960"/>
       <path d="M 83.789062 18.965625 
L 83.789062 25.215625 
L 188.037109 25.215625 
L 188.037109 18.965625 
L 83.789062 18.965625 
z
"/>
       <path d="M 128.393555 3.965625 
L 128.393555 8.340625 
L 188.037109 8.340625 
L 188.037109 3.965625 
L 128.393555 3.965625 
z
"/>
      </g>
     </g>
    </g>
    <g id="ytick_3">
     <g id="line2d_15">
      <path clip-path="url(#pd0d2d4b357)" d="M 91.8 363.6 
L 646.2 363.6 
" style="fill:none;stroke:#b0b0b0;stroke-linecap:square;stroke-width:0.8;"/>
     </g>
     <g id="line2d_16">
      <g>
       <use style="stroke:#000000;stroke-width:0.8;" x="91.8" xlink:href="#m561f4d9ced" y="363.6"/>
      </g>
     </g>
     <g id="text_8">
      <!-- 0 -->
      <g transform="translate(125.89375 373.098047)scale(0.25 -0.25)">
       <use xlink:href="#DejaVuSans-48"/>
      </g>
     </g>
    </g>
    <g id="ytick_4">
     <g id="line2d_17">
      <path clip-path="url(#pd0d2d4b357)" d="M 91.8 221.424225 
L 646.2 221.424225 
" style="fill:none;stroke:#b0b0b0;stroke-linecap:square;stroke-width:0.8;"/>
     </g>
     <g id="line2d_18">
      <g>
       <use style="stroke:#000000;stroke-width:0.8;" x="91.8" xlink:href="#m561f4d9ced" y="221.424225"/>
      </g>
     </g>
     <g id="text_9">
      <!-- $\frac{1}{\sqrt{\pi}}$ -->
      <g transform="translate(112.55 233.299225)scale(0.25 -0.25)">
       <use transform="translate(30 43.965625)scale(0.7)" xlink:href="#DejaVuSans-49"/>
       <use transform="translate(0 -48.260937)scale(0.7)" xlink:href="#DejaVuSans-8730"/>
       <use transform="translate(53.354492 -47.940625)scale(0.7)" xlink:href="#DejaVuSans-Oblique-960"/>
       <path d="M 0 18.965625 
L 0 25.215625 
L 104.248047 25.215625 
L 104.248047 18.965625 
L 0 18.965625 
z
"/>
       <path d="M 44.604492 3.965625 
L 44.604492 8.340625 
L 104.248047 8.340625 
L 104.248047 3.965625 
L 44.604492 3.965625 
z
"/>
      </g>
     </g>
    </g>
    <g id="ytick_5">
     <g id="line2d_19">
      <path clip-path="url(#pd0d2d4b357)" d="M 91.8 162.533091 
L 646.2 162.533091 
" style="fill:none;stroke:#b0b0b0;stroke-linecap:square;stroke-width:0.8;"/>
     </g>
     <g id="line2d_20">
      <g>
       <use style="stroke:#000000;stroke-width:0.8;" x="91.8" xlink:href="#m561f4d9ced" y="162.533091"/>
      </g>
     </g>
     <g id="text_10">
      <!-- $\frac{\sqrt{2}}{\sqrt{\pi}}$ -->
      <g transform="translate(112.55 177.783091)scale(0.25 -0.25)">
       <use transform="translate(0 55.773438)scale(0.399712)" xlink:href="#STIXSizeOneSym-Regular-8730"/>
       <use transform="translate(50.993658 43.671875)scale(0.7)" xlink:href="#DejaVuSans-50"/>
       <use transform="translate(0 -48.24375)scale(0.7)" xlink:href="#DejaVuSans-8730"/>
       <use transform="translate(53.354492 -47.923437)scale(0.7)" xlink:href="#DejaVuSans-Oblique-960"/>
       <path d="M 42.243658 113.25 
L 42.243658 117.625 
L 104.279791 117.625 
L 104.279791 113.25 
L 42.243658 113.25 
z
"/>
       <path d="M 0 18.982813 
L 0 25.232813 
L 104.279791 25.232813 
L 104.279791 18.982813 
L 0 18.982813 
z
"/>
       <path d="M 44.604492 3.982813 
L 44.604492 8.357813 
L 104.248047 8.357813 
L 104.248047 3.982813 
L 44.604492 3.982813 
z
"/>
      </g>
     </g>
    </g>
   </g>
   <g id="line2d_21">
    <path clip-path="url(#pd0d2d4b357)" d="M 226.824225 505.775775 
L 226.824225 221.424225 
L 511.175775 221.424225 
L 511.175775 505.775775 
L 226.824225 505.775775 
" style="fill:none;stroke:#ff0000;stroke-dasharray:11.1,4.8;stroke-dashoffset:0;stroke-width:3;"/>
   </g>
   <g id="patch_3">
    <path d="M 91.8 640.8 
L 91.8 86.4 
" style="fill:none;stroke:#000000;stroke-linecap:square;stroke-linejoin:miter;stroke-width:0.8;"/>
   </g>
   <g id="patch_4">
    <path d="M 646.2 640.8 
L 646.2 86.4 
" style="fill:none;stroke:#000000;stroke-linecap:square;stroke-linejoin:miter;stroke-width:0.8;"/>
   </g>
   <g id="patch_5">
    <path d="M 91.8 640.8 
L 646.2 640.8 
" style="fill:none;stroke:#000000;stroke-linecap:square;stroke-linejoin:miter;stroke-width:0.8;"/>
   </g>
   <g id="patch_6">
    <path d="M 91.8 86.4 
L 646.2 86.4 
" style="fill:none;stroke:#000000;stroke-linecap:square;stroke-linejoin:miter;stroke-width:0.8;"/>
   </g>
   <g id="text_11">
    <!-- The area of this ring -->
    <defs>
     <path d="M -0.296875 72.90625 
L 61.375 72.90625 
L 61.375 64.59375 
L 35.5 64.59375 
L 35.5 0 
L 25.59375 0 
L 25.59375 64.59375 
L -0.296875 64.59375 
z
" id="DejaVuSans-84"/>
     <path d="M 54.890625 33.015625 
L 54.890625 0 
L 45.90625 0 
L 45.90625 32.71875 
Q 45.90625 40.484375 42.875 44.328125 
Q 39.84375 48.1875 33.796875 48.1875 
Q 26.515625 48.1875 22.3125 43.546875 
Q 18.109375 38.921875 18.109375 30.90625 
L 18.109375 0 
L 9.078125 0 
L 9.078125 75.984375 
L 18.109375 75.984375 
L 18.109375 46.1875 
Q 21.34375 51.125 25.703125 53.5625 
Q 30.078125 56 35.796875 56 
Q 45.21875 56 50.046875 50.171875 
Q 54.890625 44.34375 54.890625 33.015625 
z
" id="DejaVuSans-104"/>
     <path d="M 56.203125 29.59375 
L 56.203125 25.203125 
L 14.890625 25.203125 
Q 15.484375 15.921875 20.484375 11.0625 
Q 25.484375 6.203125 34.421875 6.203125 
Q 39.59375 6.203125 44.453125 7.46875 
Q 49.3125 8.734375 54.109375 11.28125 
L 54.109375 2.78125 
Q 49.265625 0.734375 44.1875 -0.34375 
Q 39.109375 -1.421875 33.890625 -1.421875 
Q 20.796875 -1.421875 13.15625 6.1875 
Q 5.515625 13.8125 5.515625 26.8125 
Q 5.515625 40.234375 12.765625 48.109375 
Q 20.015625 56 32.328125 56 
Q 43.359375 56 49.78125 48.890625 
Q 56.203125 41.796875 56.203125 29.59375 
z
M 47.21875 32.234375 
Q 47.125 39.59375 43.09375 43.984375 
Q 39.0625 48.390625 32.421875 48.390625 
Q 24.90625 48.390625 20.390625 44.140625 
Q 15.875 39.890625 15.1875 32.171875 
z
" id="DejaVuSans-101"/>
     <path id="DejaVuSans-32"/>
     <path d="M 34.28125 27.484375 
Q 23.390625 27.484375 19.1875 25 
Q 14.984375 22.515625 14.984375 16.5 
Q 14.984375 11.71875 18.140625 8.90625 
Q 21.296875 6.109375 26.703125 6.109375 
Q 34.1875 6.109375 38.703125 11.40625 
Q 43.21875 16.703125 43.21875 25.484375 
L 43.21875 27.484375 
z
M 52.203125 31.203125 
L 52.203125 0 
L 43.21875 0 
L 43.21875 8.296875 
Q 40.140625 3.328125 35.546875 0.953125 
Q 30.953125 -1.421875 24.3125 -1.421875 
Q 15.921875 -1.421875 10.953125 3.296875 
Q 6 8.015625 6 15.921875 
Q 6 25.140625 12.171875 29.828125 
Q 18.359375 34.515625 30.609375 34.515625 
L 43.21875 34.515625 
L 43.21875 35.40625 
Q 43.21875 41.609375 39.140625 45 
Q 35.0625 48.390625 27.6875 48.390625 
Q 23 48.390625 18.546875 47.265625 
Q 14.109375 46.140625 10.015625 43.890625 
L 10.015625 52.203125 
Q 14.9375 54.109375 19.578125 55.046875 
Q 24.21875 56 28.609375 56 
Q 40.484375 56 46.34375 49.84375 
Q 52.203125 43.703125 52.203125 31.203125 
z
" id="DejaVuSans-97"/>
     <path d="M 41.109375 46.296875 
Q 39.59375 47.171875 37.8125 47.578125 
Q 36.03125 48 33.890625 48 
Q 26.265625 48 22.1875 43.046875 
Q 18.109375 38.09375 18.109375 28.8125 
L 18.109375 0 
L 9.078125 0 
L 9.078125 54.6875 
L 18.109375 54.6875 
L 18.109375 46.1875 
Q 20.953125 51.171875 25.484375 53.578125 
Q 30.03125 56 36.53125 56 
Q 37.453125 56 38.578125 55.875 
Q 39.703125 55.765625 41.0625 55.515625 
z
" id="DejaVuSans-114"/>
     <path d="M 30.609375 48.390625 
Q 23.390625 48.390625 19.1875 42.75 
Q 14.984375 37.109375 14.984375 27.296875 
Q 14.984375 17.484375 19.15625 11.84375 
Q 23.34375 6.203125 30.609375 6.203125 
Q 37.796875 6.203125 41.984375 11.859375 
Q 46.1875 17.53125 46.1875 27.296875 
Q 46.1875 37.015625 41.984375 42.703125 
Q 37.796875 48.390625 30.609375 48.390625 
z
M 30.609375 56 
Q 42.328125 56 49.015625 48.375 
Q 55.71875 40.765625 55.71875 27.296875 
Q 55.71875 13.875 49.015625 6.21875 
Q 42.328125 -1.421875 30.609375 -1.421875 
Q 18.84375 -1.421875 12.171875 6.21875 
Q 5.515625 13.875 5.515625 27.296875 
Q 5.515625 40.765625 12.171875 48.375 
Q 18.84375 56 30.609375 56 
z
" id="DejaVuSans-111"/>
     <path d="M 37.109375 75.984375 
L 37.109375 68.5 
L 28.515625 68.5 
Q 23.6875 68.5 21.796875 66.546875 
Q 19.921875 64.59375 19.921875 59.515625 
L 19.921875 54.6875 
L 34.71875 54.6875 
L 34.71875 47.703125 
L 19.921875 47.703125 
L 19.921875 0 
L 10.890625 0 
L 10.890625 47.703125 
L 2.296875 47.703125 
L 2.296875 54.6875 
L 10.890625 54.6875 
L 10.890625 58.5 
Q 10.890625 67.625 15.140625 71.796875 
Q 19.390625 75.984375 28.609375 75.984375 
z
" id="DejaVuSans-102"/>
     <path d="M 18.3125 70.21875 
L 18.3125 54.6875 
L 36.8125 54.6875 
L 36.8125 47.703125 
L 18.3125 47.703125 
L 18.3125 18.015625 
Q 18.3125 11.328125 20.140625 9.421875 
Q 21.96875 7.515625 27.59375 7.515625 
L 36.8125 7.515625 
L 36.8125 0 
L 27.59375 0 
Q 17.1875 0 13.234375 3.875 
Q 9.28125 7.765625 9.28125 18.015625 
L 9.28125 47.703125 
L 2.6875 47.703125 
L 2.6875 54.6875 
L 9.28125 54.6875 
L 9.28125 70.21875 
z
" id="DejaVuSans-116"/>
     <path d="M 9.421875 54.6875 
L 18.40625 54.6875 
L 18.40625 0 
L 9.421875 0 
z
M 9.421875 75.984375 
L 18.40625 75.984375 
L 18.40625 64.59375 
L 9.421875 64.59375 
z
" id="DejaVuSans-105"/>
     <path d="M 44.28125 53.078125 
L 44.28125 44.578125 
Q 40.484375 46.53125 36.375 47.5 
Q 32.28125 48.484375 27.875 48.484375 
Q 21.1875 48.484375 17.84375 46.4375 
Q 14.5 44.390625 14.5 40.28125 
Q 14.5 37.15625 16.890625 35.375 
Q 19.28125 33.59375 26.515625 31.984375 
L 29.59375 31.296875 
Q 39.15625 29.25 43.1875 25.515625 
Q 47.21875 21.78125 47.21875 15.09375 
Q 47.21875 7.46875 41.1875 3.015625 
Q 35.15625 -1.421875 24.609375 -1.421875 
Q 20.21875 -1.421875 15.453125 -0.5625 
Q 10.6875 0.296875 5.421875 2 
L 5.421875 11.28125 
Q 10.40625 8.6875 15.234375 7.390625 
Q 20.0625 6.109375 24.8125 6.109375 
Q 31.15625 6.109375 34.5625 8.28125 
Q 37.984375 10.453125 37.984375 14.40625 
Q 37.984375 18.0625 35.515625 20.015625 
Q 33.0625 21.96875 24.703125 23.78125 
L 21.578125 24.515625 
Q 13.234375 26.265625 9.515625 29.90625 
Q 5.8125 33.546875 5.8125 39.890625 
Q 5.8125 47.609375 11.28125 51.796875 
Q 16.75 56 26.8125 56 
Q 31.78125 56 36.171875 55.265625 
Q 40.578125 54.546875 44.28125 53.078125 
z
" id="DejaVuSans-115"/>
     <path d="M 54.890625 33.015625 
L 54.890625 0 
L 45.90625 0 
L 45.90625 32.71875 
Q 45.90625 40.484375 42.875 44.328125 
Q 39.84375 48.1875 33.796875 48.1875 
Q 26.515625 48.1875 22.3125 43.546875 
Q 18.109375 38.921875 18.109375 30.90625 
L 18.109375 0 
L 9.078125 0 
L 9.078125 54.6875 
L 18.109375 54.6875 
L 18.109375 46.1875 
Q 21.34375 51.125 25.703125 53.5625 
Q 30.078125 56 35.796875 56 
Q 45.21875 56 50.046875 50.171875 
Q 54.890625 44.34375 54.890625 33.015625 
z
" id="DejaVuSans-110"/>
     <path d="M 45.40625 27.984375 
Q 45.40625 37.75 41.375 43.109375 
Q 37.359375 48.484375 30.078125 48.484375 
Q 22.859375 48.484375 18.828125 43.109375 
Q 14.796875 37.75 14.796875 27.984375 
Q 14.796875 18.265625 18.828125 12.890625 
Q 22.859375 7.515625 30.078125 7.515625 
Q 37.359375 7.515625 41.375 12.890625 
Q 45.40625 18.265625 45.40625 27.984375 
z
M 54.390625 6.78125 
Q 54.390625 -7.171875 48.1875 -13.984375 
Q 42 -20.796875 29.203125 -20.796875 
Q 24.46875 -20.796875 20.265625 -20.09375 
Q 16.0625 -19.390625 12.109375 -17.921875 
L 12.109375 -9.1875 
Q 16.0625 -11.328125 19.921875 -12.34375 
Q 23.78125 -13.375 27.78125 -13.375 
Q 36.625 -13.375 41.015625 -8.765625 
Q 45.40625 -4.15625 45.40625 5.171875 
L 45.40625 9.625 
Q 42.625 4.78125 38.28125 2.390625 
Q 33.9375 0 27.875 0 
Q 17.828125 0 11.671875 7.65625 
Q 5.515625 15.328125 5.515625 27.984375 
Q 5.515625 40.671875 11.671875 48.328125 
Q 17.828125 56 27.875 56 
Q 33.9375 56 38.28125 53.609375 
Q 42.625 51.21875 45.40625 46.390625 
L 45.40625 54.6875 
L 54.390625 54.6875 
z
" id="DejaVuSans-103"/>
    </defs>
    <g transform="translate(217.401563 80.160938)scale(0.3 -0.3)">
     <use xlink:href="#DejaVuSans-84"/>
     <use x="61.083984" xlink:href="#DejaVuSans-104"/>
     <use x="124.462891" xlink:href="#DejaVuSans-101"/>
     <use x="185.986328" xlink:href="#DejaVuSans-32"/>
     <use x="217.773438" xlink:href="#DejaVuSans-97"/>
     <use x="279.052734" xlink:href="#DejaVuSans-114"/>
     <use x="317.916016" xlink:href="#DejaVuSans-101"/>
     <use x="379.439453" xlink:href="#DejaVuSans-97"/>
     <use x="440.71875" xlink:href="#DejaVuSans-32"/>
     <use x="472.505859" xlink:href="#DejaVuSans-111"/>
     <use x="533.6875" xlink:href="#DejaVuSans-102"/>
     <use x="568.892578" xlink:href="#DejaVuSans-32"/>
     <use x="600.679688" xlink:href="#DejaVuSans-116"/>
     <use x="639.888672" xlink:href="#DejaVuSans-104"/>
     <use x="703.267578" xlink:href="#DejaVuSans-105"/>
     <use x="731.050781" xlink:href="#DejaVuSans-115"/>
     <use x="783.150391" xlink:href="#DejaVuSans-32"/>
     <use x="814.9375" xlink:href="#DejaVuSans-114"/>
     <use x="856.050781" xlink:href="#DejaVuSans-105"/>
     <use x="883.833984" xlink:href="#DejaVuSans-110"/>
     <use x="947.212891" xlink:href="#DejaVuSans-103"/>
    </g>
   </g>
  </g>
 </g>
 <defs>
  <clipPath id="pd0d2d4b357">
   <rect height="554.4" width="554.4" x="91.8" y="86.4"/>
  </clipPath>
 </defs>
</svg>
