<?xml version="1.0" encoding="utf-8" standalone="no"?>
<!DOCTYPE svg PUBLIC "-//W3C//DTD SVG 1.1//EN"
  "http://www.w3.org/Graphics/SVG/1.1/DTD/svg11.dtd">
<!-- Created with matplotlib (https://matplotlib.org/) -->
<svg height="720pt" version="1.1" viewBox="0 0 720 720" width="720pt" xmlns="http://www.w3.org/2000/svg" xmlns:xlink="http://www.w3.org/1999/xlink">
 <defs>
  <style type="text/css">
*{stroke-linecap:butt;stroke-linejoin:round;}
  </style>
 </defs>
 <g id="figure_1">
  <g id="patch_1">
   <path d="M 0 720 
L 720 720 
L 720 0 
L 0 0 
z
" style="fill:#ffffff;"/>
  </g>
  <g id="axes_1">
   <g id="patch_2">
    <path d="M 91.8 640.8 
L 646.2 640.8 
L 646.2 86.4 
L 91.8 86.4 
z
" style="fill:#ffffff;"/>
   </g>
   <g id="matplotlib.axis_1">
    <g id="xtick_1">
     <g id="line2d_1">
      <path clip-path="url(#pee30b49b09)" d="M 97.235294 640.8 
L 97.235294 86.4 
" style="fill:none;stroke:#b0b0b0;stroke-linecap:square;stroke-width:0.8;"/>
     </g>
     <g id="line2d_2">
      <defs>
       <path d="M 0 0 
L 0 3.5 
" id="m615f5db506" style="stroke:#000000;stroke-width:0.8;"/>
      </defs>
      <g>
       <use style="stroke:#000000;stroke-width:0.8;" x="97.235294" xlink:href="#m615f5db506" y="640.8"/>
      </g>
     </g>
     <g id="text_1">
      <!-- −5 -->
      <defs>
       <path d="M 10.59375 35.5 
L 73.1875 35.5 
L 73.1875 27.203125 
L 10.59375 27.203125 
z
" id="DejaVuSans-8722"/>
       <path d="M 10.796875 72.90625 
L 49.515625 72.90625 
L 49.515625 64.59375 
L 19.828125 64.59375 
L 19.828125 46.734375 
Q 21.96875 47.46875 24.109375 47.828125 
Q 26.265625 48.1875 28.421875 48.1875 
Q 40.625 48.1875 47.75 41.5 
Q 54.890625 34.8125 54.890625 23.390625 
Q 54.890625 11.625 47.5625 5.09375 
Q 40.234375 -1.421875 26.90625 -1.421875 
Q 22.3125 -1.421875 17.546875 -0.640625 
Q 12.796875 0.140625 7.71875 1.703125 
L 7.71875 11.625 
Q 12.109375 9.234375 16.796875 8.0625 
Q 21.484375 6.890625 26.703125 6.890625 
Q 35.15625 6.890625 40.078125 11.328125 
Q 45.015625 15.765625 45.015625 23.390625 
Q 45.015625 31 40.078125 35.4375 
Q 35.15625 39.890625 26.703125 39.890625 
Q 22.75 39.890625 18.8125 39.015625 
Q 14.890625 38.140625 10.796875 36.28125 
z
" id="DejaVuSans-53"/>
      </defs>
      <g transform="translate(89.8642 655.398438)scale(0.1 -0.1)">
       <use xlink:href="#DejaVuSans-8722"/>
       <use x="83.789062" xlink:href="#DejaVuSans-53"/>
      </g>
     </g>
    </g>
    <g id="xtick_2">
     <g id="line2d_3">
      <path clip-path="url(#pee30b49b09)" d="M 151.588235 640.8 
L 151.588235 86.4 
" style="fill:none;stroke:#b0b0b0;stroke-linecap:square;stroke-width:0.8;"/>
     </g>
     <g id="line2d_4">
      <g>
       <use style="stroke:#000000;stroke-width:0.8;" x="151.588235" xlink:href="#m615f5db506" y="640.8"/>
      </g>
     </g>
     <g id="text_2">
      <!-- −4 -->
      <defs>
       <path d="M 37.796875 64.3125 
L 12.890625 25.390625 
L 37.796875 25.390625 
z
M 35.203125 72.90625 
L 47.609375 72.90625 
L 47.609375 25.390625 
L 58.015625 25.390625 
L 58.015625 17.1875 
L 47.609375 17.1875 
L 47.609375 0 
L 37.796875 0 
L 37.796875 17.1875 
L 4.890625 17.1875 
L 4.890625 26.703125 
z
" id="DejaVuSans-52"/>
      </defs>
      <g transform="translate(144.217142 655.398438)scale(0.1 -0.1)">
       <use xlink:href="#DejaVuSans-8722"/>
       <use x="83.789062" xlink:href="#DejaVuSans-52"/>
      </g>
     </g>
    </g>
    <g id="xtick_3">
     <g id="line2d_5">
      <path clip-path="url(#pee30b49b09)" d="M 205.941176 640.8 
L 205.941176 86.4 
" style="fill:none;stroke:#b0b0b0;stroke-linecap:square;stroke-width:0.8;"/>
     </g>
     <g id="line2d_6">
      <g>
       <use style="stroke:#000000;stroke-width:0.8;" x="205.941176" xlink:href="#m615f5db506" y="640.8"/>
      </g>
     </g>
     <g id="text_3">
      <!-- −3 -->
      <defs>
       <path d="M 40.578125 39.3125 
Q 47.65625 37.796875 51.625 33 
Q 55.609375 28.21875 55.609375 21.1875 
Q 55.609375 10.40625 48.1875 4.484375 
Q 40.765625 -1.421875 27.09375 -1.421875 
Q 22.515625 -1.421875 17.65625 -0.515625 
Q 12.796875 0.390625 7.625 2.203125 
L 7.625 11.71875 
Q 11.71875 9.328125 16.59375 8.109375 
Q 21.484375 6.890625 26.8125 6.890625 
Q 36.078125 6.890625 40.9375 10.546875 
Q 45.796875 14.203125 45.796875 21.1875 
Q 45.796875 27.640625 41.28125 31.265625 
Q 36.765625 34.90625 28.71875 34.90625 
L 20.21875 34.90625 
L 20.21875 43.015625 
L 29.109375 43.015625 
Q 36.375 43.015625 40.234375 45.921875 
Q 44.09375 48.828125 44.09375 54.296875 
Q 44.09375 59.90625 40.109375 62.90625 
Q 36.140625 65.921875 28.71875 65.921875 
Q 24.65625 65.921875 20.015625 65.03125 
Q 15.375 64.15625 9.8125 62.3125 
L 9.8125 71.09375 
Q 15.4375 72.65625 20.34375 73.4375 
Q 25.25 74.21875 29.59375 74.21875 
Q 40.828125 74.21875 47.359375 69.109375 
Q 53.90625 64.015625 53.90625 55.328125 
Q 53.90625 49.265625 50.4375 45.09375 
Q 46.96875 40.921875 40.578125 39.3125 
z
" id="DejaVuSans-51"/>
      </defs>
      <g transform="translate(198.570083 655.398438)scale(0.1 -0.1)">
       <use xlink:href="#DejaVuSans-8722"/>
       <use x="83.789062" xlink:href="#DejaVuSans-51"/>
      </g>
     </g>
    </g>
    <g id="xtick_4">
     <g id="line2d_7">
      <path clip-path="url(#pee30b49b09)" d="M 260.294118 640.8 
L 260.294118 86.4 
" style="fill:none;stroke:#b0b0b0;stroke-linecap:square;stroke-width:0.8;"/>
     </g>
     <g id="line2d_8">
      <g>
       <use style="stroke:#000000;stroke-width:0.8;" x="260.294118" xlink:href="#m615f5db506" y="640.8"/>
      </g>
     </g>
     <g id="text_4">
      <!-- −2 -->
      <defs>
       <path d="M 19.1875 8.296875 
L 53.609375 8.296875 
L 53.609375 0 
L 7.328125 0 
L 7.328125 8.296875 
Q 12.9375 14.109375 22.625 23.890625 
Q 32.328125 33.6875 34.8125 36.53125 
Q 39.546875 41.84375 41.421875 45.53125 
Q 43.3125 49.21875 43.3125 52.78125 
Q 43.3125 58.59375 39.234375 62.25 
Q 35.15625 65.921875 28.609375 65.921875 
Q 23.96875 65.921875 18.8125 64.3125 
Q 13.671875 62.703125 7.8125 59.421875 
L 7.8125 69.390625 
Q 13.765625 71.78125 18.9375 73 
Q 24.125 74.21875 28.421875 74.21875 
Q 39.75 74.21875 46.484375 68.546875 
Q 53.21875 62.890625 53.21875 53.421875 
Q 53.21875 48.921875 51.53125 44.890625 
Q 49.859375 40.875 45.40625 35.40625 
Q 44.1875 33.984375 37.640625 27.21875 
Q 31.109375 20.453125 19.1875 8.296875 
z
" id="DejaVuSans-50"/>
      </defs>
      <g transform="translate(252.923024 655.398438)scale(0.1 -0.1)">
       <use xlink:href="#DejaVuSans-8722"/>
       <use x="83.789062" xlink:href="#DejaVuSans-50"/>
      </g>
     </g>
    </g>
    <g id="xtick_5">
     <g id="line2d_9">
      <path clip-path="url(#pee30b49b09)" d="M 314.647059 640.8 
L 314.647059 86.4 
" style="fill:none;stroke:#b0b0b0;stroke-linecap:square;stroke-width:0.8;"/>
     </g>
     <g id="line2d_10">
      <g>
       <use style="stroke:#000000;stroke-width:0.8;" x="314.647059" xlink:href="#m615f5db506" y="640.8"/>
      </g>
     </g>
     <g id="text_5">
      <!-- −1 -->
      <defs>
       <path d="M 12.40625 8.296875 
L 28.515625 8.296875 
L 28.515625 63.921875 
L 10.984375 60.40625 
L 10.984375 69.390625 
L 28.421875 72.90625 
L 38.28125 72.90625 
L 38.28125 8.296875 
L 54.390625 8.296875 
L 54.390625 0 
L 12.40625 0 
z
" id="DejaVuSans-49"/>
      </defs>
      <g transform="translate(307.275965 655.398438)scale(0.1 -0.1)">
       <use xlink:href="#DejaVuSans-8722"/>
       <use x="83.789062" xlink:href="#DejaVuSans-49"/>
      </g>
     </g>
    </g>
    <g id="xtick_6">
     <g id="line2d_11">
      <path clip-path="url(#pee30b49b09)" d="M 369 640.8 
L 369 86.4 
" style="fill:none;stroke:#b0b0b0;stroke-linecap:square;stroke-width:0.8;"/>
     </g>
     <g id="line2d_12">
      <g>
       <use style="stroke:#000000;stroke-width:0.8;" x="369" xlink:href="#m615f5db506" y="640.8"/>
      </g>
     </g>
     <g id="text_6">
      <!-- 0 -->
      <defs>
       <path d="M 31.78125 66.40625 
Q 24.171875 66.40625 20.328125 58.90625 
Q 16.5 51.421875 16.5 36.375 
Q 16.5 21.390625 20.328125 13.890625 
Q 24.171875 6.390625 31.78125 6.390625 
Q 39.453125 6.390625 43.28125 13.890625 
Q 47.125 21.390625 47.125 36.375 
Q 47.125 51.421875 43.28125 58.90625 
Q 39.453125 66.40625 31.78125 66.40625 
z
M 31.78125 74.21875 
Q 44.046875 74.21875 50.515625 64.515625 
Q 56.984375 54.828125 56.984375 36.375 
Q 56.984375 17.96875 50.515625 8.265625 
Q 44.046875 -1.421875 31.78125 -1.421875 
Q 19.53125 -1.421875 13.0625 8.265625 
Q 6.59375 17.96875 6.59375 36.375 
Q 6.59375 54.828125 13.0625 64.515625 
Q 19.53125 74.21875 31.78125 74.21875 
z
" id="DejaVuSans-48"/>
      </defs>
      <g transform="translate(365.81875 655.398438)scale(0.1 -0.1)">
       <use xlink:href="#DejaVuSans-48"/>
      </g>
     </g>
    </g>
    <g id="xtick_7">
     <g id="line2d_13">
      <path clip-path="url(#pee30b49b09)" d="M 423.352941 640.8 
L 423.352941 86.4 
" style="fill:none;stroke:#b0b0b0;stroke-linecap:square;stroke-width:0.8;"/>
     </g>
     <g id="line2d_14">
      <g>
       <use style="stroke:#000000;stroke-width:0.8;" x="423.352941" xlink:href="#m615f5db506" y="640.8"/>
      </g>
     </g>
     <g id="text_7">
      <!-- 1 -->
      <g transform="translate(420.171691 655.398438)scale(0.1 -0.1)">
       <use xlink:href="#DejaVuSans-49"/>
      </g>
     </g>
    </g>
    <g id="xtick_8">
     <g id="line2d_15">
      <path clip-path="url(#pee30b49b09)" d="M 477.705882 640.8 
L 477.705882 86.4 
" style="fill:none;stroke:#b0b0b0;stroke-linecap:square;stroke-width:0.8;"/>
     </g>
     <g id="line2d_16">
      <g>
       <use style="stroke:#000000;stroke-width:0.8;" x="477.705882" xlink:href="#m615f5db506" y="640.8"/>
      </g>
     </g>
     <g id="text_8">
      <!-- 2 -->
      <g transform="translate(474.524632 655.398438)scale(0.1 -0.1)">
       <use xlink:href="#DejaVuSans-50"/>
      </g>
     </g>
    </g>
    <g id="xtick_9">
     <g id="line2d_17">
      <path clip-path="url(#pee30b49b09)" d="M 532.058824 640.8 
L 532.058824 86.4 
" style="fill:none;stroke:#b0b0b0;stroke-linecap:square;stroke-width:0.8;"/>
     </g>
     <g id="line2d_18">
      <g>
       <use style="stroke:#000000;stroke-width:0.8;" x="532.058824" xlink:href="#m615f5db506" y="640.8"/>
      </g>
     </g>
     <g id="text_9">
      <!-- 3 -->
      <g transform="translate(528.877574 655.398438)scale(0.1 -0.1)">
       <use xlink:href="#DejaVuSans-51"/>
      </g>
     </g>
    </g>
    <g id="xtick_10">
     <g id="line2d_19">
      <path clip-path="url(#pee30b49b09)" d="M 586.411765 640.8 
L 586.411765 86.4 
" style="fill:none;stroke:#b0b0b0;stroke-linecap:square;stroke-width:0.8;"/>
     </g>
     <g id="line2d_20">
      <g>
       <use style="stroke:#000000;stroke-width:0.8;" x="586.411765" xlink:href="#m615f5db506" y="640.8"/>
      </g>
     </g>
     <g id="text_10">
      <!-- 4 -->
      <g transform="translate(583.230515 655.398438)scale(0.1 -0.1)">
       <use xlink:href="#DejaVuSans-52"/>
      </g>
     </g>
    </g>
    <g id="xtick_11">
     <g id="line2d_21">
      <path clip-path="url(#pee30b49b09)" d="M 640.764706 640.8 
L 640.764706 86.4 
" style="fill:none;stroke:#b0b0b0;stroke-linecap:square;stroke-width:0.8;"/>
     </g>
     <g id="line2d_22">
      <g>
       <use style="stroke:#000000;stroke-width:0.8;" x="640.764706" xlink:href="#m615f5db506" y="640.8"/>
      </g>
     </g>
     <g id="text_11">
      <!-- 5 -->
      <g transform="translate(637.583456 655.398438)scale(0.1 -0.1)">
       <use xlink:href="#DejaVuSans-53"/>
      </g>
     </g>
    </g>
   </g>
   <g id="matplotlib.axis_2">
    <g id="ytick_1">
     <g id="line2d_23">
      <path clip-path="url(#pee30b49b09)" d="M 91.8 635.364706 
L 646.2 635.364706 
" style="fill:none;stroke:#b0b0b0;stroke-linecap:square;stroke-width:0.8;"/>
     </g>
     <g id="line2d_24">
      <defs>
       <path d="M 0 0 
L -3.5 0 
" id="m6f71af9898" style="stroke:#000000;stroke-width:0.8;"/>
      </defs>
      <g>
       <use style="stroke:#000000;stroke-width:0.8;" x="91.8" xlink:href="#m6f71af9898" y="635.364706"/>
      </g>
     </g>
     <g id="text_12">
      <!-- −5 -->
      <g transform="translate(70.057812 639.163925)scale(0.1 -0.1)">
       <use xlink:href="#DejaVuSans-8722"/>
       <use x="83.789062" xlink:href="#DejaVuSans-53"/>
      </g>
     </g>
    </g>
    <g id="ytick_2">
     <g id="line2d_25">
      <path clip-path="url(#pee30b49b09)" d="M 91.8 581.011765 
L 646.2 581.011765 
" style="fill:none;stroke:#b0b0b0;stroke-linecap:square;stroke-width:0.8;"/>
     </g>
     <g id="line2d_26">
      <g>
       <use style="stroke:#000000;stroke-width:0.8;" x="91.8" xlink:href="#m6f71af9898" y="581.011765"/>
      </g>
     </g>
     <g id="text_13">
      <!-- −4 -->
      <g transform="translate(70.057812 584.810983)scale(0.1 -0.1)">
       <use xlink:href="#DejaVuSans-8722"/>
       <use x="83.789062" xlink:href="#DejaVuSans-52"/>
      </g>
     </g>
    </g>
    <g id="ytick_3">
     <g id="line2d_27">
      <path clip-path="url(#pee30b49b09)" d="M 91.8 526.658824 
L 646.2 526.658824 
" style="fill:none;stroke:#b0b0b0;stroke-linecap:square;stroke-width:0.8;"/>
     </g>
     <g id="line2d_28">
      <g>
       <use style="stroke:#000000;stroke-width:0.8;" x="91.8" xlink:href="#m6f71af9898" y="526.658824"/>
      </g>
     </g>
     <g id="text_14">
      <!-- −3 -->
      <g transform="translate(70.057812 530.458042)scale(0.1 -0.1)">
       <use xlink:href="#DejaVuSans-8722"/>
       <use x="83.789062" xlink:href="#DejaVuSans-51"/>
      </g>
     </g>
    </g>
    <g id="ytick_4">
     <g id="line2d_29">
      <path clip-path="url(#pee30b49b09)" d="M 91.8 472.305882 
L 646.2 472.305882 
" style="fill:none;stroke:#b0b0b0;stroke-linecap:square;stroke-width:0.8;"/>
     </g>
     <g id="line2d_30">
      <g>
       <use style="stroke:#000000;stroke-width:0.8;" x="91.8" xlink:href="#m6f71af9898" y="472.305882"/>
      </g>
     </g>
     <g id="text_15">
      <!-- −2 -->
      <g transform="translate(70.057812 476.105101)scale(0.1 -0.1)">
       <use xlink:href="#DejaVuSans-8722"/>
       <use x="83.789062" xlink:href="#DejaVuSans-50"/>
      </g>
     </g>
    </g>
    <g id="ytick_5">
     <g id="line2d_31">
      <path clip-path="url(#pee30b49b09)" d="M 91.8 417.952941 
L 646.2 417.952941 
" style="fill:none;stroke:#b0b0b0;stroke-linecap:square;stroke-width:0.8;"/>
     </g>
     <g id="line2d_32">
      <g>
       <use style="stroke:#000000;stroke-width:0.8;" x="91.8" xlink:href="#m6f71af9898" y="417.952941"/>
      </g>
     </g>
     <g id="text_16">
      <!-- −1 -->
      <g transform="translate(70.057812 421.75216)scale(0.1 -0.1)">
       <use xlink:href="#DejaVuSans-8722"/>
       <use x="83.789062" xlink:href="#DejaVuSans-49"/>
      </g>
     </g>
    </g>
    <g id="ytick_6">
     <g id="line2d_33">
      <path clip-path="url(#pee30b49b09)" d="M 91.8 363.6 
L 646.2 363.6 
" style="fill:none;stroke:#b0b0b0;stroke-linecap:square;stroke-width:0.8;"/>
     </g>
     <g id="line2d_34">
      <g>
       <use style="stroke:#000000;stroke-width:0.8;" x="91.8" xlink:href="#m6f71af9898" y="363.6"/>
      </g>
     </g>
     <g id="text_17">
      <!-- 0 -->
      <g transform="translate(78.4375 367.399219)scale(0.1 -0.1)">
       <use xlink:href="#DejaVuSans-48"/>
      </g>
     </g>
    </g>
    <g id="ytick_7">
     <g id="line2d_35">
      <path clip-path="url(#pee30b49b09)" d="M 91.8 309.247059 
L 646.2 309.247059 
" style="fill:none;stroke:#b0b0b0;stroke-linecap:square;stroke-width:0.8;"/>
     </g>
     <g id="line2d_36">
      <g>
       <use style="stroke:#000000;stroke-width:0.8;" x="91.8" xlink:href="#m6f71af9898" y="309.247059"/>
      </g>
     </g>
     <g id="text_18">
      <!-- 1 -->
      <g transform="translate(78.4375 313.046278)scale(0.1 -0.1)">
       <use xlink:href="#DejaVuSans-49"/>
      </g>
     </g>
    </g>
    <g id="ytick_8">
     <g id="line2d_37">
      <path clip-path="url(#pee30b49b09)" d="M 91.8 254.894118 
L 646.2 254.894118 
" style="fill:none;stroke:#b0b0b0;stroke-linecap:square;stroke-width:0.8;"/>
     </g>
     <g id="line2d_38">
      <g>
       <use style="stroke:#000000;stroke-width:0.8;" x="91.8" xlink:href="#m6f71af9898" y="254.894118"/>
      </g>
     </g>
     <g id="text_19">
      <!-- 2 -->
      <g transform="translate(78.4375 258.693336)scale(0.1 -0.1)">
       <use xlink:href="#DejaVuSans-50"/>
      </g>
     </g>
    </g>
    <g id="ytick_9">
     <g id="line2d_39">
      <path clip-path="url(#pee30b49b09)" d="M 91.8 200.541176 
L 646.2 200.541176 
" style="fill:none;stroke:#b0b0b0;stroke-linecap:square;stroke-width:0.8;"/>
     </g>
     <g id="line2d_40">
      <g>
       <use style="stroke:#000000;stroke-width:0.8;" x="91.8" xlink:href="#m6f71af9898" y="200.541176"/>
      </g>
     </g>
     <g id="text_20">
      <!-- 3 -->
      <g transform="translate(78.4375 204.340395)scale(0.1 -0.1)">
       <use xlink:href="#DejaVuSans-51"/>
      </g>
     </g>
    </g>
    <g id="ytick_10">
     <g id="line2d_41">
      <path clip-path="url(#pee30b49b09)" d="M 91.8 146.188235 
L 646.2 146.188235 
" style="fill:none;stroke:#b0b0b0;stroke-linecap:square;stroke-width:0.8;"/>
     </g>
     <g id="line2d_42">
      <g>
       <use style="stroke:#000000;stroke-width:0.8;" x="91.8" xlink:href="#m6f71af9898" y="146.188235"/>
      </g>
     </g>
     <g id="text_21">
      <!-- 4 -->
      <g transform="translate(78.4375 149.987454)scale(0.1 -0.1)">
       <use xlink:href="#DejaVuSans-52"/>
      </g>
     </g>
    </g>
    <g id="ytick_11">
     <g id="line2d_43">
      <path clip-path="url(#pee30b49b09)" d="M 91.8 91.835294 
L 646.2 91.835294 
" style="fill:none;stroke:#b0b0b0;stroke-linecap:square;stroke-width:0.8;"/>
     </g>
     <g id="line2d_44">
      <g>
       <use style="stroke:#000000;stroke-width:0.8;" x="91.8" xlink:href="#m6f71af9898" y="91.835294"/>
      </g>
     </g>
     <g id="text_22">
      <!-- 5 -->
      <g transform="translate(78.4375 95.634513)scale(0.1 -0.1)">
       <use xlink:href="#DejaVuSans-53"/>
      </g>
     </g>
    </g>
   </g>
   <g id="LineCollection_1">
    <path clip-path="url(#pee30b49b09)" d="M 210.684036 142.712712 
L 216.811765 138.445815 
L 223.669677 133.958824 
L 230.4 129.83509 
L 237.433496 125.805882 
L 243.988235 122.295907 
L 250.782353 118.895079 
L 257.576471 115.728251 
L 264.370588 112.784744 
L 271.164706 110.057373 
L 277.958824 107.539257 
L 284.752941 105.223807 
L 292.905882 102.705882 
L 301.058824 100.465755 
L 309.211765 98.493877 
L 317.364706 96.786529 
L 325.517647 95.337275 
L 333.670588 94.142214 
L 341.858371 93.194118 
L 349.976471 92.502786 
L 358.129412 92.053251 
L 366.282353 91.848916 
L 374.435294 91.889783 
L 382.588235 92.175851 
L 390.741176 92.707121 
L 398.894118 93.48505 
L 407.333127 94.552941 
L 415.2 95.791363 
L 423.352941 97.326192 
L 431.505882 99.121942 
L 439.658824 101.182034 
L 446.452941 103.106789 
L 453.855812 105.423529 
L 461.4 108.025839 
L 468.887395 110.858824 
L 475.507531 113.576471 
L 481.782353 116.342781 
L 488.576471 119.556808 
L 495.53045 123.088235 
L 502.992416 127.164706 
L 508.958824 130.646939 
L 515.752941 134.86605 
L 522.582975 139.394118 
L 529.341176 144.177345 
L 535.619496 148.905882 
L 541.570588 153.659566 
L 547.202214 158.417647 
L 553.273519 163.852941 
L 558.996648 169.288235 
L 564.400717 174.723529 
L 569.511685 180.158824 
L 574.352766 185.594118 
L 579.617647 191.856522 
L 584.345667 197.823529 
L 589.129412 204.230238 
L 593.230514 210.052941 
L 597.73395 216.847059 
L 601.953061 223.641176 
L 605.902511 230.435294 
L 609.595973 237.229412 
L 613.043192 244.023529 
L 616.305882 250.924706 
L 619.244476 257.611765 
L 622.014398 264.405882 
L 624.574161 271.2 
L 627.376193 279.352941 
L 629.894118 287.505882 
L 632.134245 295.658824 
L 634.106123 303.811765 
L 635.813471 311.964706 
L 637.262725 320.117647 
L 638.457786 328.270588 
L 639.405882 336.458371 
L 640.097214 344.576471 
L 640.546749 352.729412 
L 640.751084 360.882353 
L 640.710217 369.035294 
L 640.424149 377.188235 
L 639.892879 385.341176 
L 639.11495 393.494118 
L 638.047059 401.933127 
L 636.808637 409.8 
L 635.273808 417.952941 
L 633.478058 426.105882 
L 631.417966 434.258824 
L 629.493211 441.052941 
L 627.176471 448.455812 
L 624.574161 456 
L 621.741176 463.487395 
L 619.023529 470.107531 
L 616.257219 476.382353 
L 613.043192 483.176471 
L 609.511765 490.13045 
L 605.435294 497.592416 
L 601.953061 503.558824 
L 597.73395 510.352941 
L 593.205882 517.182975 
L 588.422655 523.941176 
L 583.694118 530.219496 
L 578.940434 536.170588 
L 574.182353 541.802214 
L 568.747059 547.873519 
L 563.311765 553.596648 
L 557.876471 559.000717 
L 552.441176 564.111685 
L 547.005882 568.952766 
L 540.743478 574.217647 
L 534.776471 578.945667 
L 528.369762 583.729412 
L 522.547059 587.830514 
L 515.752941 592.33395 
L 508.958824 596.553061 
L 502.164706 600.502511 
L 495.370588 604.195973 
L 488.576471 607.643192 
L 481.675294 610.905882 
L 474.988235 613.844476 
L 468.194118 616.614398 
L 461.4 619.174161 
L 453.247059 621.976193 
L 445.094118 624.494118 
L 436.941176 626.734245 
L 428.788235 628.706123 
L 420.635294 630.413471 
L 412.482353 631.862725 
L 404.329412 633.057786 
L 396.141629 634.005882 
L 388.023529 634.697214 
L 379.870588 635.146749 
L 371.717647 635.351084 
L 363.564706 635.310217 
L 355.411765 635.024149 
L 347.258824 634.492879 
L 339.105882 633.71495 
L 330.666873 632.647059 
L 322.8 631.408637 
L 314.647059 629.873808 
L 306.494118 628.078058 
L 298.341176 626.017966 
L 291.547059 624.093211 
L 284.144188 621.776471 
L 276.6 619.174161 
L 269.112605 616.341176 
L 262.492469 613.623529 
L 256.217647 610.857219 
L 249.423529 607.643192 
L 242.46955 604.111765 
L 235.007584 600.035294 
L 229.041176 596.553061 
L 222.247059 592.33395 
L 215.417025 587.805882 
L 208.658824 583.022655 
L 202.380504 578.294118 
L 196.429412 573.540434 
L 190.797786 568.782353 
L 184.726481 563.347059 
L 179.003352 557.911765 
L 173.599283 552.476471 
L 168.488315 547.041176 
L 163.647234 541.605882 
L 158.382353 535.343478 
L 153.654333 529.376471 
L 148.870588 522.969762 
L 144.769486 517.147059 
L 140.26605 510.352941 
L 136.046939 503.558824 
L 132.097489 496.764706 
L 128.404027 489.970588 
L 124.956808 483.176471 
L 121.694118 476.275294 
L 118.755524 469.588235 
L 115.985602 462.794118 
L 113.425839 456 
L 110.623807 447.847059 
L 108.105882 439.694118 
L 105.865755 431.541176 
L 103.893877 423.388235 
L 102.186529 415.235294 
L 100.737275 407.082353 
L 99.542214 398.929412 
L 98.594118 390.741629 
L 97.902786 382.623529 
L 97.453251 374.470588 
L 97.248916 366.317647 
L 97.289783 358.164706 
L 97.575851 350.011765 
L 98.107121 341.858824 
L 98.88505 333.705882 
L 99.952941 325.266873 
L 101.191363 317.4 
L 102.726192 309.247059 
L 104.521942 301.094118 
L 106.582034 292.941176 
L 108.506789 286.147059 
L 110.823529 278.744188 
L 113.425839 271.2 
L 116.258824 263.712605 
L 118.976471 257.092469 
L 121.742781 250.817647 
L 124.956808 244.023529 
L 128.488235 237.06955 
L 132.564706 229.607584 
L 136.046939 223.641176 
L 140.26605 216.847059 
L 144.794118 210.017025 
L 149.577345 203.258824 
L 154.305882 196.980504 
L 159.059566 191.029412 
L 163.817647 185.397786 
L 169.252941 179.326481 
L 174.688235 173.603352 
L 177.83083 170.442626 
L 177.83083 170.442626 
" style="fill:none;stroke:#44aa00;stroke-width:1.5;"/>
   </g>
   <g id="LineCollection_2">
    <path clip-path="url(#pee30b49b09)" d="M 390.460599 242.098339 
L 402.970588 242.253834 
L 412.482353 242.565589 
L 419.276471 242.966787 
L 426.070588 243.573267 
L 431.505882 244.250184 
L 436.941176 245.148981 
L 441.017647 246.00181 
L 445.094118 247.032112 
L 449.170588 248.27903 
L 453.247059 249.7876 
L 457.323529 251.609504 
L 460.927164 253.535294 
L 463.13613 254.894118 
L 465.476471 256.50698 
L 468.577997 258.970588 
L 471.479075 261.688235 
L 473.956868 264.405882 
L 476.347059 267.47423 
L 477.948692 269.841176 
L 479.56806 272.558824 
L 480.990496 275.276471 
L 482.242556 277.994118 
L 483.846554 282.070588 
L 485.175759 286.147059 
L 486.276676 290.223529 
L 487.451019 295.658824 
L 488.349816 301.094118 
L 489.026733 306.529412 
L 489.633213 313.323529 
L 490.034411 320.117647 
L 490.346166 329.629412 
L 490.500202 341.858824 
L 490.531134 369.035294 
L 490.420258 393.494118 
L 490.147455 404.364706 
L 489.728554 412.517647 
L 489.166861 419.311765 
L 488.540894 424.747059 
L 487.697047 430.182353 
L 486.902011 434.258824 
L 485.858824 438.630475 
L 484.5 443.231063 
L 483.141176 447.024208 
L 481.639863 450.564706 
L 480.306242 453.282353 
L 478.785939 456 
L 477.050105 458.717647 
L 474.988235 461.534317 
L 472.270588 464.68795 
L 469.552941 467.364724 
L 466.835294 469.666244 
L 464.117647 471.650105 
L 460.927164 473.664706 
L 457.323529 475.590496 
L 454.605882 476.842556 
L 450.529412 478.446554 
L 446.452941 479.775759 
L 442.376471 480.876676 
L 436.941176 482.051019 
L 431.505882 482.949816 
L 426.070588 483.626733 
L 419.276471 484.233213 
L 412.482353 484.634411 
L 402.970588 484.946166 
L 390.741176 485.100202 
L 363.564706 485.131134 
L 339.105882 485.020258 
L 328.235294 484.747455 
L 320.082353 484.328554 
L 313.288235 483.766861 
L 307.852941 483.140894 
L 302.417647 482.297047 
L 298.341176 481.502011 
L 293.969525 480.458824 
L 289.368937 479.1 
L 285.575792 477.741176 
L 282.035294 476.239863 
L 279.317647 474.906242 
L 276.6 473.385939 
L 273.882353 471.650105 
L 271.065683 469.588235 
L 267.91205 466.870588 
L 265.235276 464.152941 
L 262.933756 461.435294 
L 260.949895 458.717647 
L 258.935294 455.527164 
L 257.009504 451.923529 
L 255.757444 449.205882 
L 254.153446 445.129412 
L 252.824241 441.052941 
L 251.723324 436.976471 
L 250.548981 431.541176 
L 249.650184 426.105882 
L 248.973267 420.670588 
L 248.366787 413.876471 
L 247.965589 407.082353 
L 247.653834 397.570588 
L 247.499798 385.341176 
L 247.468866 358.164706 
L 247.579742 333.705882 
L 247.852545 322.835294 
L 248.271446 314.682353 
L 248.833139 307.888235 
L 249.459106 302.452941 
L 250.302953 297.017647 
L 251.097989 292.941176 
L 252.141176 288.569525 
L 253.5 283.968937 
L 254.858824 280.175792 
L 256.360137 276.635294 
L 257.693758 273.917647 
L 259.214061 271.2 
L 260.949895 268.482353 
L 263.011765 265.665683 
L 265.729412 262.51205 
L 268.447059 259.835276 
L 271.164706 257.533756 
L 273.882353 255.549895 
L 277.072836 253.535294 
L 280.676471 251.609504 
L 283.394118 250.357444 
L 287.470588 248.753446 
L 291.547059 247.424241 
L 295.623529 246.323324 
L 301.058824 245.148981 
L 306.494118 244.250184 
L 311.929412 243.573267 
L 318.723529 242.966787 
L 325.517647 242.565589 
L 335.029412 242.253834 
L 347.539401 242.098339 
L 347.539401 242.098339 
" style="fill:none;stroke:#44aa00;stroke-width:1.5;"/>
   </g>
   <g id="LineCollection_3">
    <path clip-path="url(#pee30b49b09)" d="M 461.923494 389.276468 
L 461.797109 405.723529 
L 461.545149 413.876471 
L 461.203251 419.311765 
L 460.629016 424.747059 
L 459.990864 428.823529 
L 459.056646 432.9 
L 458.228168 435.617647 
L 457.181645 438.335294 
L 455.829629 441.052941 
L 454.058856 443.770588 
L 452.975226 445.129412 
L 451.709247 446.488235 
L 450.208722 447.847059 
L 447.811765 449.602348 
L 445.094118 451.140643 
L 442.376471 452.334121 
L 439.643475 453.282353 
L 435.582353 454.310427 
L 431.505882 455.03987 
L 427.429412 455.549351 
L 421.994118 456.002068 
L 415.2 456.298425 
L 405.688235 456.472189 
L 386.664706 456.52963 
L 329.594118 456.441051 
L 320.082353 456.203543 
L 313.288235 455.803251 
L 307.852941 455.229016 
L 303.776471 454.590864 
L 299.7 453.656646 
L 296.982353 452.828168 
L 294.264706 451.781645 
L 291.547059 450.429629 
L 288.829412 448.658856 
L 287.470588 447.575226 
L 286.111765 446.309247 
L 284.752941 444.808722 
L 282.997652 442.411765 
L 281.459357 439.694118 
L 280.265879 436.976471 
L 279.317647 434.243475 
L 278.289573 430.182353 
L 277.56013 426.105882 
L 277.050649 422.029412 
L 276.597932 416.594118 
L 276.301575 409.8 
L 276.127811 400.288235 
L 276.07037 381.264706 
L 276.158949 324.194118 
L 276.396457 314.682353 
L 276.796749 307.888235 
L 277.370984 302.452941 
L 278.009136 298.376471 
L 278.943354 294.3 
L 279.771832 291.582353 
L 280.818355 288.864706 
L 282.170371 286.147059 
L 283.941144 283.429412 
L 285.024774 282.070588 
L 286.290753 280.711765 
L 287.791278 279.352941 
L 290.188235 277.597652 
L 292.905882 276.059357 
L 295.623529 274.865879 
L 298.356525 273.917647 
L 302.417647 272.889573 
L 306.494118 272.16013 
L 310.570588 271.650649 
L 316.005882 271.197932 
L 322.8 270.901575 
L 332.311765 270.727811 
L 351.335294 270.67037 
L 408.405882 270.758949 
L 417.917647 270.996457 
L 424.711765 271.396749 
L 430.147059 271.970984 
L 434.223529 272.609136 
L 438.3 273.543354 
L 441.017647 274.371832 
L 443.735294 275.418355 
L 446.452941 276.770371 
L 449.170588 278.541144 
L 450.529412 279.624774 
L 451.888235 280.890753 
L 453.247059 282.391278 
L 455.002348 284.788235 
L 456.540643 287.505882 
L 457.734121 290.223529 
L 458.682353 292.956525 
L 459.710427 297.017647 
L 460.43987 301.094118 
L 460.949351 305.170588 
L 461.402068 310.605882 
L 461.698425 317.4 
L 461.872189 326.911765 
L 461.929658 346.076471 
L 461.929658 346.076471 
" style="fill:none;stroke:#44aa00;stroke-width:1.5;"/>
   </g>
   <g id="LineCollection_4">
    <path clip-path="url(#pee30b49b09)" d="M 307.852941 443.783091 
L 305.135294 443.278119 
L 301.824665 442.411765 
L 299.7 441.595599 
L 298.341176 440.956063 
L 296.324339 439.694118 
L 294.695921 438.335294 
L 293.447939 436.976471 
L 292.456723 435.617647 
L 291.547059 434.073528 
L 290.456634 431.541176 
L 290.004042 430.182353 
L 289.321881 427.464706 
L 288.816909 424.747059 
L 288.35826 420.670588 
L 288.015206 415.235294 
L 287.826063 408.441176 
L 287.742703 396.211765 
L 287.749053 328.270588 
L 287.88043 316.041176 
L 288.157049 309.247059 
L 288.487226 305.170588 
L 289.049377 301.094118 
L 289.638139 298.376471 
L 290.456634 295.658824 
L 291.643937 292.941176 
L 292.905882 290.924339 
L 294.264706 289.295921 
L 295.623529 288.047939 
L 296.982353 287.056723 
L 298.526472 286.147059 
L 301.058824 285.056634 
L 302.417647 284.604042 
L 305.135294 283.921881 
L 307.852941 283.416909 
L 311.929412 282.95826 
L 317.364706 282.615206 
L 324.158824 282.426063 
L 336.388235 282.342703 
L 404.329412 282.349053 
L 416.558824 282.48043 
L 423.352941 282.757049 
L 427.429412 283.087226 
L 431.505882 283.649377 
L 434.223529 284.238139 
L 436.941176 285.056634 
L 439.658824 286.243937 
L 441.675661 287.505882 
L 443.304079 288.864706 
L 444.552061 290.223529 
L 445.543277 291.582353 
L 446.452941 293.126472 
L 447.543366 295.658824 
L 447.995958 297.017647 
L 448.678119 299.735294 
L 449.183091 302.452941 
L 449.64174 306.529412 
L 449.984794 311.964706 
L 450.173937 318.758824 
L 450.257297 330.988235 
L 450.250947 398.929412 
L 450.11957 411.158824 
L 449.842951 417.952941 
L 449.512774 422.029412 
L 448.950623 426.105882 
L 448.361861 428.823529 
L 447.543366 431.541176 
L 446.356063 434.258824 
L 445.094118 436.275661 
L 443.735294 437.904079 
L 442.376471 439.152061 
L 441.017647 440.143277 
L 439.473528 441.052941 
L 436.941176 442.143366 
L 435.582353 442.595958 
L 432.864706 443.278119 
L 430.147059 443.783091 
L 426.070588 444.24174 
L 420.635294 444.584794 
L 413.841176 444.773937 
L 401.611765 444.857297 
L 333.670588 444.850947 
L 321.441176 444.71957 
L 314.647059 444.442951 
L 310.570588 444.112774 
L 307.852941 443.783091 
L 307.852941 443.783091 
" style="fill:none;stroke:#44aa00;stroke-width:1.5;"/>
   </g>
   <g id="LineCollection_5">
    <path clip-path="url(#pee30b49b09)" d="M 316.005882 438.354543 
L 311.929412 438.071887 
L 307.852941 437.528826 
L 305.135294 436.927794 
L 302.417647 435.899817 
L 301.058824 435.151762 
L 299.7 434.181408 
L 298.341176 432.807646 
L 296.982353 430.750122 
L 296.138161 428.823529 
L 295.623529 427.292803 
L 295.071174 424.747059 
L 294.673116 422.029412 
L 294.317088 417.952941 
L 294.123616 412.517647 
L 294.032323 401.647059 
L 294.024554 336.423529 
L 294.123616 314.682353 
L 294.317088 309.247059 
L 294.673116 305.170588 
L 295.071174 302.452941 
L 295.672206 299.735294 
L 296.700183 297.017647 
L 297.448238 295.658824 
L 298.418592 294.3 
L 299.792354 292.941176 
L 301.849878 291.582353 
L 303.776471 290.738161 
L 305.307197 290.223529 
L 307.852941 289.671174 
L 310.570588 289.273116 
L 314.647059 288.917088 
L 320.082353 288.723616 
L 330.952941 288.632323 
L 396.176471 288.624554 
L 417.917647 288.723616 
L 423.352941 288.917088 
L 427.429412 289.273116 
L 430.147059 289.671174 
L 432.864706 290.272206 
L 435.582353 291.300183 
L 436.941176 292.048238 
L 438.3 293.018592 
L 439.658824 294.392354 
L 441.017647 296.449878 
L 441.861839 298.376471 
L 442.376471 299.907197 
L 442.928826 302.452941 
L 443.326884 305.170588 
L 443.682912 309.247059 
L 443.876384 314.682353 
L 443.967677 325.552941 
L 443.975446 390.776471 
L 443.876384 412.517647 
L 443.682912 417.952941 
L 443.326884 422.029412 
L 442.928826 424.747059 
L 442.327794 427.464706 
L 441.299817 430.182353 
L 440.551762 431.541176 
L 439.581408 432.9 
L 438.207646 434.258824 
L 436.150122 435.617647 
L 434.223529 436.461839 
L 432.692803 436.976471 
L 430.147059 437.528826 
L 427.429412 437.926884 
L 423.352941 438.282912 
L 417.917647 438.476384 
L 407.047059 438.567677 
L 341.823529 438.575446 
L 320.082353 438.476384 
L 316.005882 438.354543 
L 316.005882 438.354543 
" style="fill:none;stroke:#44aa00;stroke-width:1.5;"/>
   </g>
   <g id="LineCollection_6">
    <path clip-path="url(#pee30b49b09)" d="M 313.288235 434.339906 
L 310.570588 434.06806 
L 307.852941 433.58317 
L 305.46385 432.9 
L 305.135294 432.767405 
L 302.9448 431.541176 
L 302.417647 431.119992 
L 301.058824 429.6552 
L 300.525525 428.823529 
L 299.7 427.13615 
L 299.01683 424.747059 
L 298.53194 422.029412 
L 298.260094 419.311765 
L 298.043773 413.876471 
L 297.961856 404.364706 
L 297.954692 337.782353 
L 298.043773 313.323529 
L 298.260094 307.888235 
L 298.53194 305.170588 
L 299.01683 302.452941 
L 299.7 300.06385 
L 299.832595 299.735294 
L 301.058824 297.5448 
L 301.480008 297.017647 
L 302.9448 295.658824 
L 303.776471 295.125525 
L 305.46385 294.3 
L 307.852941 293.61683 
L 310.570588 293.13194 
L 313.288235 292.860094 
L 318.723529 292.643773 
L 328.235294 292.561856 
L 394.817647 292.554692 
L 419.276471 292.643773 
L 424.711765 292.860094 
L 427.429412 293.13194 
L 430.147059 293.61683 
L 432.53615 294.3 
L 432.864706 294.432595 
L 435.0552 295.658824 
L 435.582353 296.080008 
L 436.941176 297.5448 
L 437.474475 298.376471 
L 438.3 300.06385 
L 438.98317 302.452941 
L 439.46806 305.170588 
L 439.739906 307.888235 
L 439.956227 313.323529 
L 440.038144 322.835294 
L 440.045308 389.417647 
L 439.956227 413.876471 
L 439.739906 419.311765 
L 439.46806 422.029412 
L 438.98317 424.747059 
L 438.3 427.13615 
L 438.167405 427.464706 
L 436.941176 429.6552 
L 436.519992 430.182353 
L 435.0552 431.541176 
L 434.223529 432.074475 
L 432.53615 432.9 
L 430.147059 433.58317 
L 427.429412 434.06806 
L 424.711765 434.339906 
L 419.276471 434.556227 
L 409.764706 434.638144 
L 343.182353 434.645308 
L 318.723529 434.556227 
L 313.288235 434.339906 
L 313.288235 434.339906 
" style="fill:none;stroke:#44aa00;stroke-width:1.5;"/>
   </g>
   <g id="LineCollection_7">
    <path clip-path="url(#pee30b49b09)" d="M 311.929412 431.594058 
L 310.570588 431.422358 
L 307.852941 430.828245 
L 306.063133 430.182353 
L 305.135294 429.645539 
L 303.776471 428.542291 
L 302.954461 427.464706 
L 302.226382 426.105882 
L 301.431152 423.388235 
L 301.005942 420.670588 
L 300.766809 416.594118 
L 300.6548 409.8 
L 300.635576 383.982353 
L 300.7268 311.964706 
L 300.899886 307.888235 
L 301.177642 305.170588 
L 301.771755 302.452941 
L 302.417647 300.663133 
L 302.954461 299.735294 
L 304.057709 298.376471 
L 305.135294 297.554461 
L 306.494118 296.826382 
L 309.211765 296.031152 
L 311.929412 295.605942 
L 316.005882 295.366809 
L 322.8 295.2548 
L 348.617647 295.235576 
L 420.635294 295.3268 
L 424.711765 295.499886 
L 427.429412 295.777642 
L 430.147059 296.371755 
L 431.936867 297.017647 
L 432.864706 297.554461 
L 434.223529 298.657709 
L 435.045539 299.735294 
L 435.773618 301.094118 
L 436.568848 303.811765 
L 436.994058 306.529412 
L 437.233191 310.605882 
L 437.3452 317.4 
L 437.364424 343.217647 
L 437.2732 415.235294 
L 437.100114 419.311765 
L 436.822358 422.029412 
L 436.228245 424.747059 
L 435.582353 426.536867 
L 435.045539 427.464706 
L 433.942291 428.823529 
L 432.864706 429.645539 
L 431.505882 430.373618 
L 428.788235 431.168848 
L 426.070588 431.594058 
L 421.994118 431.833191 
L 415.2 431.9452 
L 389.382353 431.964424 
L 317.364706 431.8732 
L 313.288235 431.700114 
L 311.929412 431.594058 
L 311.929412 431.594058 
" style="fill:none;stroke:#44aa00;stroke-width:1.5;"/>
   </g>
   <g id="LineCollection_8">
    <path clip-path="url(#pee30b49b09)" d="M 309.211765 429.183938 
L 307.852941 428.805109 
L 306.494118 428.092124 
L 305.135294 426.969047 
L 304.507876 426.105882 
L 303.776471 424.698074 
L 303.150132 422.029412 
L 302.831153 419.311765 
L 302.634762 415.235294 
L 302.557291 407.082353 
L 302.552025 332.347059 
L 302.634762 311.964706 
L 302.831153 307.888235 
L 303.150132 305.170588 
L 303.794891 302.452941 
L 304.507876 301.094118 
L 305.630953 299.735294 
L 306.494118 299.107876 
L 307.901926 298.376471 
L 310.570588 297.750132 
L 313.288235 297.431153 
L 317.364706 297.234762 
L 325.517647 297.157291 
L 400.252941 297.152025 
L 420.635294 297.234762 
L 424.711765 297.431153 
L 427.429412 297.750132 
L 430.147059 298.394891 
L 431.505882 299.107876 
L 432.864706 300.230953 
L 433.492124 301.094118 
L 434.223529 302.501926 
L 434.849868 305.170588 
L 435.168847 307.888235 
L 435.365238 311.964706 
L 435.442709 320.117647 
L 435.447975 394.852941 
L 435.365238 415.235294 
L 435.168847 419.311765 
L 434.849868 422.029412 
L 434.205109 424.747059 
L 433.492124 426.105882 
L 432.369047 427.464706 
L 431.505882 428.092124 
L 430.098074 428.823529 
L 427.429412 429.449868 
L 424.711765 429.768847 
L 420.635294 429.965238 
L 412.482353 430.042709 
L 337.747059 430.047975 
L 317.364706 429.965238 
L 313.288235 429.768847 
L 310.570588 429.449868 
L 309.211765 429.183938 
L 309.211765 429.183938 
" style="fill:none;stroke:#44aa00;stroke-width:1.5;"/>
   </g>
   <g id="LineCollection_9">
    <path clip-path="url(#pee30b49b09)" d="M 309.211765 427.661221 
L 307.852941 427.102938 
L 306.43626 426.105882 
L 305.497062 424.747059 
L 304.938779 423.388235 
L 304.42855 420.670588 
L 304.200947 417.952941 
L 304.063426 412.517647 
L 304.039143 393.494118 
L 304.141724 310.605882 
L 304.42855 306.529412 
L 304.938779 303.811765 
L 305.497062 302.452941 
L 306.494118 301.03626 
L 307.852941 300.097062 
L 309.211765 299.538779 
L 311.929412 299.02855 
L 314.647059 298.800947 
L 320.082353 298.663426 
L 339.105882 298.639143 
L 421.994118 298.741724 
L 426.070588 299.02855 
L 428.788235 299.538779 
L 430.147059 300.097062 
L 431.56374 301.094118 
L 432.502938 302.452941 
L 433.061221 303.811765 
L 433.57145 306.529412 
L 433.799053 309.247059 
L 433.936574 314.682353 
L 433.960857 333.705882 
L 433.858276 416.594118 
L 433.57145 420.670588 
L 433.061221 423.388235 
L 432.502938 424.747059 
L 431.505882 426.16374 
L 430.147059 427.102938 
L 428.788235 427.661221 
L 426.070588 428.17145 
L 423.352941 428.399053 
L 417.917647 428.536574 
L 398.894118 428.560857 
L 316.005882 428.458276 
L 311.929412 428.17145 
L 309.211765 427.661221 
L 309.211765 427.661221 
" style="fill:none;stroke:#44aa00;stroke-width:1.5;"/>
   </g>
   <g id="LineCollection_10">
    <path clip-path="url(#pee30b49b09)" d="M 309.211765 426.400314 
L 308.533362 426.105882 
L 307.852941 425.659675 
L 306.940325 424.747059 
L 306.494118 424.066638 
L 306.199686 423.388235 
L 305.816633 422.029412 
L 305.413561 419.311765 
L 305.215807 415.235294 
L 305.161373 405.723529 
L 305.215807 311.964706 
L 305.413561 307.888235 
L 305.816633 305.170588 
L 306.494118 303.133362 
L 306.940325 302.452941 
L 307.852941 301.540325 
L 308.533362 301.094118 
L 309.211765 300.799686 
L 310.570588 300.416633 
L 313.288235 300.013561 
L 317.364706 299.815807 
L 326.876471 299.761373 
L 420.635294 299.815807 
L 424.711765 300.013561 
L 427.429412 300.416633 
L 429.466638 301.094118 
L 430.147059 301.540325 
L 431.059675 302.452941 
L 431.505882 303.133362 
L 431.800314 303.811765 
L 432.183367 305.170588 
L 432.586439 307.888235 
L 432.784193 311.964706 
L 432.838627 321.476471 
L 432.784193 415.235294 
L 432.586439 419.311765 
L 432.183367 422.029412 
L 431.505882 424.066638 
L 431.059675 424.747059 
L 430.147059 425.659675 
L 429.466638 426.105882 
L 428.788235 426.400314 
L 427.429412 426.783367 
L 424.711765 427.186439 
L 420.635294 427.384193 
L 411.123529 427.438627 
L 317.364706 427.384193 
L 313.288235 427.186439 
L 310.570588 426.783367 
L 309.211765 426.400314 
L 309.211765 426.400314 
" style="fill:none;stroke:#44aa00;stroke-width:1.5;"/>
   </g>
   <g id="LineCollection_11">
    <path clip-path="url(#pee30b49b09)" d="M 311.929412 426.1505 
L 310.570588 425.851483 
L 309.211765 425.322378 
L 308.294654 424.747059 
L 307.852941 424.305346 
L 307.277622 423.388235 
L 306.748517 422.029412 
L 306.4495 420.670588 
L 306.249731 417.952941 
L 306.156186 412.517647 
L 306.145968 378.547059 
L 306.249731 309.247059 
L 306.494118 306.234863 
L 306.748517 305.170588 
L 307.277622 303.811765 
L 307.852941 302.894654 
L 308.294654 302.452941 
L 309.211765 301.877622 
L 310.570588 301.348517 
L 311.929412 301.0495 
L 314.647059 300.849731 
L 320.082353 300.756186 
L 354.052941 300.745968 
L 423.352941 300.849731 
L 426.365137 301.094118 
L 427.429412 301.348517 
L 428.788235 301.877622 
L 429.705346 302.452941 
L 430.147059 302.894654 
L 430.722378 303.811765 
L 431.251483 305.170588 
L 431.5505 306.529412 
L 431.750269 309.247059 
L 431.843814 314.682353 
L 431.854032 348.652941 
L 431.750269 417.952941 
L 431.505882 420.965137 
L 431.251483 422.029412 
L 430.722378 423.388235 
L 430.147059 424.305346 
L 429.705346 424.747059 
L 428.788235 425.322378 
L 427.429412 425.851483 
L 426.070588 426.1505 
L 423.352941 426.350269 
L 417.917647 426.443814 
L 383.947059 426.454032 
L 314.647059 426.350269 
L 311.929412 426.1505 
L 311.929412 426.1505 
" style="fill:none;stroke:#44aa00;stroke-width:1.5;"/>
   </g>
   <g id="LineCollection_12">
    <path clip-path="url(#pee30b49b09)" d="M 310.570588 425.029145 
L 309.778129 424.747059 
L 309.211765 424.411103 
L 308.188897 423.388235 
L 307.852941 422.821871 
L 307.570855 422.029412 
L 307.287397 420.670588 
L 307.029725 417.952941 
L 306.923159 412.517647 
L 306.913922 377.188235 
L 306.976993 310.605882 
L 307.123377 307.888235 
L 307.287397 306.529412 
L 307.570855 305.170588 
L 307.852941 304.378129 
L 308.188897 303.811765 
L 309.211765 302.788897 
L 309.778129 302.452941 
L 310.570588 302.170855 
L 311.929412 301.887397 
L 314.647059 301.629725 
L 320.082353 301.523159 
L 355.411765 301.513922 
L 421.994118 301.576993 
L 424.711765 301.723377 
L 426.070588 301.887397 
L 427.429412 302.170855 
L 428.221871 302.452941 
L 428.788235 302.788897 
L 429.811103 303.811765 
L 430.147059 304.378129 
L 430.429145 305.170588 
L 430.712603 306.529412 
L 430.970275 309.247059 
L 431.076841 314.682353 
L 431.086078 350.011765 
L 431.023007 416.594118 
L 430.876623 419.311765 
L 430.712603 420.670588 
L 430.429145 422.029412 
L 430.147059 422.821871 
L 429.811103 423.388235 
L 428.788235 424.411103 
L 428.221871 424.747059 
L 427.429412 425.029145 
L 426.070588 425.312603 
L 423.352941 425.570275 
L 417.917647 425.676841 
L 382.588235 425.686078 
L 316.005882 425.623007 
L 313.288235 425.476623 
L 311.929412 425.312603 
L 310.570588 425.029145 
L 310.570588 425.029145 
" style="fill:none;stroke:#44aa00;stroke-width:1.5;"/>
   </g>
   <g id="LineCollection_13">
    <path clip-path="url(#pee30b49b09)" d="M 311.929412 424.752534 
L 311.899337 424.747059 
L 310.570588 424.325663 
L 309.044615 423.388235 
L 308.274337 422.029412 
L 307.847466 420.670588 
L 307.636729 417.952941 
L 307.559598 412.517647 
L 307.55427 355.447059 
L 307.636729 309.247059 
L 307.852941 306.499337 
L 308.274337 305.170588 
L 309.211765 303.644615 
L 310.570588 302.874337 
L 311.929412 302.447466 
L 314.647059 302.236729 
L 320.082353 302.159598 
L 377.152941 302.15427 
L 423.352941 302.236729 
L 426.100663 302.452941 
L 427.429412 302.874337 
L 428.955385 303.811765 
L 429.725663 305.170588 
L 430.152534 306.529412 
L 430.363271 309.247059 
L 430.440402 314.682353 
L 430.44573 371.752941 
L 430.363271 417.952941 
L 430.147059 420.700663 
L 429.725663 422.029412 
L 428.788235 423.555385 
L 427.429412 424.325663 
L 426.070588 424.752534 
L 423.352941 424.963271 
L 417.917647 425.040402 
L 360.847059 425.04573 
L 314.647059 424.963271 
L 311.929412 424.752534 
L 311.929412 424.752534 
" style="fill:none;stroke:#44aa00;stroke-width:1.5;"/>
   </g>
   <g id="LineCollection_14">
    <path clip-path="url(#pee30b49b09)" d="M 310.570588 423.711186 
L 309.974445 423.388235 
L 309.211765 422.625555 
L 308.888814 422.029412 
L 308.495665 420.670588 
L 308.181632 417.952941 
L 308.086213 413.876471 
L 308.074092 389.417647 
L 308.181632 309.247059 
L 308.495665 306.529412 
L 308.888814 305.170588 
L 309.211765 304.574445 
L 309.974445 303.811765 
L 310.570588 303.488814 
L 311.929412 303.095665 
L 314.647059 302.781632 
L 318.723529 302.686213 
L 343.182353 302.674092 
L 423.352941 302.781632 
L 426.070588 303.095665 
L 427.429412 303.488814 
L 428.025555 303.811765 
L 428.788235 304.574445 
L 429.111186 305.170588 
L 429.504335 306.529412 
L 429.818368 309.247059 
L 429.913787 313.323529 
L 429.925908 337.782353 
L 429.818368 417.952941 
L 429.504335 420.670588 
L 429.111186 422.029412 
L 428.788235 422.625555 
L 428.025555 423.388235 
L 427.429412 423.711186 
L 426.070588 424.104335 
L 423.352941 424.418368 
L 419.276471 424.513787 
L 394.817647 424.525908 
L 314.647059 424.418368 
L 311.929412 424.104335 
L 310.570588 423.711186 
L 310.570588 423.711186 
" style="fill:none;stroke:#44aa00;stroke-width:1.5;"/>
   </g>
   <g id="LineCollection_15">
    <path clip-path="url(#pee30b49b09)" d="M 311.929412 423.649471 
L 310.570588 423.200011 
L 309.399989 422.029412 
L 309.211765 421.660248 
L 308.950529 420.670588 
L 308.681745 417.952941 
L 308.604263 412.517647 
L 308.600833 333.705882 
L 308.681745 309.247059 
L 308.950529 306.529412 
L 309.399989 305.170588 
L 310.570588 303.999989 
L 310.939752 303.811765 
L 311.929412 303.550529 
L 314.647059 303.281745 
L 320.082353 303.204263 
L 398.894118 303.200833 
L 423.352941 303.281745 
L 426.070588 303.550529 
L 427.429412 303.999989 
L 428.600011 305.170588 
L 428.788235 305.539752 
L 429.049471 306.529412 
L 429.318255 309.247059 
L 429.395737 314.682353 
L 429.399167 393.494118 
L 429.318255 417.952941 
L 429.049471 420.670588 
L 428.600011 422.029412 
L 427.429412 423.200011 
L 427.060248 423.388235 
L 426.070588 423.649471 
L 423.352941 423.918255 
L 417.917647 423.995737 
L 339.105882 423.999167 
L 314.647059 423.918255 
L 311.929412 423.649471 
L 311.929412 423.649471 
" style="fill:none;stroke:#44aa00;stroke-width:1.5;"/>
   </g>
   <g id="LineCollection_16">
    <path clip-path="url(#pee30b49b09)" d="M 313.288235 423.491098 
L 311.929412 423.279652 
L 310.570588 422.618239 
L 309.981761 422.029412 
L 309.211765 420.204389 
L 309.035306 417.952941 
L 308.97502 411.158824 
L 309.035306 309.247059 
L 309.211765 306.995611 
L 309.320348 306.529412 
L 309.981761 305.170588 
L 310.570588 304.581761 
L 312.395611 303.811765 
L 314.647059 303.635306 
L 321.441176 303.57502 
L 423.352941 303.635306 
L 425.604389 303.811765 
L 426.070588 303.920348 
L 427.429412 304.581761 
L 428.018239 305.170588 
L 428.788235 306.995611 
L 428.964694 309.247059 
L 429.02498 316.041176 
L 428.964694 417.952941 
L 428.788235 420.204389 
L 428.679652 420.670588 
L 428.018239 422.029412 
L 427.429412 422.618239 
L 425.604389 423.388235 
L 423.352941 423.564694 
L 416.558824 423.62498 
L 314.647059 423.564694 
L 313.288235 423.491098 
L 313.288235 423.491098 
" style="fill:none;stroke:#44aa00;stroke-width:1.5;"/>
   </g>
   <g id="LineCollection_17">
    <path clip-path="url(#pee30b49b09)" d="M 310.570588 422.187898 
L 310.412102 422.029412 
L 309.780669 420.670588 
L 309.492537 419.311765 
L 309.30694 416.594118 
L 309.265616 408.441176 
L 309.363544 309.247059 
L 309.492537 307.888235 
L 309.780669 306.529412 
L 310.570588 305.012102 
L 311.929412 304.380669 
L 313.288235 304.092537 
L 316.005882 303.90694 
L 324.158824 303.865616 
L 423.352941 303.963544 
L 424.711765 304.092537 
L 426.070588 304.380669 
L 427.587898 305.170588 
L 428.219331 306.529412 
L 428.507463 307.888235 
L 428.69306 310.605882 
L 428.734384 318.758824 
L 428.636456 417.952941 
L 428.507463 419.311765 
L 428.219331 420.670588 
L 427.429412 422.187898 
L 426.070588 422.819331 
L 424.711765 423.107463 
L 421.994118 423.29306 
L 413.841176 423.334384 
L 314.647059 423.236456 
L 313.288235 423.107463 
L 311.929412 422.819331 
L 310.570588 422.187898 
L 310.570588 422.187898 
" style="fill:none;stroke:#44aa00;stroke-width:1.5;"/>
   </g>
   <g id="LineCollection_18">
    <path clip-path="url(#pee30b49b09)" d="M 311.929412 422.474253 
L 310.926689 422.029412 
L 310.570588 421.673311 
L 310.125747 420.670588 
L 309.863427 419.311765 
L 309.704862 416.594118 
L 309.6735 407.082353 
L 309.751563 309.247059 
L 309.863427 307.888235 
L 310.125747 306.529412 
L 310.570588 305.526689 
L 310.926689 305.170588 
L 311.929412 304.725747 
L 313.288235 304.463427 
L 316.005882 304.304862 
L 325.517647 304.2735 
L 423.352941 304.351563 
L 424.711765 304.463427 
L 426.070588 304.725747 
L 427.073311 305.170588 
L 427.429412 305.526689 
L 427.874253 306.529412 
L 428.136573 307.888235 
L 428.295138 310.605882 
L 428.3265 320.117647 
L 428.248437 417.952941 
L 428.136573 419.311765 
L 427.874253 420.670588 
L 427.429412 421.673311 
L 427.073311 422.029412 
L 426.070588 422.474253 
L 424.711765 422.736573 
L 421.994118 422.895138 
L 412.482353 422.9265 
L 314.647059 422.848437 
L 313.288235 422.736573 
L 311.929412 422.474253 
L 311.929412 422.474253 
" style="fill:none;stroke:#44aa00;stroke-width:1.5;"/>
   </g>
   <g id="LineCollection_19">
    <path clip-path="url(#pee30b49b09)" d="M 311.929412 422.216507 
L 311.487662 422.029412 
L 310.570588 421.112338 
L 310.383493 420.670588 
L 310.144668 419.311765 
L 310.009124 416.594118 
L 309.985298 404.364706 
L 310.047656 309.247059 
L 310.144668 307.888235 
L 310.570588 306.087662 
L 311.487662 305.170588 
L 311.929412 304.983493 
L 313.288235 304.744668 
L 316.005882 304.609124 
L 328.235294 304.585298 
L 423.352941 304.647656 
L 424.711765 304.744668 
L 426.512338 305.170588 
L 427.429412 306.087662 
L 427.616507 306.529412 
L 427.855332 307.888235 
L 427.990876 310.605882 
L 428.014702 322.835294 
L 427.952344 417.952941 
L 427.855332 419.311765 
L 427.429412 421.112338 
L 426.512338 422.029412 
L 426.070588 422.216507 
L 424.711765 422.455332 
L 421.994118 422.590876 
L 409.764706 422.614702 
L 314.647059 422.552344 
L 313.288235 422.455332 
L 311.929412 422.216507 
L 311.929412 422.216507 
" style="fill:none;stroke:#44aa00;stroke-width:1.5;"/>
   </g>
   <g id="LineCollection_20">
    <path clip-path="url(#pee30b49b09)" d="M 313.288235 422.242644 
L 311.929412 422.019011 
L 310.570588 420.644308 
L 310.357356 419.311765 
L 310.241429 416.594118 
L 310.223293 401.647059 
L 310.273222 309.247059 
L 310.357356 307.888235 
L 310.580989 306.529412 
L 311.955692 305.170588 
L 313.288235 304.957356 
L 316.005882 304.841429 
L 330.952941 304.823293 
L 423.352941 304.873222 
L 424.711765 304.957356 
L 426.070588 305.180989 
L 427.429412 306.555692 
L 427.642644 307.888235 
L 427.758571 310.605882 
L 427.776707 325.552941 
L 427.726778 417.952941 
L 427.642644 419.311765 
L 427.419011 420.670588 
L 426.044308 422.029412 
L 424.711765 422.242644 
L 421.994118 422.358571 
L 407.047059 422.376707 
L 314.647059 422.326778 
L 313.288235 422.242644 
L 313.288235 422.242644 
" style="fill:none;stroke:#44aa00;stroke-width:1.5;"/>
   </g>
   <g id="LineCollection_21">
    <path clip-path="url(#pee30b49b09)" d="M 313.288235 422.08257 
L 312.923369 422.029412 
L 311.929412 421.654283 
L 310.945717 420.670588 
L 310.51743 419.311765 
L 310.409041 415.235294 
L 310.404393 366.317647 
L 310.444463 309.247059 
L 310.570588 307.523369 
L 310.945717 306.529412 
L 311.929412 305.545717 
L 313.288235 305.11743 
L 317.364706 305.009041 
L 366.282353 305.004393 
L 423.352941 305.044463 
L 425.076631 305.170588 
L 426.070588 305.545717 
L 427.054283 306.529412 
L 427.48257 307.888235 
L 427.590959 311.964706 
L 427.595607 360.882353 
L 427.555537 417.952941 
L 427.429412 419.676631 
L 427.054283 420.670588 
L 426.070588 421.654283 
L 424.711765 422.08257 
L 420.635294 422.190959 
L 371.717647 422.195607 
L 314.647059 422.155537 
L 313.288235 422.08257 
L 313.288235 422.08257 
" style="fill:none;stroke:#44aa00;stroke-width:1.5;"/>
   </g>
   <g id="LineCollection_22">
    <path clip-path="url(#pee30b49b09)" d="M 316.005882 422.047916 
L 314.647059 422.020884 
L 313.288235 421.849172 
L 311.929412 421.3601 
L 311.2399 420.670588 
L 310.750828 419.311765 
L 310.570588 417.755668 
L 310.541531 409.8 
L 310.579116 309.247059 
L 310.750828 307.888235 
L 311.2399 306.529412 
L 311.929412 305.8399 
L 313.288235 305.350828 
L 314.844332 305.170588 
L 322.8 305.141531 
L 423.352941 305.179116 
L 424.711765 305.350828 
L 426.070588 305.8399 
L 426.7601 306.529412 
L 427.249172 307.888235 
L 427.429412 309.444332 
L 427.458469 317.4 
L 427.420884 417.952941 
L 427.249172 419.311765 
L 426.7601 420.670588 
L 426.070588 421.3601 
L 424.711765 421.849172 
L 423.155668 422.029412 
L 415.2 422.058469 
L 316.005882 422.047916 
L 316.005882 422.047916 
" style="fill:none;stroke:#44aa00;stroke-width:1.5;"/>
   </g>
   <g id="LineCollection_23">
    <path clip-path="url(#pee30b49b09)" d="M 311.929412 421.123062 
L 311.476938 420.670588 
L 311.010522 419.311765 
L 310.803762 416.594118 
L 310.780736 405.723529 
L 310.85453 309.247059 
L 311.010522 307.888235 
L 311.476938 306.529412 
L 311.929412 306.076938 
L 313.288235 305.610522 
L 316.005882 305.403762 
L 326.876471 305.380736 
L 423.352941 305.45453 
L 424.711765 305.610522 
L 426.070588 306.076938 
L 426.523062 306.529412 
L 426.989478 307.888235 
L 427.196238 310.605882 
L 427.219264 321.476471 
L 427.14547 417.952941 
L 426.989478 419.311765 
L 426.523062 420.670588 
L 426.070588 421.123062 
L 424.711765 421.589478 
L 421.994118 421.796238 
L 411.123529 421.819264 
L 314.647059 421.74547 
L 313.288235 421.589478 
L 311.929412 421.123062 
L 311.929412 421.123062 
" style="fill:none;stroke:#44aa00;stroke-width:1.5;"/>
   </g>
   <g id="LineCollection_24">
    <path clip-path="url(#pee30b49b09)" d="M 311.929412 420.932459 
L 311.667541 420.670588 
L 311.222729 419.311765 
L 311.037134 416.594118 
L 311.018627 404.364706 
L 311.081015 309.247059 
L 311.222729 307.888235 
L 311.667541 306.529412 
L 311.929412 306.267541 
L 313.288235 305.822729 
L 316.005882 305.637134 
L 328.235294 305.618627 
L 423.352941 305.681015 
L 424.711765 305.822729 
L 426.070588 306.267541 
L 426.332459 306.529412 
L 426.777271 307.888235 
L 426.962866 310.605882 
L 426.981373 322.835294 
L 426.918985 417.952941 
L 426.777271 419.311765 
L 426.332459 420.670588 
L 426.070588 420.932459 
L 424.711765 421.377271 
L 421.994118 421.562866 
L 409.764706 421.581373 
L 314.647059 421.518985 
L 313.288235 421.377271 
L 311.929412 420.932459 
L 311.929412 420.932459 
" style="fill:none;stroke:#44aa00;stroke-width:1.5;"/>
   </g>
   <g id="LineCollection_25">
    <path clip-path="url(#pee30b49b09)" d="M 311.929412 420.779686 
L 311.820314 420.670588 
L 311.396101 419.311765 
L 311.229427 416.594118 
L 311.214531 401.647059 
L 311.267357 309.247059 
L 311.396101 307.888235 
L 311.929412 306.420314 
L 313.288235 305.996101 
L 316.005882 305.829427 
L 330.952941 305.814531 
L 423.352941 305.867357 
L 424.711765 305.996101 
L 426.179686 306.529412 
L 426.603899 307.888235 
L 426.770573 310.605882 
L 426.785469 325.552941 
L 426.732643 417.952941 
L 426.603899 419.311765 
L 426.070588 420.779686 
L 424.711765 421.203899 
L 421.994118 421.370573 
L 407.047059 421.385469 
L 314.647059 421.332643 
L 313.288235 421.203899 
L 311.929412 420.779686 
L 311.929412 420.779686 
" style="fill:none;stroke:#44aa00;stroke-width:1.5;"/>
   </g>
   <g id="LineCollection_26">
    <path clip-path="url(#pee30b49b09)" d="M 313.288235 421.062365 
L 311.929412 420.627617 
L 311.537635 419.311765 
L 311.387885 416.594118 
L 311.375877 398.929412 
L 311.420672 309.247059 
L 311.537635 307.888235 
L 311.972383 306.529412 
L 313.288235 306.137635 
L 316.005882 305.987885 
L 333.670588 305.975877 
L 423.352941 306.020672 
L 424.711765 306.137635 
L 426.070588 306.572383 
L 426.462365 307.888235 
L 426.612115 310.605882 
L 426.624123 328.270588 
L 426.579328 417.952941 
L 426.462365 419.311765 
L 426.027617 420.670588 
L 424.711765 421.062365 
L 421.994118 421.212115 
L 404.329412 421.224123 
L 314.647059 421.179328 
L 313.288235 421.062365 
L 313.288235 421.062365 
" style="fill:none;stroke:#44aa00;stroke-width:1.5;"/>
   </g>
   <g id="LineCollection_27">
    <path clip-path="url(#pee30b49b09)" d="M 313.288235 420.946992 
L 312.314819 420.670588 
L 311.929412 420.285181 
L 311.653008 419.311765 
L 311.518404 416.594118 
L 311.508712 394.852941 
L 311.546746 309.247059 
L 311.653008 307.888235 
L 311.929412 306.914819 
L 312.314819 306.529412 
L 313.288235 306.253008 
L 316.005882 306.118404 
L 337.747059 306.108712 
L 423.352941 306.146746 
L 424.711765 306.253008 
L 425.685181 306.529412 
L 426.070588 306.914819 
L 426.346992 307.888235 
L 426.481596 310.605882 
L 426.491288 332.347059 
L 426.453254 417.952941 
L 426.346992 419.311765 
L 426.070588 420.285181 
L 425.685181 420.670588 
L 424.711765 420.946992 
L 421.994118 421.081596 
L 400.252941 421.091288 
L 314.647059 421.053254 
L 313.288235 420.946992 
L 313.288235 420.946992 
" style="fill:none;stroke:#44aa00;stroke-width:1.5;"/>
   </g>
   <g id="LineCollection_28">
    <path clip-path="url(#pee30b49b09)" d="M 313.288235 420.853152 
L 312.61409 420.670588 
L 311.929412 419.98591 
L 311.746848 419.311765 
L 311.625806 416.594118 
L 311.617974 390.776471 
L 311.650305 309.247059 
L 311.746848 307.888235 
L 311.929412 307.21409 
L 312.61409 306.529412 
L 313.288235 306.346848 
L 316.005882 306.225806 
L 341.823529 306.217974 
L 423.352941 306.250305 
L 424.711765 306.346848 
L 425.38591 306.529412 
L 426.070588 307.21409 
L 426.253152 307.888235 
L 426.374194 310.605882 
L 426.382026 336.423529 
L 426.349695 417.952941 
L 426.253152 419.311765 
L 426.070588 419.98591 
L 425.38591 420.670588 
L 424.711765 420.853152 
L 421.994118 420.974194 
L 396.176471 420.982026 
L 314.647059 420.949695 
L 313.288235 420.853152 
L 313.288235 420.853152 
" style="fill:none;stroke:#44aa00;stroke-width:1.5;"/>
   </g>
   <g id="LineCollection_29">
    <path clip-path="url(#pee30b49b09)" d="M 313.288235 420.777062 
L 312.875985 420.670588 
L 311.929412 419.724015 
L 311.822938 419.311765 
L 311.714047 416.594118 
L 311.70771 385.341176 
L 311.735225 309.247059 
L 311.929412 307.475985 
L 312.875985 306.529412 
L 313.288235 306.422938 
L 316.005882 306.314047 
L 347.258824 306.30771 
L 423.352941 306.335225 
L 425.124015 306.529412 
L 426.070588 307.475985 
L 426.177062 307.888235 
L 426.285953 310.605882 
L 426.29229 341.858824 
L 426.264775 417.952941 
L 426.070588 419.724015 
L 425.124015 420.670588 
L 424.711765 420.777062 
L 421.994118 420.885953 
L 390.741176 420.89229 
L 314.647059 420.864775 
L 313.288235 420.777062 
L 313.288235 420.777062 
" style="fill:none;stroke:#44aa00;stroke-width:1.5;"/>
   </g>
   <g id="LineCollection_30">
    <path clip-path="url(#pee30b49b09)" d="M 313.288235 420.715617 
L 313.105431 420.670588 
L 311.884383 419.311765 
L 311.786383 416.594118 
L 311.781251 378.547059 
L 311.884383 307.888235 
L 311.929412 307.705431 
L 313.288235 306.484383 
L 316.005882 306.386383 
L 354.052941 306.381251 
L 424.711765 306.484383 
L 424.894569 306.529412 
L 426.115617 307.888235 
L 426.213617 310.605882 
L 426.218749 348.652941 
L 426.115617 419.311765 
L 426.070588 419.494569 
L 424.711765 420.715617 
L 421.994118 420.813617 
L 383.947059 420.818749 
L 313.288235 420.715617 
L 313.288235 420.715617 
" style="fill:none;stroke:#44aa00;stroke-width:1.5;"/>
   </g>
   <g id="line2d_45">
    <path clip-path="url(#pee30b49b09)" d="M 314.647059 417.952941 
L 314.647059 309.247059 
L 423.352941 309.247059 
L 423.352941 417.952941 
L 314.647059 417.952941 
" style="fill:none;stroke:#ff0000;stroke-dasharray:11.1,4.8;stroke-dashoffset:0;stroke-width:3;"/>
   </g>
   <g id="patch_3">
    <path d="M 91.8 640.8 
L 91.8 86.4 
" style="fill:none;stroke:#000000;stroke-linecap:square;stroke-linejoin:miter;stroke-width:0.8;"/>
   </g>
   <g id="patch_4">
    <path d="M 646.2 640.8 
L 646.2 86.4 
" style="fill:none;stroke:#000000;stroke-linecap:square;stroke-linejoin:miter;stroke-width:0.8;"/>
   </g>
   <g id="patch_5">
    <path d="M 91.8 640.8 
L 646.2 640.8 
" style="fill:none;stroke:#000000;stroke-linecap:square;stroke-linejoin:miter;stroke-width:0.8;"/>
   </g>
   <g id="patch_6">
    <path d="M 91.8 86.4 
L 646.2 86.4 
" style="fill:none;stroke:#000000;stroke-linecap:square;stroke-linejoin:miter;stroke-width:0.8;"/>
   </g>
   <g id="text_23">
    <g clip-path="url(#pee30b49b09)">
     <!-- n=2 -->
     <defs>
      <path d="M 54.890625 33.015625 
L 54.890625 0 
L 45.90625 0 
L 45.90625 32.71875 
Q 45.90625 40.484375 42.875 44.328125 
Q 39.84375 48.1875 33.796875 48.1875 
Q 26.515625 48.1875 22.3125 43.546875 
Q 18.109375 38.921875 18.109375 30.90625 
L 18.109375 0 
L 9.078125 0 
L 9.078125 54.6875 
L 18.109375 54.6875 
L 18.109375 46.1875 
Q 21.34375 51.125 25.703125 53.5625 
Q 30.078125 56 35.796875 56 
Q 45.21875 56 50.046875 50.171875 
Q 54.890625 44.34375 54.890625 33.015625 
z
" id="DejaVuSans-110"/>
      <path d="M 10.59375 45.40625 
L 73.1875 45.40625 
L 73.1875 37.203125 
L 10.59375 37.203125 
z
M 10.59375 25.484375 
L 73.1875 25.484375 
L 73.1875 17.1875 
L 10.59375 17.1875 
z
" id="DejaVuSans-61"/>
     </defs>
     <g style="fill:#44aa00;" transform="translate(181.106045 173.696493)rotate(-39.983475)scale(0.2 -0.2)">
      <use xlink:href="#DejaVuSans-110"/>
      <use x="63.378906" xlink:href="#DejaVuSans-61"/>
      <use x="147.167969" xlink:href="#DejaVuSans-50"/>
     </g>
    </g>
   </g>
   <g id="text_24">
    <g clip-path="url(#pee30b49b09)">
     <!-- n=4 -->
     <g style="fill:#44aa00;" transform="translate(347.920313 247.587495)scale(0.2 -0.2)">
      <use xlink:href="#DejaVuSans-110"/>
      <use x="63.378906" xlink:href="#DejaVuSans-61"/>
      <use x="147.167969" xlink:href="#DejaVuSans-52"/>
     </g>
    </g>
   </g>
   <g id="text_25">
    <g clip-path="url(#pee30b49b09)">
     <!-- n=6 -->
     <defs>
      <path d="M 33.015625 40.375 
Q 26.375 40.375 22.484375 35.828125 
Q 18.609375 31.296875 18.609375 23.390625 
Q 18.609375 15.53125 22.484375 10.953125 
Q 26.375 6.390625 33.015625 6.390625 
Q 39.65625 6.390625 43.53125 10.953125 
Q 47.40625 15.53125 47.40625 23.390625 
Q 47.40625 31.296875 43.53125 35.828125 
Q 39.65625 40.375 33.015625 40.375 
z
M 52.59375 71.296875 
L 52.59375 62.3125 
Q 48.875 64.0625 45.09375 64.984375 
Q 41.3125 65.921875 37.59375 65.921875 
Q 27.828125 65.921875 22.671875 59.328125 
Q 17.53125 52.734375 16.796875 39.40625 
Q 19.671875 43.65625 24.015625 45.921875 
Q 28.375 48.1875 33.59375 48.1875 
Q 44.578125 48.1875 50.953125 41.515625 
Q 57.328125 34.859375 57.328125 23.390625 
Q 57.328125 12.15625 50.6875 5.359375 
Q 44.046875 -1.421875 33.015625 -1.421875 
Q 20.359375 -1.421875 13.671875 8.265625 
Q 6.984375 17.96875 6.984375 36.375 
Q 6.984375 53.65625 15.1875 63.9375 
Q 23.390625 74.21875 37.203125 74.21875 
Q 40.921875 74.21875 44.703125 73.484375 
Q 48.484375 72.75 52.59375 71.296875 
z
" id="DejaVuSans-54"/>
     </defs>
     <g style="fill:#44aa00;" transform="translate(467.447564 388.756561)rotate(-89.995815)scale(0.2 -0.2)">
      <use xlink:href="#DejaVuSans-110"/>
      <use x="63.378906" xlink:href="#DejaVuSans-61"/>
      <use x="147.167969" xlink:href="#DejaVuSans-54"/>
     </g>
    </g>
   </g>
   <g id="text_26">
    <!-- $x^n + y^n = 25$ -->
    <defs>
     <path d="M 60.015625 54.6875 
L 34.90625 27.875 
L 50.296875 0 
L 39.984375 0 
L 28.421875 21.6875 
L 8.296875 0 
L -2.59375 0 
L 24.3125 28.8125 
L 10.015625 54.6875 
L 20.3125 54.6875 
L 30.8125 34.90625 
L 49.125 54.6875 
z
" id="DejaVuSans-Oblique-120"/>
     <path d="M 55.71875 33.015625 
L 49.3125 0 
L 40.28125 0 
L 46.6875 32.671875 
Q 47.125 34.96875 47.359375 36.71875 
Q 47.609375 38.484375 47.609375 39.5 
Q 47.609375 43.609375 45.015625 45.890625 
Q 42.4375 48.1875 37.796875 48.1875 
Q 30.5625 48.1875 25.34375 43.375 
Q 20.125 38.578125 18.5 30.328125 
L 12.5 0 
L 3.515625 0 
L 14.109375 54.6875 
L 23.09375 54.6875 
L 21.296875 46.09375 
Q 25.046875 50.828125 30.3125 53.40625 
Q 35.59375 56 41.40625 56 
Q 48.640625 56 52.609375 52.09375 
Q 56.59375 48.1875 56.59375 41.109375 
Q 56.59375 39.359375 56.375 37.359375 
Q 56.15625 35.359375 55.71875 33.015625 
z
" id="DejaVuSans-Oblique-110"/>
     <path d="M 46 62.703125 
L 46 35.5 
L 73.1875 35.5 
L 73.1875 27.203125 
L 46 27.203125 
L 46 0 
L 37.796875 0 
L 37.796875 27.203125 
L 10.59375 27.203125 
L 10.59375 35.5 
L 37.796875 35.5 
L 37.796875 62.703125 
z
" id="DejaVuSans-43"/>
     <path d="M 24.8125 -5.078125 
Q 18.5625 -15.578125 14.625 -18.1875 
Q 10.6875 -20.796875 4.59375 -20.796875 
L -2.484375 -20.796875 
L -0.984375 -13.28125 
L 4.203125 -13.28125 
Q 7.953125 -13.28125 10.59375 -11.234375 
Q 13.234375 -9.1875 16.5 -3.21875 
L 19.28125 2 
L 7.171875 54.6875 
L 16.703125 54.6875 
L 25.78125 12.796875 
L 50.875 54.6875 
L 60.296875 54.6875 
z
" id="DejaVuSans-Oblique-121"/>
    </defs>
    <g transform="translate(279.75 80.1)scale(0.3 -0.3)">
     <use transform="translate(0 0.51875)" xlink:href="#DejaVuSans-Oblique-120"/>
     <use transform="translate(63.645833 38.8)scale(0.7)" xlink:href="#DejaVuSans-Oblique-110"/>
     <use transform="translate(130.227865 0.51875)" xlink:href="#DejaVuSans-43"/>
     <use transform="translate(233.499349 0.51875)" xlink:href="#DejaVuSans-Oblique-121"/>
     <use transform="translate(297.145182 38.8)scale(0.7)" xlink:href="#DejaVuSans-Oblique-110"/>
     <use transform="translate(363.727214 0.51875)" xlink:href="#DejaVuSans-61"/>
     <use transform="translate(466.998698 0.51875)" xlink:href="#DejaVuSans-50"/>
     <use transform="translate(530.621745 0.51875)" xlink:href="#DejaVuSans-53"/>
    </g>
   </g>
  </g>
 </g>
 <defs>
  <clipPath id="pee30b49b09">
   <rect height="554.4" width="554.4" x="91.8" y="86.4"/>
  </clipPath>
 </defs>
</svg>
