<?xml version="1.0" encoding="utf-8" standalone="no"?>
<!DOCTYPE svg PUBLIC "-//W3C//DTD SVG 1.1//EN"
  "http://www.w3.org/Graphics/SVG/1.1/DTD/svg11.dtd">
<!-- Created with matplotlib (https://matplotlib.org/) -->
<svg height="720pt" version="1.1" viewBox="0 0 720 720" width="720pt" xmlns="http://www.w3.org/2000/svg" xmlns:xlink="http://www.w3.org/1999/xlink">
 <defs>
  <style type="text/css">
*{stroke-linecap:butt;stroke-linejoin:round;}
  </style>
 </defs>
 <g id="figure_1">
  <g id="patch_1">
   <path d="M 0 720 
L 720 720 
L 720 0 
L 0 0 
z
" style="fill:#ffffff;"/>
  </g>
  <g id="axes_1">
   <g id="patch_2">
    <path d="M 91.8 640.8 
L 646.2 640.8 
L 646.2 86.4 
L 91.8 86.4 
z
" style="fill:#ffffff;"/>
   </g>
   <g id="matplotlib.axis_1">
    <g id="xtick_1">
     <g id="line2d_1">
      <path clip-path="url(#pe5a731416b)" d="M 117 640.8 
L 117 86.4 
" style="fill:none;stroke:#b0b0b0;stroke-linecap:square;stroke-width:0.8;"/>
     </g>
     <g id="line2d_2">
      <defs>
       <path d="M 0 0 
L 0 3.5 
" id="m80c9996a2e" style="stroke:#000000;stroke-width:0.8;"/>
      </defs>
      <g>
       <use style="stroke:#000000;stroke-width:0.8;" x="117" xlink:href="#m80c9996a2e" y="640.8"/>
      </g>
     </g>
     <g id="text_1">
      <!-- −1.00 -->
      <defs>
       <path d="M 10.59375 35.5 
L 73.1875 35.5 
L 73.1875 27.203125 
L 10.59375 27.203125 
z
" id="DejaVuSans-8722"/>
       <path d="M 12.40625 8.296875 
L 28.515625 8.296875 
L 28.515625 63.921875 
L 10.984375 60.40625 
L 10.984375 69.390625 
L 28.421875 72.90625 
L 38.28125 72.90625 
L 38.28125 8.296875 
L 54.390625 8.296875 
L 54.390625 0 
L 12.40625 0 
z
" id="DejaVuSans-49"/>
       <path d="M 10.6875 12.40625 
L 21 12.40625 
L 21 0 
L 10.6875 0 
z
" id="DejaVuSans-46"/>
       <path d="M 31.78125 66.40625 
Q 24.171875 66.40625 20.328125 58.90625 
Q 16.5 51.421875 16.5 36.375 
Q 16.5 21.390625 20.328125 13.890625 
Q 24.171875 6.390625 31.78125 6.390625 
Q 39.453125 6.390625 43.28125 13.890625 
Q 47.125 21.390625 47.125 36.375 
Q 47.125 51.421875 43.28125 58.90625 
Q 39.453125 66.40625 31.78125 66.40625 
z
M 31.78125 74.21875 
Q 44.046875 74.21875 50.515625 64.515625 
Q 56.984375 54.828125 56.984375 36.375 
Q 56.984375 17.96875 50.515625 8.265625 
Q 44.046875 -1.421875 31.78125 -1.421875 
Q 19.53125 -1.421875 13.0625 8.265625 
Q 6.59375 17.96875 6.59375 36.375 
Q 6.59375 54.828125 13.0625 64.515625 
Q 19.53125 74.21875 31.78125 74.21875 
z
" id="DejaVuSans-48"/>
      </defs>
      <g transform="translate(101.677344 655.398438)scale(0.1 -0.1)">
       <use xlink:href="#DejaVuSans-8722"/>
       <use x="83.789062" xlink:href="#DejaVuSans-49"/>
       <use x="147.412109" xlink:href="#DejaVuSans-46"/>
       <use x="179.199219" xlink:href="#DejaVuSans-48"/>
       <use x="242.822266" xlink:href="#DejaVuSans-48"/>
      </g>
     </g>
    </g>
    <g id="xtick_2">
     <g id="line2d_3">
      <path clip-path="url(#pe5a731416b)" d="M 180 640.8 
L 180 86.4 
" style="fill:none;stroke:#b0b0b0;stroke-linecap:square;stroke-width:0.8;"/>
     </g>
     <g id="line2d_4">
      <g>
       <use style="stroke:#000000;stroke-width:0.8;" x="180" xlink:href="#m80c9996a2e" y="640.8"/>
      </g>
     </g>
     <g id="text_2">
      <!-- −0.75 -->
      <defs>
       <path d="M 8.203125 72.90625 
L 55.078125 72.90625 
L 55.078125 68.703125 
L 28.609375 0 
L 18.3125 0 
L 43.21875 64.59375 
L 8.203125 64.59375 
z
" id="DejaVuSans-55"/>
       <path d="M 10.796875 72.90625 
L 49.515625 72.90625 
L 49.515625 64.59375 
L 19.828125 64.59375 
L 19.828125 46.734375 
Q 21.96875 47.46875 24.109375 47.828125 
Q 26.265625 48.1875 28.421875 48.1875 
Q 40.625 48.1875 47.75 41.5 
Q 54.890625 34.8125 54.890625 23.390625 
Q 54.890625 11.625 47.5625 5.09375 
Q 40.234375 -1.421875 26.90625 -1.421875 
Q 22.3125 -1.421875 17.546875 -0.640625 
Q 12.796875 0.140625 7.71875 1.703125 
L 7.71875 11.625 
Q 12.109375 9.234375 16.796875 8.0625 
Q 21.484375 6.890625 26.703125 6.890625 
Q 35.15625 6.890625 40.078125 11.328125 
Q 45.015625 15.765625 45.015625 23.390625 
Q 45.015625 31 40.078125 35.4375 
Q 35.15625 39.890625 26.703125 39.890625 
Q 22.75 39.890625 18.8125 39.015625 
Q 14.890625 38.140625 10.796875 36.28125 
z
" id="DejaVuSans-53"/>
      </defs>
      <g transform="translate(164.677344 655.398438)scale(0.1 -0.1)">
       <use xlink:href="#DejaVuSans-8722"/>
       <use x="83.789062" xlink:href="#DejaVuSans-48"/>
       <use x="147.412109" xlink:href="#DejaVuSans-46"/>
       <use x="179.199219" xlink:href="#DejaVuSans-55"/>
       <use x="242.822266" xlink:href="#DejaVuSans-53"/>
      </g>
     </g>
    </g>
    <g id="xtick_3">
     <g id="line2d_5">
      <path clip-path="url(#pe5a731416b)" d="M 243 640.8 
L 243 86.4 
" style="fill:none;stroke:#b0b0b0;stroke-linecap:square;stroke-width:0.8;"/>
     </g>
     <g id="line2d_6">
      <g>
       <use style="stroke:#000000;stroke-width:0.8;" x="243" xlink:href="#m80c9996a2e" y="640.8"/>
      </g>
     </g>
     <g id="text_3">
      <!-- −0.50 -->
      <g transform="translate(227.677344 655.398438)scale(0.1 -0.1)">
       <use xlink:href="#DejaVuSans-8722"/>
       <use x="83.789062" xlink:href="#DejaVuSans-48"/>
       <use x="147.412109" xlink:href="#DejaVuSans-46"/>
       <use x="179.199219" xlink:href="#DejaVuSans-53"/>
       <use x="242.822266" xlink:href="#DejaVuSans-48"/>
      </g>
     </g>
    </g>
    <g id="xtick_4">
     <g id="line2d_7">
      <path clip-path="url(#pe5a731416b)" d="M 306 640.8 
L 306 86.4 
" style="fill:none;stroke:#b0b0b0;stroke-linecap:square;stroke-width:0.8;"/>
     </g>
     <g id="line2d_8">
      <g>
       <use style="stroke:#000000;stroke-width:0.8;" x="306" xlink:href="#m80c9996a2e" y="640.8"/>
      </g>
     </g>
     <g id="text_4">
      <!-- −0.25 -->
      <defs>
       <path d="M 19.1875 8.296875 
L 53.609375 8.296875 
L 53.609375 0 
L 7.328125 0 
L 7.328125 8.296875 
Q 12.9375 14.109375 22.625 23.890625 
Q 32.328125 33.6875 34.8125 36.53125 
Q 39.546875 41.84375 41.421875 45.53125 
Q 43.3125 49.21875 43.3125 52.78125 
Q 43.3125 58.59375 39.234375 62.25 
Q 35.15625 65.921875 28.609375 65.921875 
Q 23.96875 65.921875 18.8125 64.3125 
Q 13.671875 62.703125 7.8125 59.421875 
L 7.8125 69.390625 
Q 13.765625 71.78125 18.9375 73 
Q 24.125 74.21875 28.421875 74.21875 
Q 39.75 74.21875 46.484375 68.546875 
Q 53.21875 62.890625 53.21875 53.421875 
Q 53.21875 48.921875 51.53125 44.890625 
Q 49.859375 40.875 45.40625 35.40625 
Q 44.1875 33.984375 37.640625 27.21875 
Q 31.109375 20.453125 19.1875 8.296875 
z
" id="DejaVuSans-50"/>
      </defs>
      <g transform="translate(290.677344 655.398438)scale(0.1 -0.1)">
       <use xlink:href="#DejaVuSans-8722"/>
       <use x="83.789062" xlink:href="#DejaVuSans-48"/>
       <use x="147.412109" xlink:href="#DejaVuSans-46"/>
       <use x="179.199219" xlink:href="#DejaVuSans-50"/>
       <use x="242.822266" xlink:href="#DejaVuSans-53"/>
      </g>
     </g>
    </g>
    <g id="xtick_5">
     <g id="line2d_9">
      <path clip-path="url(#pe5a731416b)" d="M 369 640.8 
L 369 86.4 
" style="fill:none;stroke:#b0b0b0;stroke-linecap:square;stroke-width:0.8;"/>
     </g>
     <g id="line2d_10">
      <g>
       <use style="stroke:#000000;stroke-width:0.8;" x="369" xlink:href="#m80c9996a2e" y="640.8"/>
      </g>
     </g>
     <g id="text_5">
      <!-- 0.00 -->
      <g transform="translate(357.867188 655.398438)scale(0.1 -0.1)">
       <use xlink:href="#DejaVuSans-48"/>
       <use x="63.623047" xlink:href="#DejaVuSans-46"/>
       <use x="95.410156" xlink:href="#DejaVuSans-48"/>
       <use x="159.033203" xlink:href="#DejaVuSans-48"/>
      </g>
     </g>
    </g>
    <g id="xtick_6">
     <g id="line2d_11">
      <path clip-path="url(#pe5a731416b)" d="M 432 640.8 
L 432 86.4 
" style="fill:none;stroke:#b0b0b0;stroke-linecap:square;stroke-width:0.8;"/>
     </g>
     <g id="line2d_12">
      <g>
       <use style="stroke:#000000;stroke-width:0.8;" x="432" xlink:href="#m80c9996a2e" y="640.8"/>
      </g>
     </g>
     <g id="text_6">
      <!-- 0.25 -->
      <g transform="translate(420.867188 655.398438)scale(0.1 -0.1)">
       <use xlink:href="#DejaVuSans-48"/>
       <use x="63.623047" xlink:href="#DejaVuSans-46"/>
       <use x="95.410156" xlink:href="#DejaVuSans-50"/>
       <use x="159.033203" xlink:href="#DejaVuSans-53"/>
      </g>
     </g>
    </g>
    <g id="xtick_7">
     <g id="line2d_13">
      <path clip-path="url(#pe5a731416b)" d="M 495 640.8 
L 495 86.4 
" style="fill:none;stroke:#b0b0b0;stroke-linecap:square;stroke-width:0.8;"/>
     </g>
     <g id="line2d_14">
      <g>
       <use style="stroke:#000000;stroke-width:0.8;" x="495" xlink:href="#m80c9996a2e" y="640.8"/>
      </g>
     </g>
     <g id="text_7">
      <!-- 0.50 -->
      <g transform="translate(483.867188 655.398438)scale(0.1 -0.1)">
       <use xlink:href="#DejaVuSans-48"/>
       <use x="63.623047" xlink:href="#DejaVuSans-46"/>
       <use x="95.410156" xlink:href="#DejaVuSans-53"/>
       <use x="159.033203" xlink:href="#DejaVuSans-48"/>
      </g>
     </g>
    </g>
    <g id="xtick_8">
     <g id="line2d_15">
      <path clip-path="url(#pe5a731416b)" d="M 558 640.8 
L 558 86.4 
" style="fill:none;stroke:#b0b0b0;stroke-linecap:square;stroke-width:0.8;"/>
     </g>
     <g id="line2d_16">
      <g>
       <use style="stroke:#000000;stroke-width:0.8;" x="558" xlink:href="#m80c9996a2e" y="640.8"/>
      </g>
     </g>
     <g id="text_8">
      <!-- 0.75 -->
      <g transform="translate(546.867188 655.398438)scale(0.1 -0.1)">
       <use xlink:href="#DejaVuSans-48"/>
       <use x="63.623047" xlink:href="#DejaVuSans-46"/>
       <use x="95.410156" xlink:href="#DejaVuSans-55"/>
       <use x="159.033203" xlink:href="#DejaVuSans-53"/>
      </g>
     </g>
    </g>
    <g id="xtick_9">
     <g id="line2d_17">
      <path clip-path="url(#pe5a731416b)" d="M 621 640.8 
L 621 86.4 
" style="fill:none;stroke:#b0b0b0;stroke-linecap:square;stroke-width:0.8;"/>
     </g>
     <g id="line2d_18">
      <g>
       <use style="stroke:#000000;stroke-width:0.8;" x="621" xlink:href="#m80c9996a2e" y="640.8"/>
      </g>
     </g>
     <g id="text_9">
      <!-- 1.00 -->
      <g transform="translate(609.867188 655.398438)scale(0.1 -0.1)">
       <use xlink:href="#DejaVuSans-49"/>
       <use x="63.623047" xlink:href="#DejaVuSans-46"/>
       <use x="95.410156" xlink:href="#DejaVuSans-48"/>
       <use x="159.033203" xlink:href="#DejaVuSans-48"/>
      </g>
     </g>
    </g>
   </g>
   <g id="matplotlib.axis_2">
    <g id="ytick_1">
     <g id="line2d_19">
      <path clip-path="url(#pe5a731416b)" d="M 91.8 615.6 
L 646.2 615.6 
" style="fill:none;stroke:#b0b0b0;stroke-linecap:square;stroke-width:0.8;"/>
     </g>
     <g id="line2d_20">
      <defs>
       <path d="M 0 0 
L -3.5 0 
" id="mad6e1969f6" style="stroke:#000000;stroke-width:0.8;"/>
      </defs>
      <g>
       <use style="stroke:#000000;stroke-width:0.8;" x="91.8" xlink:href="#mad6e1969f6" y="615.6"/>
      </g>
     </g>
     <g id="text_10">
      <!-- −1.00 -->
      <g transform="translate(54.154687 619.399219)scale(0.1 -0.1)">
       <use xlink:href="#DejaVuSans-8722"/>
       <use x="83.789062" xlink:href="#DejaVuSans-49"/>
       <use x="147.412109" xlink:href="#DejaVuSans-46"/>
       <use x="179.199219" xlink:href="#DejaVuSans-48"/>
       <use x="242.822266" xlink:href="#DejaVuSans-48"/>
      </g>
     </g>
    </g>
    <g id="ytick_2">
     <g id="line2d_21">
      <path clip-path="url(#pe5a731416b)" d="M 91.8 552.6 
L 646.2 552.6 
" style="fill:none;stroke:#b0b0b0;stroke-linecap:square;stroke-width:0.8;"/>
     </g>
     <g id="line2d_22">
      <g>
       <use style="stroke:#000000;stroke-width:0.8;" x="91.8" xlink:href="#mad6e1969f6" y="552.6"/>
      </g>
     </g>
     <g id="text_11">
      <!-- −0.75 -->
      <g transform="translate(54.154687 556.399219)scale(0.1 -0.1)">
       <use xlink:href="#DejaVuSans-8722"/>
       <use x="83.789062" xlink:href="#DejaVuSans-48"/>
       <use x="147.412109" xlink:href="#DejaVuSans-46"/>
       <use x="179.199219" xlink:href="#DejaVuSans-55"/>
       <use x="242.822266" xlink:href="#DejaVuSans-53"/>
      </g>
     </g>
    </g>
    <g id="ytick_3">
     <g id="line2d_23">
      <path clip-path="url(#pe5a731416b)" d="M 91.8 489.6 
L 646.2 489.6 
" style="fill:none;stroke:#b0b0b0;stroke-linecap:square;stroke-width:0.8;"/>
     </g>
     <g id="line2d_24">
      <g>
       <use style="stroke:#000000;stroke-width:0.8;" x="91.8" xlink:href="#mad6e1969f6" y="489.6"/>
      </g>
     </g>
     <g id="text_12">
      <!-- −0.50 -->
      <g transform="translate(54.154687 493.399219)scale(0.1 -0.1)">
       <use xlink:href="#DejaVuSans-8722"/>
       <use x="83.789062" xlink:href="#DejaVuSans-48"/>
       <use x="147.412109" xlink:href="#DejaVuSans-46"/>
       <use x="179.199219" xlink:href="#DejaVuSans-53"/>
       <use x="242.822266" xlink:href="#DejaVuSans-48"/>
      </g>
     </g>
    </g>
    <g id="ytick_4">
     <g id="line2d_25">
      <path clip-path="url(#pe5a731416b)" d="M 91.8 426.6 
L 646.2 426.6 
" style="fill:none;stroke:#b0b0b0;stroke-linecap:square;stroke-width:0.8;"/>
     </g>
     <g id="line2d_26">
      <g>
       <use style="stroke:#000000;stroke-width:0.8;" x="91.8" xlink:href="#mad6e1969f6" y="426.6"/>
      </g>
     </g>
     <g id="text_13">
      <!-- −0.25 -->
      <g transform="translate(54.154687 430.399219)scale(0.1 -0.1)">
       <use xlink:href="#DejaVuSans-8722"/>
       <use x="83.789062" xlink:href="#DejaVuSans-48"/>
       <use x="147.412109" xlink:href="#DejaVuSans-46"/>
       <use x="179.199219" xlink:href="#DejaVuSans-50"/>
       <use x="242.822266" xlink:href="#DejaVuSans-53"/>
      </g>
     </g>
    </g>
    <g id="ytick_5">
     <g id="line2d_27">
      <path clip-path="url(#pe5a731416b)" d="M 91.8 363.6 
L 646.2 363.6 
" style="fill:none;stroke:#b0b0b0;stroke-linecap:square;stroke-width:0.8;"/>
     </g>
     <g id="line2d_28">
      <g>
       <use style="stroke:#000000;stroke-width:0.8;" x="91.8" xlink:href="#mad6e1969f6" y="363.6"/>
      </g>
     </g>
     <g id="text_14">
      <!-- 0.00 -->
      <g transform="translate(62.534375 367.399219)scale(0.1 -0.1)">
       <use xlink:href="#DejaVuSans-48"/>
       <use x="63.623047" xlink:href="#DejaVuSans-46"/>
       <use x="95.410156" xlink:href="#DejaVuSans-48"/>
       <use x="159.033203" xlink:href="#DejaVuSans-48"/>
      </g>
     </g>
    </g>
    <g id="ytick_6">
     <g id="line2d_29">
      <path clip-path="url(#pe5a731416b)" d="M 91.8 300.6 
L 646.2 300.6 
" style="fill:none;stroke:#b0b0b0;stroke-linecap:square;stroke-width:0.8;"/>
     </g>
     <g id="line2d_30">
      <g>
       <use style="stroke:#000000;stroke-width:0.8;" x="91.8" xlink:href="#mad6e1969f6" y="300.6"/>
      </g>
     </g>
     <g id="text_15">
      <!-- 0.25 -->
      <g transform="translate(62.534375 304.399219)scale(0.1 -0.1)">
       <use xlink:href="#DejaVuSans-48"/>
       <use x="63.623047" xlink:href="#DejaVuSans-46"/>
       <use x="95.410156" xlink:href="#DejaVuSans-50"/>
       <use x="159.033203" xlink:href="#DejaVuSans-53"/>
      </g>
     </g>
    </g>
    <g id="ytick_7">
     <g id="line2d_31">
      <path clip-path="url(#pe5a731416b)" d="M 91.8 237.6 
L 646.2 237.6 
" style="fill:none;stroke:#b0b0b0;stroke-linecap:square;stroke-width:0.8;"/>
     </g>
     <g id="line2d_32">
      <g>
       <use style="stroke:#000000;stroke-width:0.8;" x="91.8" xlink:href="#mad6e1969f6" y="237.6"/>
      </g>
     </g>
     <g id="text_16">
      <!-- 0.50 -->
      <g transform="translate(62.534375 241.399219)scale(0.1 -0.1)">
       <use xlink:href="#DejaVuSans-48"/>
       <use x="63.623047" xlink:href="#DejaVuSans-46"/>
       <use x="95.410156" xlink:href="#DejaVuSans-53"/>
       <use x="159.033203" xlink:href="#DejaVuSans-48"/>
      </g>
     </g>
    </g>
    <g id="ytick_8">
     <g id="line2d_33">
      <path clip-path="url(#pe5a731416b)" d="M 91.8 174.6 
L 646.2 174.6 
" style="fill:none;stroke:#b0b0b0;stroke-linecap:square;stroke-width:0.8;"/>
     </g>
     <g id="line2d_34">
      <g>
       <use style="stroke:#000000;stroke-width:0.8;" x="91.8" xlink:href="#mad6e1969f6" y="174.6"/>
      </g>
     </g>
     <g id="text_17">
      <!-- 0.75 -->
      <g transform="translate(62.534375 178.399219)scale(0.1 -0.1)">
       <use xlink:href="#DejaVuSans-48"/>
       <use x="63.623047" xlink:href="#DejaVuSans-46"/>
       <use x="95.410156" xlink:href="#DejaVuSans-55"/>
       <use x="159.033203" xlink:href="#DejaVuSans-53"/>
      </g>
     </g>
    </g>
    <g id="ytick_9">
     <g id="line2d_35">
      <path clip-path="url(#pe5a731416b)" d="M 91.8 111.6 
L 646.2 111.6 
" style="fill:none;stroke:#b0b0b0;stroke-linecap:square;stroke-width:0.8;"/>
     </g>
     <g id="line2d_36">
      <g>
       <use style="stroke:#000000;stroke-width:0.8;" x="91.8" xlink:href="#mad6e1969f6" y="111.6"/>
      </g>
     </g>
     <g id="text_18">
      <!-- 1.00 -->
      <g transform="translate(62.534375 115.399219)scale(0.1 -0.1)">
       <use xlink:href="#DejaVuSans-49"/>
       <use x="63.623047" xlink:href="#DejaVuSans-46"/>
       <use x="95.410156" xlink:href="#DejaVuSans-48"/>
       <use x="159.033203" xlink:href="#DejaVuSans-48"/>
      </g>
     </g>
    </g>
   </g>
   <g id="LineCollection_1">
    <path clip-path="url(#pe5a731416b)" d="M 356.4 385.2 
L 352.62 382.5 
L 350.1 379.98 
L 347.4 376.2 
L 344.7 369.9 
L 343.8 363.6 
L 344.7 357.3 
L 347.4 351 
L 350.1 347.22 
L 352.62 344.7 
L 356.4 342 
L 362.7 339.3 
L 369 338.4 
L 369 338.4 
L 369 338.4 
L 375.3 339.3 
L 381.6 342 
L 385.38 344.7 
L 387.9 347.22 
L 390.6 351 
L 393.3 357.3 
L 394.2 363.6 
L 394.2 363.6 
L 394.2 363.6 
L 393.3 369.9 
L 390.6 376.2 
L 387.9 379.98 
L 385.38 382.5 
L 381.6 385.2 
L 375.3 387.9 
L 369 388.8 
L 362.7 387.9 
L 356.4 385.2 
" style="fill:none;stroke:#44aa00;stroke-width:1.5;"/>
   </g>
   <g id="LineCollection_2">
    <path clip-path="url(#pe5a731416b)" d="M 296.158331 305.120144 
L 298.708745 300.6 
L 299.7 299.29819 
L 304.69819 294.3 
L 306 293.308745 
L 312.3 289.754077 
L 316.63716 288 
L 318.6 287.381674 
L 324.9 286.01701 
L 331.2 285.127361 
L 337.5 284.587131 
L 343.8 284.290045 
L 350.1 284.14915 
L 356.4 284.096818 
L 362.7 284.084741 
L 369 284.083936 
L 375.3 284.084741 
L 381.6 284.096818 
L 387.9 284.14915 
L 394.2 284.290045 
L 400.5 284.587131 
L 406.8 285.127361 
L 413.1 286.01701 
L 419.4 287.381674 
L 421.36284 288 
L 425.7 289.754077 
L 432 293.308745 
L 433.30181 294.3 
L 438.3 299.29819 
L 439.291255 300.6 
L 442.845923 306.9 
L 444.6 311.23716 
L 445.218326 313.2 
L 446.58299 319.5 
L 447.472639 325.8 
L 448.012869 332.1 
L 448.309955 338.4 
L 448.45085 344.7 
L 448.503182 351 
L 448.515259 357.3 
L 448.516064 363.6 
L 448.515259 369.9 
L 448.503182 376.2 
L 448.45085 382.5 
L 448.309955 388.8 
L 448.012869 395.1 
L 447.472639 401.4 
L 446.58299 407.7 
L 445.218326 414 
L 444.6 415.96284 
L 442.845923 420.3 
L 439.291255 426.6 
L 438.3 427.90181 
L 433.30181 432.9 
L 432 433.891255 
L 425.7 437.445923 
L 421.36284 439.2 
L 419.4 439.818326 
L 413.1 441.18299 
L 406.8 442.072639 
L 400.5 442.612869 
L 394.2 442.909955 
L 387.9 443.05085 
L 381.6 443.103182 
L 375.3 443.115259 
L 369 443.116064 
L 362.7 443.115259 
L 356.4 443.103182 
L 350.1 443.05085 
L 343.8 442.909955 
L 337.5 442.612869 
L 331.2 442.072639 
L 324.9 441.18299 
L 318.6 439.818326 
L 316.63716 439.2 
L 312.3 437.445923 
L 306 433.891255 
L 304.69819 432.9 
L 299.7 427.90181 
L 298.708745 426.6 
L 295.154077 420.3 
L 293.4 415.96284 
L 292.781674 414 
L 291.41701 407.7 
L 290.527361 401.4 
L 289.987131 395.1 
L 289.690045 388.8 
L 289.54915 382.5 
L 289.496818 376.2 
L 289.484741 369.9 
L 289.483936 363.6 
L 289.484741 357.3 
L 289.496818 351 
L 289.52699 347.367798 
" style="fill:none;stroke:#44aa00;stroke-width:1.5;"/>
   </g>
   <g id="LineCollection_3">
    <path clip-path="url(#pe5a731416b)" d="M 252.246064 335.700001 
L 252.368406 313.2 
L 252.725059 300.6 
L 253.098004 294.3 
L 253.685013 288 
L 254.574801 281.7 
L 255.971161 275.4 
L 258.434524 269.1 
L 261.9 262.761299 
L 268.2 256.471153 
L 274.5 253.034524 
L 280.8 250.571161 
L 282.15607 250.2 
L 287.1 249.174801 
L 293.4 248.285013 
L 299.7 247.698004 
L 306 247.325059 
L 318.6 246.968406 
L 337.5 246.849248 
L 406.8 246.864247 
L 419.4 246.968406 
L 432 247.325059 
L 438.3 247.698004 
L 444.6 248.285013 
L 450.9 249.174801 
L 457.2 250.571161 
L 463.5 253.034524 
L 469.838701 256.5 
L 476.128847 262.8 
L 479.565476 269.1 
L 482.028839 275.4 
L 482.4 276.75607 
L 483.425199 281.7 
L 484.314987 288 
L 484.901996 294.3 
L 485.274941 300.6 
L 485.631594 313.2 
L 485.750752 332.1 
L 485.735753 401.4 
L 485.631594 414 
L 485.274941 426.6 
L 484.901996 432.9 
L 484.314987 439.2 
L 483.425199 445.5 
L 482.028839 451.8 
L 479.565476 458.1 
L 476.1 464.438701 
L 469.8 470.728847 
L 463.5 474.165476 
L 457.2 476.628839 
L 455.84393 477 
L 450.9 478.025199 
L 444.6 478.914987 
L 438.3 479.501996 
L 432 479.874941 
L 419.4 480.231594 
L 400.5 480.350752 
L 331.2 480.335753 
L 318.6 480.231594 
L 306 479.874941 
L 299.7 479.501996 
L 293.4 478.914987 
L 287.1 478.025199 
L 280.8 476.628839 
L 274.5 474.165476 
L 268.161299 470.7 
L 261.871153 464.4 
L 258.434524 458.1 
L 255.971161 451.8 
L 255.6 450.44393 
L 254.574801 445.5 
L 253.685013 439.2 
L 253.098004 432.9 
L 252.725059 426.6 
L 252.368406 414 
L 252.249248 395.1 
L 252.241864 378.9 
L 252.241864 378.9 
" style="fill:none;stroke:#44aa00;stroke-width:1.5;"/>
   </g>
   <g id="LineCollection_4">
    <path clip-path="url(#pe5a731416b)" d="M 261.9 503.190459 
L 255.6 502.067064 
L 249.3 499.863894 
L 243 496.680671 
L 241.910829 495.9 
L 236.7 490.689171 
L 235.919329 489.6 
L 232.736106 483.3 
L 230.4 476.439456 
L 229.409541 470.7 
L 228.688871 464.4 
L 228.223241 458.1 
L 227.930999 451.8 
L 227.649857 439.2 
L 227.545838 420.3 
L 227.535816 319.5 
L 227.649857 288 
L 227.930999 275.4 
L 228.223241 269.1 
L 228.688871 262.8 
L 229.409541 256.5 
L 230.532936 250.2 
L 232.736106 243.9 
L 235.919329 237.6 
L 236.7 236.510829 
L 241.910829 231.3 
L 243 230.519329 
L 249.3 227.336106 
L 256.160544 225 
L 261.9 224.009541 
L 268.2 223.288871 
L 274.5 222.823241 
L 280.8 222.530999 
L 293.4 222.249857 
L 312.3 222.145838 
L 413.1 222.135816 
L 444.6 222.249857 
L 457.2 222.530999 
L 463.5 222.823241 
L 469.8 223.288871 
L 476.1 224.009541 
L 482.4 225.132936 
L 488.7 227.336106 
L 495 230.519329 
L 496.089171 231.3 
L 501.3 236.510829 
L 502.080671 237.6 
L 505.263894 243.9 
L 507.6 250.760544 
L 508.590459 256.5 
L 509.311129 262.8 
L 509.776759 269.1 
L 510.069001 275.4 
L 510.350143 288 
L 510.454162 306.9 
L 510.464184 407.7 
L 510.350143 439.2 
L 510.069001 451.8 
L 509.776759 458.1 
L 509.311129 464.4 
L 508.590459 470.7 
L 507.467064 477 
L 505.263894 483.3 
L 502.080671 489.6 
L 501.3 490.689171 
L 496.089171 495.9 
L 495 496.680671 
L 488.7 499.863894 
L 481.839456 502.2 
L 476.1 503.190459 
L 469.8 503.911129 
L 463.5 504.376759 
L 457.2 504.669001 
L 444.6 504.950143 
L 425.7 505.054162 
L 324.9 505.064184 
L 293.4 504.950143 
L 280.8 504.669001 
L 274.5 504.376759 
L 268.2 503.911129 
L 261.9 503.190459 
L 261.9 503.190459 
" style="fill:none;stroke:#44aa00;stroke-width:1.5;"/>
   </g>
   <g id="LineCollection_5">
    <path clip-path="url(#pe5a731416b)" d="M 249.3 521.562063 
L 243 520.952211 
L 236.7 519.682933 
L 230.4 517.735612 
L 224.092057 514.8 
L 217.794539 508.5 
L 214.864388 502.2 
L 212.917067 495.9 
L 211.5 488.450325 
L 211.037937 483.3 
L 210.685712 477 
L 210.345818 464.4 
L 210.213537 445.5 
L 210.194574 369.9 
L 210.273896 269.1 
L 210.471885 256.5 
L 210.685712 250.2 
L 211.037937 243.9 
L 211.647789 237.6 
L 212.917067 231.3 
L 214.864388 225 
L 217.8 218.692057 
L 224.1 212.394539 
L 230.4 209.464388 
L 236.7 207.517067 
L 244.149675 206.1 
L 249.3 205.637937 
L 255.6 205.285712 
L 268.2 204.945818 
L 287.1 204.813537 
L 362.7 204.794574 
L 463.5 204.873896 
L 476.1 205.071885 
L 482.4 205.285712 
L 488.7 205.637937 
L 495 206.247789 
L 501.3 207.517067 
L 507.6 209.464388 
L 513.907943 212.4 
L 520.205461 218.7 
L 523.135612 225 
L 525.082933 231.3 
L 526.5 238.749675 
L 526.962063 243.9 
L 527.314288 250.2 
L 527.654182 262.8 
L 527.786463 281.7 
L 527.805426 357.3 
L 527.726104 458.1 
L 527.528115 470.7 
L 527.314288 477 
L 526.962063 483.3 
L 526.352211 489.6 
L 525.082933 495.9 
L 523.135612 502.2 
L 520.2 508.507943 
L 513.9 514.805461 
L 507.6 517.735612 
L 501.3 519.682933 
L 493.850325 521.1 
L 488.7 521.562063 
L 482.4 521.914288 
L 469.8 522.254182 
L 450.9 522.386463 
L 375.3 522.405426 
L 274.5 522.326104 
L 261.9 522.128115 
L 255.6 521.914288 
L 249.3 521.562063 
L 249.3 521.562063 
" style="fill:none;stroke:#44aa00;stroke-width:1.5;"/>
   </g>
   <g id="LineCollection_6">
    <path clip-path="url(#pe5a731416b)" d="M 230.4 534.069953 
L 227.046451 533.7 
L 224.1 533.211691 
L 217.8 531.52844 
L 211.5 528.868068 
L 209.25982 527.4 
L 205.2 523.34018 
L 203.731932 521.1 
L 201.07156 514.8 
L 199.388309 508.5 
L 198.9 505.553549 
L 198.530047 502.2 
L 198.108185 495.9 
L 197.713685 483.3 
L 197.565486 464.4 
L 197.543893 395.1 
L 197.632638 250.2 
L 197.858112 237.6 
L 198.108185 231.3 
L 198.530047 225 
L 198.9 221.646451 
L 199.388309 218.7 
L 201.07156 212.4 
L 203.731932 206.1 
L 205.2 203.85982 
L 209.25982 199.8 
L 211.5 198.331932 
L 217.8 195.67156 
L 224.1 193.988309 
L 227.046451 193.5 
L 230.4 193.130047 
L 236.7 192.708185 
L 249.3 192.313685 
L 268.2 192.165486 
L 337.5 192.143893 
L 482.4 192.232638 
L 495 192.458112 
L 501.3 192.708185 
L 507.6 193.130047 
L 510.953549 193.5 
L 513.9 193.988309 
L 520.2 195.67156 
L 526.5 198.331932 
L 528.74018 199.8 
L 532.8 203.85982 
L 534.268068 206.1 
L 536.92844 212.4 
L 538.611691 218.7 
L 539.1 221.646451 
L 539.469953 225 
L 539.891815 231.3 
L 540.286315 243.9 
L 540.434514 262.8 
L 540.456107 332.1 
L 540.367362 477 
L 540.141888 489.6 
L 539.891815 495.9 
L 539.469953 502.2 
L 539.1 505.553549 
L 538.611691 508.5 
L 536.92844 514.8 
L 534.268068 521.1 
L 532.8 523.34018 
L 528.74018 527.4 
L 526.5 528.868068 
L 520.2 531.52844 
L 513.9 533.211691 
L 510.953549 533.7 
L 507.6 534.069953 
L 501.3 534.491815 
L 488.7 534.886315 
L 469.8 535.034514 
L 400.5 535.056107 
L 255.6 534.967362 
L 243 534.741888 
L 236.7 534.491815 
L 230.4 534.069953 
L 230.4 534.069953 
" style="fill:none;stroke:#44aa00;stroke-width:1.5;"/>
   </g>
   <g id="LineCollection_7">
    <path clip-path="url(#pe5a731416b)" d="M 205.2 541.19272 
L 202.132507 540 
L 198.9 538.001536 
L 194.598464 533.7 
L 192.6 530.467493 
L 191.40728 527.4 
L 189.920519 521.1 
L 189.035939 514.8 
L 188.520869 508.5 
L 188.227902 502.2 
L 187.977895 489.6 
L 187.892458 464.4 
L 187.908972 250.2 
L 188.06547 231.3 
L 188.227902 225 
L 188.520869 218.7 
L 189.035939 212.4 
L 189.920519 206.1 
L 191.40728 199.8 
L 192.6 196.732507 
L 194.598464 193.5 
L 198.9 189.198464 
L 202.132507 187.2 
L 205.2 186.00728 
L 211.5 184.520519 
L 217.8 183.635939 
L 224.1 183.120869 
L 230.4 182.827902 
L 243 182.577895 
L 268.2 182.492458 
L 482.4 182.508972 
L 501.3 182.66547 
L 507.6 182.827902 
L 513.9 183.120869 
L 520.2 183.635939 
L 526.5 184.520519 
L 532.8 186.00728 
L 535.867493 187.2 
L 539.1 189.198464 
L 543.401536 193.5 
L 545.4 196.732507 
L 546.59272 199.8 
L 548.079481 206.1 
L 548.964061 212.4 
L 549.479131 218.7 
L 549.772098 225 
L 550.022105 237.6 
L 550.107542 262.8 
L 550.091028 477 
L 549.93453 495.9 
L 549.772098 502.2 
L 549.479131 508.5 
L 548.964061 514.8 
L 548.079481 521.1 
L 546.59272 527.4 
L 545.4 530.467493 
L 543.401536 533.7 
L 539.1 538.001536 
L 535.867493 540 
L 532.8 541.19272 
L 526.5 542.679481 
L 520.2 543.564061 
L 513.9 544.079131 
L 507.6 544.372098 
L 495 544.622105 
L 469.8 544.707542 
L 255.6 544.691028 
L 236.7 544.53453 
L 230.4 544.372098 
L 224.1 544.079131 
L 217.8 543.564061 
L 211.5 542.679481 
L 205.2 541.19272 
L 205.2 541.19272 
" style="fill:none;stroke:#44aa00;stroke-width:1.5;"/>
   </g>
   <g id="LineCollection_8">
    <path clip-path="url(#pe5a731416b)" d="M 192.6 547.576491 
L 190.460239 546.3 
L 186.3 542.139761 
L 185.023509 540 
L 182.822331 533.7 
L 181.558362 527.4 
L 180.847834 521.1 
L 180.457486 514.8 
L 180.139194 502.2 
L 180.044008 483.3 
L 180.033925 357.3 
L 180.139194 225 
L 180.457486 212.4 
L 180.847834 206.1 
L 181.558362 199.8 
L 182.822331 193.5 
L 185.023509 187.2 
L 186.3 185.060239 
L 190.460239 180.9 
L 192.6 179.623509 
L 198.9 177.422331 
L 205.2 176.158362 
L 211.5 175.447834 
L 217.8 175.057486 
L 230.4 174.739194 
L 249.3 174.644008 
L 375.3 174.633925 
L 507.6 174.739194 
L 520.2 175.057486 
L 526.5 175.447834 
L 532.8 176.158362 
L 539.1 177.422331 
L 545.4 179.623509 
L 547.539761 180.9 
L 551.7 185.060239 
L 552.976491 187.2 
L 555.177669 193.5 
L 556.441638 199.8 
L 557.152166 206.1 
L 557.542514 212.4 
L 557.860806 225 
L 557.955992 243.9 
L 557.966075 369.9 
L 557.860806 502.2 
L 557.542514 514.8 
L 557.152166 521.1 
L 556.441638 527.4 
L 555.177669 533.7 
L 552.976491 540 
L 551.7 542.139761 
L 547.539761 546.3 
L 545.4 547.576491 
L 539.1 549.777669 
L 532.8 551.041638 
L 526.5 551.752166 
L 520.2 552.142514 
L 507.6 552.460806 
L 488.7 552.555992 
L 362.7 552.566075 
L 230.4 552.460806 
L 217.8 552.142514 
L 211.5 551.752166 
L 205.2 551.041638 
L 198.9 549.777669 
L 192.6 547.576491 
L 192.6 547.576491 
" style="fill:none;stroke:#44aa00;stroke-width:1.5;"/>
   </g>
   <g id="LineCollection_9">
    <path clip-path="url(#pe5a731416b)" d="M 186.3 554.405639 
L 183.12026 552.6 
L 180 549.47974 
L 178.194361 546.3 
L 176.201994 540 
L 175.115299 533.7 
L 174.5357 527.4 
L 174.233922 521.1 
L 174.005324 508.5 
L 173.941845 483.3 
L 173.969204 225 
L 174.08083 212.4 
L 174.233922 206.1 
L 174.5357 199.8 
L 175.115299 193.5 
L 176.201994 187.2 
L 178.194361 180.9 
L 180 177.72026 
L 183.12026 174.6 
L 186.3 172.794361 
L 192.6 170.801994 
L 198.9 169.715299 
L 205.2 169.1357 
L 211.5 168.833922 
L 224.1 168.605324 
L 249.3 168.541845 
L 507.6 168.569204 
L 520.2 168.68083 
L 526.5 168.833922 
L 532.8 169.1357 
L 539.1 169.715299 
L 545.4 170.801994 
L 551.7 172.794361 
L 554.87974 174.6 
L 558 177.72026 
L 559.805639 180.9 
L 561.798006 187.2 
L 562.884701 193.5 
L 563.4643 199.8 
L 563.766078 206.1 
L 563.994676 218.7 
L 564.058155 243.9 
L 564.030796 502.2 
L 563.91917 514.8 
L 563.766078 521.1 
L 563.4643 527.4 
L 562.884701 533.7 
L 561.798006 540 
L 559.805639 546.3 
L 558 549.47974 
L 554.87974 552.6 
L 551.7 554.405639 
L 545.4 556.398006 
L 539.1 557.484701 
L 532.8 558.0643 
L 526.5 558.366078 
L 513.9 558.594676 
L 488.7 558.658155 
L 230.4 558.630796 
L 217.8 558.51917 
L 211.5 558.366078 
L 205.2 558.0643 
L 198.9 557.484701 
L 192.6 556.398006 
L 186.3 554.405639 
L 186.3 554.405639 
" style="fill:none;stroke:#44aa00;stroke-width:1.5;"/>
   </g>
   <g id="LineCollection_10">
    <path clip-path="url(#pe5a731416b)" d="M 180 559.735714 
L 178.458836 558.9 
L 173.7 554.141164 
L 172.864286 552.6 
L 171.04908 546.3 
L 170.105317 540 
L 169.625925 533.7 
L 169.388425 527.4 
L 169.220228 514.8 
L 169.17786 477 
L 169.273886 206.1 
L 169.388425 199.8 
L 169.625925 193.5 
L 170.105317 187.2 
L 171.04908 180.9 
L 172.864286 174.6 
L 173.7 173.058836 
L 178.458836 168.3 
L 180 167.464286 
L 186.3 165.64908 
L 192.6 164.705317 
L 198.9 164.225925 
L 205.2 163.988425 
L 217.8 163.820228 
L 255.6 163.77786 
L 526.5 163.873886 
L 532.8 163.988425 
L 539.1 164.225925 
L 545.4 164.705317 
L 551.7 165.64908 
L 558 167.464286 
L 559.541164 168.3 
L 564.3 173.058836 
L 565.135714 174.6 
L 566.95092 180.9 
L 567.894683 187.2 
L 568.374075 193.5 
L 568.611575 199.8 
L 568.779772 212.4 
L 568.82214 250.2 
L 568.726114 521.1 
L 568.611575 527.4 
L 568.374075 533.7 
L 567.894683 540 
L 566.95092 546.3 
L 565.135714 552.6 
L 564.3 554.141164 
L 559.541164 558.9 
L 558 559.735714 
L 551.7 561.55092 
L 545.4 562.494683 
L 539.1 562.974075 
L 532.8 563.211575 
L 520.2 563.379772 
L 482.4 563.42214 
L 211.5 563.326114 
L 205.2 563.211575 
L 198.9 562.974075 
L 192.6 562.494683 
L 186.3 561.55092 
L 180 559.735714 
L 180 559.735714 
" style="fill:none;stroke:#44aa00;stroke-width:1.5;"/>
   </g>
   <g id="LineCollection_11">
    <path clip-path="url(#pe5a731416b)" d="M 180 565.938762 
L 177.202355 565.2 
L 173.7 563.419094 
L 169.180906 558.9 
L 167.4 555.397645 
L 166.661238 552.6 
L 165.834104 546.3 
L 165.432616 540 
L 165.155276 527.4 
L 165.089439 502.2 
L 165.11623 206.1 
L 165.242682 193.5 
L 165.432616 187.2 
L 165.834104 180.9 
L 166.661238 174.6 
L 167.4 171.802355 
L 169.180906 168.3 
L 173.7 163.780906 
L 177.202355 162 
L 180 161.261238 
L 186.3 160.434104 
L 192.6 160.032616 
L 205.2 159.755276 
L 230.4 159.689439 
L 526.5 159.71623 
L 539.1 159.842682 
L 545.4 160.032616 
L 551.7 160.434104 
L 558 161.261238 
L 560.797645 162 
L 564.3 163.780906 
L 568.819094 168.3 
L 570.6 171.802355 
L 571.338762 174.6 
L 572.165896 180.9 
L 572.567384 187.2 
L 572.844724 199.8 
L 572.910561 225 
L 572.88377 521.1 
L 572.757318 533.7 
L 572.567384 540 
L 572.165896 546.3 
L 571.338762 552.6 
L 570.6 555.397645 
L 568.819094 558.9 
L 564.3 563.419094 
L 560.797645 565.2 
L 558 565.938762 
L 551.7 566.765896 
L 545.4 567.167384 
L 532.8 567.444724 
L 507.6 567.510561 
L 211.5 567.48377 
L 198.9 567.357318 
L 192.6 567.167384 
L 186.3 566.765896 
L 180 565.938762 
L 180 565.938762 
" style="fill:none;stroke:#44aa00;stroke-width:1.5;"/>
   </g>
   <g id="LineCollection_12">
    <path clip-path="url(#pe5a731416b)" d="M 198.9 571.522417 
L 192.6 571.408789 
L 186.3 571.099739 
L 180 570.417774 
L 173.7 568.951951 
L 167.4 565.877841 
L 166.722159 565.2 
L 163.648049 558.9 
L 162.182226 552.6 
L 161.500261 546.3 
L 161.191211 540 
L 161.077583 533.7 
L 161.02922 502.2 
L 161.1 191.420007 
L 161.191211 187.2 
L 161.500261 180.9 
L 162.182226 174.6 
L 163.648049 168.3 
L 166.722159 162 
L 167.4 161.322159 
L 173.7 158.248049 
L 180 156.782226 
L 186.3 156.100261 
L 192.6 155.791211 
L 198.9 155.677583 
L 230.4 155.62922 
L 541.179993 155.7 
L 545.4 155.791211 
L 551.7 156.100261 
L 558 156.782226 
L 564.3 158.248049 
L 570.6 161.322159 
L 571.277841 162 
L 574.351951 168.3 
L 575.817774 174.6 
L 576.499739 180.9 
L 576.808789 187.2 
L 576.922417 193.5 
L 576.97078 225 
L 576.9 535.779993 
L 576.808789 540 
L 576.499739 546.3 
L 575.817774 552.6 
L 574.351951 558.9 
L 571.277841 565.2 
L 570.6 565.877841 
L 564.3 568.951951 
L 558 570.417774 
L 551.7 571.099739 
L 545.4 571.408789 
L 539.1 571.522417 
L 507.6 571.57078 
L 198.9 571.522417 
L 198.9 571.522417 
" style="fill:none;stroke:#44aa00;stroke-width:1.5;"/>
   </g>
   <g id="LineCollection_13">
    <path clip-path="url(#pe5a731416b)" d="M 167.4 571.700363 
L 166.973169 571.5 
L 161.1 565.626831 
L 160.899637 565.2 
L 159.543708 558.9 
L 158.937405 552.6 
L 158.673446 546.3 
L 158.515932 533.7 
L 158.486831 489.6 
L 158.561763 187.2 
L 158.673446 180.9 
L 158.937405 174.6 
L 159.543708 168.3 
L 161.1 161.573169 
L 166.973169 155.7 
L 167.4 155.499637 
L 173.7 154.143708 
L 180 153.537405 
L 186.3 153.273446 
L 198.9 153.115932 
L 243 153.086831 
L 545.4 153.161763 
L 551.7 153.273446 
L 558 153.537405 
L 564.3 154.143708 
L 571.026831 155.7 
L 576.9 161.573169 
L 577.100363 162 
L 578.456292 168.3 
L 579.062595 174.6 
L 579.326554 180.9 
L 579.484068 193.5 
L 579.513169 237.6 
L 579.438237 540 
L 579.326554 546.3 
L 579.062595 552.6 
L 578.456292 558.9 
L 576.9 565.626831 
L 571.026831 571.5 
L 570.6 571.700363 
L 564.3 573.056292 
L 558 573.662595 
L 551.7 573.926554 
L 539.1 574.084068 
L 495 574.113169 
L 192.6 574.038237 
L 186.3 573.926554 
L 180 573.662595 
L 173.7 573.056292 
L 167.4 571.700363 
L 167.4 571.700363 
" style="fill:none;stroke:#44aa00;stroke-width:1.5;"/>
   </g>
   <g id="LineCollection_14">
    <path clip-path="url(#pe5a731416b)" d="M 161.1 572.387911 
L 160.212089 571.5 
L 157.428022 565.2 
L 156.228581 558.9 
L 155.725624 552.6 
L 155.520718 546.3 
L 155.408832 533.7 
L 155.391337 464.4 
L 155.439771 187.2 
L 155.520718 180.9 
L 155.725624 174.6 
L 156.228581 168.3 
L 157.428022 162 
L 160.212089 155.7 
L 161.1 154.812089 
L 167.4 152.028022 
L 173.7 150.828581 
L 180 150.325624 
L 186.3 150.120718 
L 198.9 150.008832 
L 268.2 149.991337 
L 545.4 150.039771 
L 551.7 150.120718 
L 558 150.325624 
L 564.3 150.828581 
L 570.6 152.028022 
L 576.9 154.812089 
L 577.787911 155.7 
L 580.571978 162 
L 581.771419 168.3 
L 582.274376 174.6 
L 582.479282 180.9 
L 582.591168 193.5 
L 582.608663 262.8 
L 582.560229 540 
L 582.479282 546.3 
L 582.274376 552.6 
L 581.771419 558.9 
L 580.571978 565.2 
L 577.787911 571.5 
L 576.9 572.387911 
L 570.6 575.171978 
L 564.3 576.371419 
L 558 576.874376 
L 551.7 577.079282 
L 539.1 577.191168 
L 469.8 577.208663 
L 192.6 577.160229 
L 186.3 577.079282 
L 180 576.874376 
L 173.7 576.371419 
L 167.4 575.171978 
L 161.1 572.387911 
L 161.1 572.387911 
" style="fill:none;stroke:#44aa00;stroke-width:1.5;"/>
   </g>
   <g id="LineCollection_15">
    <path clip-path="url(#pe5a731416b)" d="M 167.4 578.473879 
L 163.605329 577.8 
L 161.1 576.757709 
L 155.842291 571.5 
L 154.8 568.994671 
L 154.126121 565.2 
L 153.673203 558.9 
L 153.427193 546.3 
L 153.388853 514.8 
L 153.427193 180.9 
L 153.673203 168.3 
L 154.126121 162 
L 154.8 158.205329 
L 155.842291 155.7 
L 161.1 150.442291 
L 163.605329 149.4 
L 167.4 148.726121 
L 173.7 148.273203 
L 186.3 148.027193 
L 217.8 147.988853 
L 551.7 148.027193 
L 564.3 148.273203 
L 570.6 148.726121 
L 574.394671 149.4 
L 576.9 150.442291 
L 582.157709 155.7 
L 583.2 158.205329 
L 583.873879 162 
L 584.326797 168.3 
L 584.572807 180.9 
L 584.611147 212.4 
L 584.572807 546.3 
L 584.326797 558.9 
L 583.873879 565.2 
L 583.2 568.994671 
L 582.157709 571.5 
L 576.9 576.757709 
L 574.394671 577.8 
L 570.6 578.473879 
L 564.3 578.926797 
L 551.7 579.172807 
L 520.2 579.211147 
L 186.3 579.172807 
L 173.7 578.926797 
L 167.4 578.473879 
L 167.4 578.473879 
" style="fill:none;stroke:#44aa00;stroke-width:1.5;"/>
   </g>
   <g id="LineCollection_16">
    <path clip-path="url(#pe5a731416b)" d="M 161.1 579.568781 
L 156.706268 577.8 
L 154.8 575.893732 
L 153.031219 571.5 
L 152.03788 565.2 
L 151.660003 558.9 
L 151.470926 546.3 
L 151.445549 502.2 
L 151.520647 174.6 
L 151.660003 168.3 
L 152.03788 162 
L 153.031219 155.7 
L 154.8 151.306268 
L 156.706268 149.4 
L 161.1 147.631219 
L 167.4 146.63788 
L 173.7 146.260003 
L 186.3 146.070926 
L 230.4 146.045549 
L 558 146.120647 
L 564.3 146.260003 
L 570.6 146.63788 
L 576.9 147.631219 
L 581.293732 149.4 
L 583.2 151.306268 
L 584.968781 155.7 
L 585.96212 162 
L 586.339997 168.3 
L 586.529074 180.9 
L 586.554451 225 
L 586.479353 552.6 
L 586.339997 558.9 
L 585.96212 565.2 
L 584.968781 571.5 
L 583.2 575.893732 
L 581.293732 577.8 
L 576.9 579.568781 
L 570.6 580.56212 
L 564.3 580.939997 
L 551.7 581.129074 
L 507.6 581.154451 
L 180 581.079353 
L 173.7 580.939997 
L 167.4 580.56212 
L 161.1 579.568781 
L 161.1 579.568781 
" style="fill:none;stroke:#44aa00;stroke-width:1.5;"/>
   </g>
   <g id="LineCollection_17">
    <path clip-path="url(#pe5a731416b)" d="M 154.8 579.71503 
L 152.88497 577.8 
L 150.493061 571.5 
L 149.611076 565.2 
L 149.295791 558.9 
L 149.150336 546.3 
L 149.133531 483.3 
L 149.186747 174.6 
L 149.295791 168.3 
L 149.611076 162 
L 150.493061 155.7 
L 152.88497 149.4 
L 154.8 147.48497 
L 161.1 145.093061 
L 167.4 144.211076 
L 173.7 143.895791 
L 186.3 143.750336 
L 249.3 143.733531 
L 558 143.786747 
L 564.3 143.895791 
L 570.6 144.211076 
L 576.9 145.093061 
L 583.2 147.48497 
L 585.11503 149.4 
L 587.506939 155.7 
L 588.388924 162 
L 588.704209 168.3 
L 588.849664 180.9 
L 588.866469 243.9 
L 588.813253 552.6 
L 588.704209 558.9 
L 588.388924 565.2 
L 587.506939 571.5 
L 585.11503 577.8 
L 583.2 579.71503 
L 576.9 582.106939 
L 570.6 582.988924 
L 564.3 583.304209 
L 551.7 583.449664 
L 488.7 583.466469 
L 180 583.413253 
L 173.7 583.304209 
L 167.4 582.988924 
L 161.1 582.106939 
L 154.8 579.71503 
L 154.8 579.71503 
" style="fill:none;stroke:#44aa00;stroke-width:1.5;"/>
   </g>
   <g id="LineCollection_18">
    <path clip-path="url(#pe5a731416b)" d="M 161.1 584.471319 
L 158.287387 584.1 
L 154.8 582.851252 
L 149.748748 577.8 
L 148.5 574.312613 
L 148.128681 571.5 
L 147.839945 565.2 
L 147.711491 552.6 
L 147.697544 477 
L 147.742952 168.3 
L 147.839945 162 
L 148.128681 155.7 
L 148.5 152.887387 
L 149.748748 149.4 
L 154.8 144.348748 
L 158.287387 143.1 
L 161.1 142.728681 
L 167.4 142.439945 
L 180 142.311491 
L 255.6 142.297544 
L 564.3 142.342952 
L 570.6 142.439945 
L 576.9 142.728681 
L 579.712613 143.1 
L 583.2 144.348748 
L 588.251252 149.4 
L 589.5 152.887387 
L 589.871319 155.7 
L 590.160055 162 
L 590.288509 174.6 
L 590.302456 250.2 
L 590.257048 558.9 
L 590.160055 565.2 
L 589.871319 571.5 
L 589.5 574.312613 
L 588.251252 577.8 
L 583.2 582.851252 
L 579.712613 584.1 
L 576.9 584.471319 
L 570.6 584.760055 
L 558 584.888509 
L 482.4 584.902456 
L 173.7 584.857048 
L 167.4 584.760055 
L 161.1 584.471319 
L 161.1 584.471319 
" style="fill:none;stroke:#44aa00;stroke-width:1.5;"/>
   </g>
   <g id="LineCollection_19">
    <path clip-path="url(#pe5a731416b)" d="M 154.8 584.974485 
L 152.289311 584.1 
L 148.5 580.310689 
L 147.625515 577.8 
L 146.884458 571.5 
L 146.64225 565.2 
L 146.54253 552.6 
L 146.533138 445.5 
L 146.64225 162 
L 146.884458 155.7 
L 147.625515 149.4 
L 148.5 146.889311 
L 152.289311 143.1 
L 154.8 142.225515 
L 161.1 141.484458 
L 167.4 141.24225 
L 180 141.14253 
L 287.1 141.133138 
L 570.6 141.24225 
L 576.9 141.484458 
L 583.2 142.225515 
L 585.710689 143.1 
L 589.5 146.889311 
L 590.374485 149.4 
L 591.115542 155.7 
L 591.35775 162 
L 591.45747 174.6 
L 591.466862 281.7 
L 591.35775 565.2 
L 591.115542 571.5 
L 590.374485 577.8 
L 589.5 580.310689 
L 585.710689 584.1 
L 583.2 584.974485 
L 576.9 585.715542 
L 570.6 585.95775 
L 558 586.05747 
L 450.9 586.066862 
L 167.4 585.95775 
L 161.1 585.715542 
L 154.8 584.974485 
L 154.8 584.974485 
" style="fill:none;stroke:#44aa00;stroke-width:1.5;"/>
   </g>
   <g id="LineCollection_20">
    <path clip-path="url(#pe5a731416b)" d="M 148.5 584.365024 
L 148.234976 584.1 
L 146.16196 577.8 
L 145.501664 571.5 
L 145.298477 565.2 
L 145.216294 546.3 
L 145.2382 168.3 
L 145.298477 162 
L 145.501664 155.7 
L 146.16196 149.4 
L 148.234976 143.1 
L 148.5 142.834976 
L 154.8 140.76196 
L 161.1 140.101664 
L 167.4 139.898477 
L 186.3 139.816294 
L 564.3 139.8382 
L 570.6 139.898477 
L 576.9 140.101664 
L 583.2 140.76196 
L 589.5 142.834976 
L 589.765024 143.1 
L 591.83804 149.4 
L 592.498336 155.7 
L 592.701523 162 
L 592.783706 180.9 
L 592.7618 558.9 
L 592.701523 565.2 
L 592.498336 571.5 
L 591.83804 577.8 
L 589.765024 584.1 
L 589.5 584.365024 
L 583.2 586.43804 
L 576.9 587.098336 
L 570.6 587.301523 
L 551.7 587.383706 
L 173.7 587.3618 
L 167.4 587.301523 
L 161.1 587.098336 
L 154.8 586.43804 
L 148.5 584.365024 
L 148.5 584.365024 
" style="fill:none;stroke:#44aa00;stroke-width:1.5;"/>
   </g>
   <g id="LineCollection_21">
    <path clip-path="url(#pe5a731416b)" d="M 148.5 586.121953 
L 146.478047 584.1 
L 144.519601 577.8 
L 143.931249 571.5 
L 143.760788 565.2 
L 143.697291 546.3 
L 143.713266 168.3 
L 143.760788 162 
L 143.931249 155.7 
L 144.519601 149.4 
L 146.478047 143.1 
L 148.5 141.078047 
L 154.8 139.119601 
L 161.1 138.531249 
L 167.4 138.360788 
L 186.3 138.297291 
L 564.3 138.313266 
L 570.6 138.360788 
L 576.9 138.531249 
L 583.2 139.119601 
L 589.5 141.078047 
L 591.521953 143.1 
L 593.480399 149.4 
L 594.068751 155.7 
L 594.239212 162 
L 594.302709 180.9 
L 594.286734 558.9 
L 594.239212 565.2 
L 594.068751 571.5 
L 593.480399 577.8 
L 591.521953 584.1 
L 589.5 586.121953 
L 583.2 588.080399 
L 576.9 588.668751 
L 570.6 588.839212 
L 551.7 588.902709 
L 173.7 588.886734 
L 167.4 588.839212 
L 161.1 588.668751 
L 154.8 588.080399 
L 148.5 586.121953 
L 148.5 586.121953 
" style="fill:none;stroke:#44aa00;stroke-width:1.5;"/>
   </g>
   <g id="LineCollection_22">
    <path clip-path="url(#pe5a731416b)" d="M 161.1 590.425393 
L 160.095572 590.4 
L 154.8 589.959323 
L 148.5 588.10909 
L 144.49091 584.1 
L 142.640677 577.8 
L 142.174607 571.5 
L 142.116919 552.6 
L 142.174607 155.7 
L 142.2 154.695572 
L 142.640677 149.4 
L 144.49091 143.1 
L 148.5 139.09091 
L 154.8 137.240677 
L 161.1 136.774607 
L 180 136.716919 
L 576.9 136.774607 
L 577.904428 136.8 
L 583.2 137.240677 
L 589.5 139.09091 
L 593.50909 143.1 
L 595.359323 149.4 
L 595.825393 155.7 
L 595.883081 174.6 
L 595.825393 571.5 
L 595.8 572.504428 
L 595.359323 577.8 
L 593.50909 584.1 
L 589.5 588.10909 
L 583.2 589.959323 
L 576.9 590.425393 
L 558 590.483081 
L 161.1 590.425393 
L 161.1 590.425393 
" style="fill:none;stroke:#44aa00;stroke-width:1.5;"/>
   </g>
   <g id="LineCollection_23">
    <path clip-path="url(#pe5a731416b)" d="M 154.8 590.900969 
L 148.5 590.394666 
L 142.2 584.080777 
L 141.699031 577.8 
L 141.530243 565.2 
L 141.519182 477 
L 141.564736 155.7 
L 141.699031 149.4 
L 142.205334 143.1 
L 148.519223 136.8 
L 154.8 136.299031 
L 167.4 136.130243 
L 255.6 136.119182 
L 576.9 136.164736 
L 583.2 136.299031 
L 589.5 136.805334 
L 595.8 143.119223 
L 596.300969 149.4 
L 596.469757 162 
L 596.480818 250.2 
L 596.435264 571.5 
L 596.300969 577.8 
L 595.794666 584.1 
L 589.480777 590.4 
L 583.2 590.900969 
L 570.6 591.069757 
L 482.4 591.080818 
L 161.1 591.035264 
L 154.8 590.900969 
L 154.8 590.900969 
" style="fill:none;stroke:#44aa00;stroke-width:1.5;"/>
   </g>
   <g id="LineCollection_24">
    <path clip-path="url(#pe5a731416b)" d="M 148.5 591.123535 
L 145.840107 590.4 
L 142.2 586.759893 
L 141.476465 584.1 
L 141.027236 577.8 
L 140.88661 565.2 
L 140.878508 451.8 
L 140.913995 155.7 
L 141.027236 149.4 
L 141.476465 143.1 
L 142.2 140.440107 
L 145.840107 136.8 
L 148.5 136.076465 
L 154.8 135.627236 
L 167.4 135.48661 
L 280.8 135.478508 
L 576.9 135.513995 
L 583.2 135.627236 
L 589.5 136.076465 
L 592.159893 136.8 
L 595.8 140.440107 
L 596.523535 143.1 
L 596.972764 149.4 
L 597.11339 162 
L 597.121492 275.4 
L 597.086005 571.5 
L 596.972764 577.8 
L 596.523535 584.1 
L 595.8 586.759893 
L 592.159893 590.4 
L 589.5 591.123535 
L 583.2 591.572764 
L 570.6 591.71339 
L 457.2 591.721492 
L 161.1 591.686005 
L 154.8 591.572764 
L 148.5 591.123535 
L 148.5 591.123535 
" style="fill:none;stroke:#44aa00;stroke-width:1.5;"/>
   </g>
   <g id="LineCollection_25">
    <path clip-path="url(#pe5a731416b)" d="M 148.5 591.89352 
L 142.697618 590.4 
L 142.2 589.902382 
L 140.70648 584.1 
L 140.304865 577.8 
L 140.187631 565.2 
L 140.181687 414 
L 140.209374 155.7 
L 140.304865 149.4 
L 140.70648 143.1 
L 142.2 137.297618 
L 142.697618 136.8 
L 148.5 135.30648 
L 154.8 134.904865 
L 167.4 134.787631 
L 318.6 134.781687 
L 576.9 134.809374 
L 583.2 134.904865 
L 589.5 135.30648 
L 595.302382 136.8 
L 595.8 137.297618 
L 597.29352 143.1 
L 597.695135 149.4 
L 597.812369 162 
L 597.818313 313.2 
L 597.790626 571.5 
L 597.695135 577.8 
L 597.29352 584.1 
L 595.8 589.902382 
L 595.302382 590.4 
L 589.5 591.89352 
L 583.2 592.295135 
L 570.6 592.412369 
L 419.4 592.418313 
L 161.1 592.390626 
L 154.8 592.295135 
L 148.5 591.89352 
L 148.5 591.89352 
" style="fill:none;stroke:#44aa00;stroke-width:1.5;"/>
   </g>
   <g id="LineCollection_26">
    <path clip-path="url(#pe5a731416b)" d="M 142.2 591.189222 
L 141.410778 590.4 
L 139.876302 584.1 
L 139.517246 577.8 
L 139.419456 565.2 
L 139.415089 363.6 
L 139.517246 149.4 
L 139.876302 143.1 
L 141.410778 136.8 
L 142.2 136.010778 
L 148.5 134.476302 
L 154.8 134.117246 
L 167.4 134.019456 
L 369 134.015089 
L 583.2 134.117246 
L 589.5 134.476302 
L 595.8 136.010778 
L 596.589222 136.8 
L 598.123698 143.1 
L 598.482754 149.4 
L 598.580544 162 
L 598.584911 363.6 
L 598.482754 577.8 
L 598.123698 584.1 
L 596.589222 590.4 
L 595.8 591.189222 
L 589.5 592.723698 
L 583.2 593.082754 
L 570.6 593.180544 
L 369 593.184911 
L 154.8 593.082754 
L 148.5 592.723698 
L 142.2 591.189222 
L 142.2 591.189222 
" style="fill:none;stroke:#44aa00;stroke-width:1.5;"/>
   </g>
   <g id="LineCollection_27">
    <path clip-path="url(#pe5a731416b)" d="M 142.2 592.178672 
L 140.421328 590.4 
L 138.969283 584.1 
L 138.648268 577.8 
L 138.566651 565.2 
L 138.563439 294.3 
L 138.648268 149.4 
L 138.969283 143.1 
L 140.421328 136.8 
L 142.2 135.021328 
L 148.5 133.569283 
L 154.8 133.248268 
L 167.4 133.166651 
L 438.3 133.163439 
L 583.2 133.248268 
L 589.5 133.569283 
L 595.8 135.021328 
L 597.578672 136.8 
L 599.030717 143.1 
L 599.351732 149.4 
L 599.433349 162 
L 599.436561 432.9 
L 599.351732 577.8 
L 599.030717 584.1 
L 597.578672 590.4 
L 595.8 592.178672 
L 589.5 593.630717 
L 583.2 593.951732 
L 570.6 594.033349 
L 299.7 594.036561 
L 154.8 593.951732 
L 148.5 593.630717 
L 142.2 592.178672 
L 142.2 592.178672 
" style="fill:none;stroke:#44aa00;stroke-width:1.5;"/>
   </g>
   <g id="LineCollection_28">
    <path clip-path="url(#pe5a731416b)" d="M 142.2 593.258966 
L 139.341034 590.4 
L 137.966977 584.1 
L 137.679966 577.8 
L 137.609844 558.9 
L 137.679966 149.4 
L 137.966977 143.1 
L 139.341034 136.8 
L 142.2 133.941034 
L 148.5 132.566977 
L 154.8 132.279966 
L 173.7 132.209844 
L 583.2 132.279966 
L 589.5 132.566977 
L 595.8 133.941034 
L 598.658966 136.8 
L 600.033023 143.1 
L 600.320034 149.4 
L 600.390156 168.3 
L 600.320034 577.8 
L 600.033023 584.1 
L 598.658966 590.4 
L 595.8 593.258966 
L 589.5 594.633023 
L 583.2 594.920034 
L 564.3 594.990156 
L 154.8 594.920034 
L 148.5 594.633023 
L 142.2 593.258966 
L 142.2 593.258966 
" style="fill:none;stroke:#44aa00;stroke-width:1.5;"/>
   </g>
   <g id="LineCollection_29">
    <path clip-path="url(#pe5a731416b)" d="M 142.2 594.451037 
L 138.148963 590.4 
L 136.84869 584.1 
L 136.592075 577.8 
L 136.533662 558.9 
L 136.592075 149.4 
L 136.84869 143.1 
L 138.148963 136.8 
L 142.2 132.748963 
L 148.5 131.44869 
L 154.8 131.192075 
L 173.7 131.133662 
L 583.2 131.192075 
L 589.5 131.44869 
L 595.8 132.748963 
L 599.851037 136.8 
L 601.15131 143.1 
L 601.407925 149.4 
L 601.466338 168.3 
L 601.407925 577.8 
L 601.15131 584.1 
L 599.851037 590.4 
L 595.8 594.451037 
L 589.5 595.75131 
L 583.2 596.007925 
L 564.3 596.066338 
L 154.8 596.007925 
L 148.5 595.75131 
L 142.2 594.451037 
L 142.2 594.451037 
" style="fill:none;stroke:#44aa00;stroke-width:1.5;"/>
   </g>
   <g id="LineCollection_30">
    <path clip-path="url(#pe5a731416b)" d="M 148.5 596.763061 
L 146.91781 596.7 
L 142.2 595.778556 
L 136.821444 590.4 
L 135.9 585.68219 
L 135.836939 584.1 
L 135.780403 565.2 
L 135.836939 143.1 
L 135.9 141.51781 
L 136.821444 136.8 
L 142.2 131.421444 
L 146.91781 130.5 
L 148.5 130.436939 
L 167.4 130.380403 
L 589.5 130.436939 
L 591.08219 130.5 
L 595.8 131.421444 
L 601.178556 136.8 
L 602.1 141.51781 
L 602.163061 143.1 
L 602.219597 162 
L 602.163061 584.1 
L 602.1 585.68219 
L 601.178556 590.4 
L 595.8 595.778556 
L 591.08219 596.7 
L 589.5 596.763061 
L 570.6 596.819597 
L 148.5 596.763061 
L 148.5 596.763061 
" style="fill:none;stroke:#44aa00;stroke-width:1.5;"/>
   </g>
   <g id="LineCollection_31">
    <path clip-path="url(#pe5a731416b)" d="M 142.2 596.809944 
L 141.631514 596.7 
L 135.9 590.968486 
L 135.790056 590.4 
L 135.564859 584.1 
L 135.517483 565.2 
L 135.564859 143.1 
L 135.9 136.231514 
L 141.631514 130.5 
L 142.2 130.390056 
L 148.5 130.164859 
L 167.4 130.117483 
L 589.5 130.164859 
L 596.368486 130.5 
L 602.1 136.231514 
L 602.209944 136.8 
L 602.435141 143.1 
L 602.482517 162 
L 602.435141 584.1 
L 602.1 590.968486 
L 596.368486 596.7 
L 595.8 596.809944 
L 589.5 597.035141 
L 570.6 597.082517 
L 148.5 597.035141 
L 142.2 596.809944 
L 142.2 596.809944 
" style="fill:none;stroke:#44aa00;stroke-width:1.5;"/>
   </g>
   <g id="LineCollection_32">
    <path clip-path="url(#pe5a731416b)" d="M 142.2 597.112716 
L 139.948278 596.7 
L 135.9 592.651722 
L 135.487284 590.4 
L 135.285313 584.1 
L 135.245473 558.9 
L 135.285313 143.1 
L 135.487284 136.8 
L 135.9 134.548278 
L 139.948278 130.5 
L 142.2 130.087284 
L 148.5 129.885313 
L 173.7 129.845473 
L 589.5 129.885313 
L 595.8 130.087284 
L 598.051722 130.5 
L 602.1 134.548278 
L 602.512716 136.8 
L 602.714687 143.1 
L 602.754527 168.3 
L 602.714687 584.1 
L 602.512716 590.4 
L 602.1 592.651722 
L 598.051722 596.7 
L 595.8 597.112716 
L 589.5 597.314687 
L 564.3 597.354527 
L 148.5 597.314687 
L 142.2 597.112716 
L 142.2 597.112716 
" style="fill:none;stroke:#44aa00;stroke-width:1.5;"/>
   </g>
   <g id="LineCollection_33">
    <path clip-path="url(#pe5a731416b)" d="M 142.2 597.423296 
L 138.036183 596.7 
L 135.9 594.563817 
L 135.176704 590.4 
L 134.99556 584.1 
L 134.962134 552.6 
L 134.99556 143.1 
L 135.176704 136.8 
L 135.9 132.636183 
L 138.036183 130.5 
L 142.2 129.776704 
L 148.5 129.59556 
L 180 129.562134 
L 589.5 129.59556 
L 595.8 129.776704 
L 599.963817 130.5 
L 602.1 132.636183 
L 602.823296 136.8 
L 603.00444 143.1 
L 603.037866 174.6 
L 603.00444 584.1 
L 602.823296 590.4 
L 602.1 594.563817 
L 599.963817 596.7 
L 595.8 597.423296 
L 589.5 597.60444 
L 558 597.637866 
L 148.5 597.60444 
L 142.2 597.423296 
L 142.2 597.423296 
" style="fill:none;stroke:#44aa00;stroke-width:1.5;"/>
   </g>
   <g id="LineCollection_34">
    <path clip-path="url(#pe5a731416b)" d="M 135.9 596.707543 
L 135.892457 596.7 
L 134.855271 590.4 
L 134.692802 584.1 
L 134.664748 552.6 
L 134.692802 143.1 
L 134.855271 136.8 
L 135.9 130.492457 
L 142.2 129.455271 
L 148.5 129.292802 
L 180 129.264748 
L 589.5 129.292802 
L 595.8 129.455271 
L 602.107543 130.5 
L 603.144729 136.8 
L 603.307198 143.1 
L 603.335252 174.6 
L 603.307198 584.1 
L 603.144729 590.4 
L 602.1 596.707543 
L 595.8 597.744729 
L 589.5 597.907198 
L 558 597.935252 
L 148.5 597.907198 
L 142.2 597.744729 
L 135.9 596.707543 
L 135.9 596.707543 
" style="fill:none;stroke:#44aa00;stroke-width:1.5;"/>
   </g>
   <g id="LineCollection_35">
    <path clip-path="url(#pe5a731416b)" d="M 135.9 597.097138 
L 135.502862 596.7 
L 134.519865 590.4 
L 134.374144 584.1 
L 134.350582 546.3 
L 134.374144 143.1 
L 134.519865 136.8 
L 135.502862 130.5 
L 135.9 130.102862 
L 142.2 129.119865 
L 148.5 128.974144 
L 186.3 128.950582 
L 589.5 128.974144 
L 595.8 129.119865 
L 602.1 130.102862 
L 602.497138 130.5 
L 603.480135 136.8 
L 603.625856 143.1 
L 603.649418 180.9 
L 603.625856 584.1 
L 603.480135 590.4 
L 602.497138 596.7 
L 602.1 597.097138 
L 595.8 598.080135 
L 589.5 598.225856 
L 551.7 598.249418 
L 148.5 598.225856 
L 142.2 598.080135 
L 135.9 597.097138 
L 135.9 597.097138 
" style="fill:none;stroke:#44aa00;stroke-width:1.5;"/>
   </g>
   <g id="LineCollection_36">
    <path clip-path="url(#pe5a731416b)" d="M 135.9 597.501097 
L 135.098903 596.7 
L 134.167254 590.4 
L 134.036551 584.1 
L 134.016751 540 
L 134.036551 143.1 
L 134.167254 136.8 
L 135.098903 130.5 
L 135.9 129.698903 
L 142.2 128.767254 
L 148.5 128.636551 
L 192.6 128.616751 
L 589.5 128.636551 
L 595.8 128.767254 
L 602.1 129.698903 
L 602.901097 130.5 
L 603.832746 136.8 
L 603.963449 143.1 
L 603.983249 187.2 
L 603.963449 584.1 
L 603.832746 590.4 
L 602.901097 596.7 
L 602.1 597.501097 
L 595.8 598.432746 
L 589.5 598.563449 
L 545.4 598.583249 
L 148.5 598.563449 
L 142.2 598.432746 
L 135.9 597.501097 
L 135.9 597.501097 
" style="fill:none;stroke:#44aa00;stroke-width:1.5;"/>
   </g>
   <g id="LineCollection_37">
    <path clip-path="url(#pe5a731416b)" d="M 135.9 597.92296 
L 134.67704 596.7 
L 133.794049 590.4 
L 133.662115 577.8 
L 133.660168 168.3 
L 133.676815 143.1 
L 133.794049 136.8 
L 134.67704 130.5 
L 135.9 129.27704 
L 142.2 128.394049 
L 154.8 128.262115 
L 564.3 128.260168 
L 589.5 128.276815 
L 595.8 128.394049 
L 602.1 129.27704 
L 603.32296 130.5 
L 604.205951 136.8 
L 604.337885 149.4 
L 604.339832 558.9 
L 604.323185 584.1 
L 604.205951 590.4 
L 603.32296 596.7 
L 602.1 597.92296 
L 595.8 598.805951 
L 583.2 598.937885 
L 173.7 598.939832 
L 148.5 598.923185 
L 142.2 598.805951 
L 135.9 597.92296 
L 135.9 597.92296 
" style="fill:none;stroke:#44aa00;stroke-width:1.5;"/>
   </g>
   <g id="LineCollection_38">
    <path clip-path="url(#pe5a731416b)" d="M 135.9 598.366453 
L 134.233547 596.7 
L 133.396665 590.4 
L 133.279051 577.8 
L 133.29151 143.1 
L 133.396665 136.8 
L 134.233547 130.5 
L 135.9 128.833547 
L 142.2 127.996665 
L 154.8 127.879051 
L 589.5 127.89151 
L 595.8 127.996665 
L 602.1 128.833547 
L 603.766453 130.5 
L 604.603335 136.8 
L 604.720949 149.4 
L 604.70849 584.1 
L 604.603335 590.4 
L 603.766453 596.7 
L 602.1 598.366453 
L 595.8 599.203335 
L 583.2 599.320949 
L 148.5 599.30849 
L 142.2 599.203335 
L 135.9 598.366453 
L 135.9 598.366453 
" style="fill:none;stroke:#44aa00;stroke-width:1.5;"/>
   </g>
   <g id="LineCollection_39">
    <path clip-path="url(#pe5a731416b)" d="M 135.9 598.835534 
L 133.764466 596.7 
L 132.971278 590.4 
L 132.866395 577.8 
L 132.876955 143.1 
L 132.971278 136.8 
L 133.764466 130.5 
L 135.9 128.364466 
L 142.2 127.571278 
L 154.8 127.466395 
L 589.5 127.476955 
L 595.8 127.571278 
L 602.1 128.364466 
L 604.235534 130.5 
L 605.028722 136.8 
L 605.133605 149.4 
L 605.123045 584.1 
L 605.028722 590.4 
L 604.235534 596.7 
L 602.1 598.835534 
L 595.8 599.628722 
L 583.2 599.733605 
L 148.5 599.723045 
L 142.2 599.628722 
L 135.9 598.835534 
L 135.9 598.835534 
" style="fill:none;stroke:#44aa00;stroke-width:1.5;"/>
   </g>
   <g id="LineCollection_40">
    <path clip-path="url(#pe5a731416b)" d="M 135.9 599.334437 
L 133.265563 596.7 
L 132.513783 590.4 
L 132.420224 577.8 
L 132.429175 143.1 
L 132.513783 136.8 
L 133.265563 130.5 
L 135.9 127.865563 
L 142.2 127.113783 
L 154.8 127.020224 
L 589.5 127.029175 
L 595.8 127.113783 
L 602.1 127.865563 
L 604.734437 130.5 
L 605.486217 136.8 
L 605.579776 149.4 
L 605.570825 584.1 
L 605.486217 590.4 
L 604.734437 596.7 
L 602.1 599.334437 
L 595.8 600.086217 
L 583.2 600.179776 
L 148.5 600.170825 
L 142.2 600.086217 
L 135.9 599.334437 
L 135.9 599.334437 
" style="fill:none;stroke:#44aa00;stroke-width:1.5;"/>
   </g>
   <g id="LineCollection_41">
    <path clip-path="url(#pe5a731416b)" d="M 135.9 599.867716 
L 132.732284 596.7 
L 132.019743 590.4 
L 131.936261 577.8 
L 131.943848 143.1 
L 132.019743 136.8 
L 132.732284 130.5 
L 135.9 127.332284 
L 142.2 126.619743 
L 154.8 126.536261 
L 589.5 126.543848 
L 595.8 126.619743 
L 602.1 127.332284 
L 605.267716 130.5 
L 605.980257 136.8 
L 606.063739 149.4 
L 606.056152 584.1 
L 605.980257 590.4 
L 605.267716 596.7 
L 602.1 599.867716 
L 595.8 600.580257 
L 583.2 600.663739 
L 148.5 600.656152 
L 142.2 600.580257 
L 135.9 599.867716 
L 135.9 599.867716 
" style="fill:none;stroke:#44aa00;stroke-width:1.5;"/>
   </g>
   <g id="LineCollection_42">
    <path clip-path="url(#pe5a731416b)" d="M 135.9 600.440296 
L 132.159704 596.7 
L 131.484348 590.4 
L 131.409837 577.8 
L 131.416268 143.1 
L 131.484348 136.8 
L 132.159704 130.5 
L 135.9 126.759704 
L 142.2 126.084348 
L 154.8 126.009837 
L 589.5 126.016268 
L 595.8 126.084348 
L 602.1 126.759704 
L 605.840296 130.5 
L 606.515652 136.8 
L 606.590163 149.4 
L 606.583732 584.1 
L 606.515652 590.4 
L 605.840296 596.7 
L 602.1 600.440296 
L 595.8 601.115652 
L 583.2 601.190163 
L 148.5 601.183732 
L 142.2 601.115652 
L 135.9 600.440296 
L 135.9 600.440296 
" style="fill:none;stroke:#44aa00;stroke-width:1.5;"/>
   </g>
   <g id="LineCollection_43">
    <path clip-path="url(#pe5a731416b)" d="M 135.9 601.057525 
L 131.542475 596.7 
L 130.902359 590.4 
L 130.835837 577.8 
L 130.902359 136.8 
L 131.542475 130.5 
L 135.9 126.142475 
L 142.2 125.502359 
L 154.8 125.435837 
L 595.8 125.502359 
L 602.1 126.142475 
L 606.457525 130.5 
L 607.097641 136.8 
L 607.164163 149.4 
L 607.097641 590.4 
L 606.457525 596.7 
L 602.1 601.057525 
L 595.8 601.697641 
L 583.2 601.764163 
L 142.2 601.697641 
L 135.9 601.057525 
L 135.9 601.057525 
" style="fill:none;stroke:#44aa00;stroke-width:1.5;"/>
   </g>
   <g id="LineCollection_44">
    <path clip-path="url(#pe5a731416b)" d="M 135.9 601.725229 
L 130.874771 596.7 
L 130.268052 590.4 
L 130.208283 571.5 
L 130.268052 136.8 
L 130.874771 130.5 
L 135.9 125.474771 
L 142.2 124.868052 
L 161.1 124.808283 
L 595.8 124.868052 
L 602.1 125.474771 
L 607.125229 130.5 
L 607.731948 136.8 
L 607.791717 155.7 
L 607.731948 590.4 
L 607.125229 596.7 
L 602.1 601.725229 
L 595.8 602.331948 
L 576.9 602.391717 
L 142.2 602.331948 
L 135.9 601.725229 
L 135.9 601.725229 
" style="fill:none;stroke:#44aa00;stroke-width:1.5;"/>
   </g>
   <g id="LineCollection_45">
    <path clip-path="url(#pe5a731416b)" d="M 142.2 603.002414 
L 141.927827 603 
L 135.9 602.449774 
L 130.150226 596.7 
L 129.597586 590.4 
L 129.5924 439.2 
L 129.6 136.527827 
L 130.150226 130.5 
L 135.9 124.750226 
L 142.2 124.197586 
L 293.4 124.1924 
L 596.072173 124.2 
L 602.1 124.750226 
L 607.849774 130.5 
L 608.402414 136.8 
L 608.4076 288 
L 608.4 590.672173 
L 607.849774 596.7 
L 602.1 602.449774 
L 595.8 603.002414 
L 444.6 603.0076 
L 142.2 603.002414 
L 142.2 603.002414 
" style="fill:none;stroke:#44aa00;stroke-width:1.5;"/>
   </g>
   <g id="LineCollection_46">
    <path clip-path="url(#pe5a731416b)" d="M 135.9 603.021962 
L 135.661866 603 
L 129.6 596.938134 
L 129.578038 596.7 
L 129.523397 577.8 
L 129.6 130.261866 
L 135.661866 124.2 
L 135.9 124.178038 
L 154.8 124.123397 
L 602.338134 124.2 
L 608.4 130.261866 
L 608.421962 130.5 
L 608.476603 149.4 
L 608.4 596.938134 
L 602.338134 603 
L 602.1 603.021962 
L 583.2 603.076603 
L 135.9 603.021962 
L 135.9 603.021962 
" style="fill:none;stroke:#44aa00;stroke-width:1.5;"/>
   </g>
   <g id="LineCollection_47">
    <path clip-path="url(#pe5a731416b)" d="M 135.9 603.096111 
L 134.80204 603 
L 129.6 597.79796 
L 129.503889 596.7 
L 129.454955 577.8 
L 129.503889 130.5 
L 129.6 129.40204 
L 134.80204 124.2 
L 135.9 124.103889 
L 154.8 124.054955 
L 602.1 124.103889 
L 603.19796 124.2 
L 608.4 129.40204 
L 608.496111 130.5 
L 608.545045 149.4 
L 608.496111 596.7 
L 608.4 597.79796 
L 603.19796 603 
L 602.1 603.096111 
L 583.2 603.145045 
L 135.9 603.096111 
L 135.9 603.096111 
" style="fill:none;stroke:#44aa00;stroke-width:1.5;"/>
   </g>
   <g id="LineCollection_48">
    <path clip-path="url(#pe5a731416b)" d="M 135.9 603.169303 
L 133.862336 603 
L 129.6 598.737664 
L 129.430697 596.7 
L 129.386862 577.8 
L 129.430697 130.5 
L 129.6 128.462336 
L 133.862336 124.2 
L 135.9 124.030697 
L 154.8 123.986862 
L 602.1 124.030697 
L 604.137664 124.2 
L 608.4 128.462336 
L 608.569303 130.5 
L 608.613138 149.4 
L 608.569303 596.7 
L 608.4 598.737664 
L 604.137664 603 
L 602.1 603.169303 
L 583.2 603.213138 
L 135.9 603.169303 
L 135.9 603.169303 
" style="fill:none;stroke:#44aa00;stroke-width:1.5;"/>
   </g>
   <g id="LineCollection_49">
    <path clip-path="url(#pe5a731416b)" d="M 135.9 603.241837 
L 132.833497 603 
L 129.6 599.766503 
L 129.358163 596.7 
L 129.318876 571.5 
L 129.358163 130.5 
L 129.6 127.433497 
L 132.833497 124.2 
L 135.9 123.958163 
L 161.1 123.918876 
L 602.1 123.958163 
L 605.166503 124.2 
L 608.4 127.433497 
L 608.641837 130.5 
L 608.681124 155.7 
L 608.641837 596.7 
L 608.4 599.766503 
L 605.166503 603 
L 602.1 603.241837 
L 576.9 603.281124 
L 135.9 603.241837 
L 135.9 603.241837 
" style="fill:none;stroke:#44aa00;stroke-width:1.5;"/>
   </g>
   <g id="LineCollection_50">
    <path clip-path="url(#pe5a731416b)" d="M 135.9 603.314 
L 131.705321 603 
L 129.6 600.894679 
L 129.286 596.7 
L 129.250791 571.5 
L 129.286 130.5 
L 129.6 126.305321 
L 131.705321 124.2 
L 135.9 123.886 
L 161.1 123.850791 
L 602.1 123.886 
L 606.294679 124.2 
L 608.4 126.305321 
L 608.714 130.5 
L 608.749209 155.7 
L 608.714 596.7 
L 608.4 600.894679 
L 606.294679 603 
L 602.1 603.314 
L 576.9 603.349209 
L 135.9 603.314 
L 135.9 603.314 
" style="fill:none;stroke:#44aa00;stroke-width:1.5;"/>
   </g>
   <g id="LineCollection_51">
    <path clip-path="url(#pe5a731416b)" d="M 135.9 603.386064 
L 130.466559 603 
L 129.6 602.133441 
L 129.213936 596.7 
L 129.182374 571.5 
L 129.213936 130.5 
L 129.6 125.066559 
L 130.466559 124.2 
L 135.9 123.813936 
L 161.1 123.782374 
L 602.1 123.813936 
L 607.533441 124.2 
L 608.4 125.066559 
L 608.786064 130.5 
L 608.817626 155.7 
L 608.786064 596.7 
L 608.4 602.133441 
L 607.533441 603 
L 602.1 603.386064 
L 576.9 603.417626 
L 135.9 603.386064 
L 135.9 603.386064 
" style="fill:none;stroke:#44aa00;stroke-width:1.5;"/>
   </g>
   <g id="LineCollection_52">
    <path clip-path="url(#pe5a731416b)" d="M 129.6 603.033398 
L 129.566602 603 
L 129.141706 596.7 
L 129.113408 565.2 
L 129.141706 130.5 
L 129.6 124.166602 
L 135.9 123.741706 
L 167.4 123.713408 
L 602.1 123.741706 
L 608.433398 124.2 
L 608.858294 130.5 
L 608.886592 162 
L 608.858294 596.7 
L 608.4 603.033398 
L 602.1 603.458294 
L 570.6 603.486592 
L 135.9 603.458294 
L 129.6 603.033398 
L 129.6 603.033398 
" style="fill:none;stroke:#44aa00;stroke-width:1.5;"/>
   </g>
   <g id="LineCollection_53">
    <path clip-path="url(#pe5a731416b)" d="M 129.6 603.127631 
L 129.472369 603 
L 129.069057 596.7 
L 129.043679 565.2 
L 129.069057 130.5 
L 129.472369 124.2 
L 129.6 124.072369 
L 135.9 123.669057 
L 167.4 123.643679 
L 602.1 123.669057 
L 608.4 124.072369 
L 608.527631 124.2 
L 608.930943 130.5 
L 608.956321 162 
L 608.930943 596.7 
L 608.527631 603 
L 608.4 603.127631 
L 602.1 603.530943 
L 570.6 603.556321 
L 135.9 603.530943 
L 129.6 603.127631 
L 129.6 603.127631 
" style="fill:none;stroke:#44aa00;stroke-width:1.5;"/>
   </g>
   <g id="LineCollection_54">
    <path clip-path="url(#pe5a731416b)" d="M 129.6 603.221434 
L 129.378566 603 
L 128.995739 596.7 
L 128.972975 558.9 
L 128.995739 130.5 
L 129.378566 124.2 
L 129.6 123.978566 
L 135.9 123.595739 
L 173.7 123.572975 
L 602.1 123.595739 
L 608.4 123.978566 
L 608.621434 124.2 
L 609.004261 130.5 
L 609.027025 168.3 
L 609.004261 596.7 
L 608.621434 603 
L 608.4 603.221434 
L 602.1 603.604261 
L 564.3 603.627025 
L 135.9 603.604261 
L 129.6 603.221434 
L 129.6 603.221434 
" style="fill:none;stroke:#44aa00;stroke-width:1.5;"/>
   </g>
   <g id="LineCollection_55">
    <path clip-path="url(#pe5a731416b)" d="M 129.6 603.315106 
L 129.284894 603 
L 128.921509 596.7 
L 128.901087 558.9 
L 128.921509 130.5 
L 129.284894 124.2 
L 129.6 123.884894 
L 135.9 123.521509 
L 173.7 123.501087 
L 602.1 123.521509 
L 608.4 123.884894 
L 608.715106 124.2 
L 609.078491 130.5 
L 609.098913 168.3 
L 609.078491 596.7 
L 608.715106 603 
L 608.4 603.315106 
L 602.1 603.678491 
L 564.3 603.698913 
L 135.9 603.678491 
L 129.6 603.315106 
L 129.6 603.315106 
" style="fill:none;stroke:#44aa00;stroke-width:1.5;"/>
   </g>
   <g id="LineCollection_56">
    <path clip-path="url(#pe5a731416b)" d="M 129.6 603.408941 
L 129.191059 603 
L 128.846127 596.7 
L 128.827802 552.6 
L 128.846127 130.5 
L 129.191059 124.2 
L 129.6 123.791059 
L 135.9 123.446127 
L 180 123.427802 
L 602.1 123.446127 
L 608.4 123.791059 
L 608.808941 124.2 
L 609.153873 130.5 
L 609.172198 174.6 
L 609.153873 596.7 
L 608.808941 603 
L 608.4 603.408941 
L 602.1 603.753873 
L 558 603.772198 
L 135.9 603.753873 
L 129.6 603.408941 
L 129.6 603.408941 
" style="fill:none;stroke:#44aa00;stroke-width:1.5;"/>
   </g>
   <g id="LineCollection_57">
    <path clip-path="url(#pe5a731416b)" d="M 129.6 603.503227 
L 129.096773 603 
L 128.769356 596.7 
L 128.75291 546.3 
L 128.769356 130.5 
L 129.096773 124.2 
L 129.6 123.696773 
L 135.9 123.369356 
L 186.3 123.35291 
L 602.1 123.369356 
L 608.4 123.696773 
L 608.903227 124.2 
L 609.230644 130.5 
L 609.24709 180.9 
L 609.230644 596.7 
L 608.903227 603 
L 608.4 603.503227 
L 602.1 603.830644 
L 551.7 603.84709 
L 135.9 603.830644 
L 129.6 603.503227 
L 129.6 603.503227 
" style="fill:none;stroke:#44aa00;stroke-width:1.5;"/>
   </g>
   <g id="LineCollection_58">
    <path clip-path="url(#pe5a731416b)" d="M 129.6 603.598247 
L 129.001753 603 
L 128.690959 596.7 
L 128.676198 546.3 
L 128.690959 130.5 
L 129.001753 124.2 
L 129.6 123.601753 
L 135.9 123.290959 
L 186.3 123.276198 
L 602.1 123.290959 
L 608.4 123.601753 
L 608.998247 124.2 
L 609.309041 130.5 
L 609.323802 180.9 
L 609.309041 596.7 
L 608.998247 603 
L 608.4 603.598247 
L 602.1 603.909041 
L 551.7 603.923802 
L 135.9 603.909041 
L 129.6 603.598247 
L 129.6 603.598247 
" style="fill:none;stroke:#44aa00;stroke-width:1.5;"/>
   </g>
   <g id="LineCollection_59">
    <path clip-path="url(#pe5a731416b)" d="M 129.6 603.694284 
L 128.905716 603 
L 128.6107 596.7 
L 128.597448 540 
L 128.6107 130.5 
L 128.905716 124.2 
L 129.6 123.505716 
L 135.9 123.2107 
L 192.6 123.197448 
L 602.1 123.2107 
L 608.4 123.505716 
L 609.094284 124.2 
L 609.3893 130.5 
L 609.402552 187.2 
L 609.3893 596.7 
L 609.094284 603 
L 608.4 603.694284 
L 602.1 603.9893 
L 545.4 604.002552 
L 135.9 603.9893 
L 129.6 603.694284 
L 129.6 603.694284 
" style="fill:none;stroke:#44aa00;stroke-width:1.5;"/>
   </g>
   <g id="LineCollection_60">
    <path clip-path="url(#pe5a731416b)" d="M 129.6 603.791618 
L 128.808382 603 
L 128.528341 596.7 
L 128.516443 533.7 
L 128.528341 130.5 
L 128.808382 124.2 
L 129.6 123.408382 
L 135.9 123.128341 
L 198.9 123.116443 
L 602.1 123.128341 
L 608.4 123.408382 
L 609.191618 124.2 
L 609.471659 130.5 
L 609.483557 193.5 
L 609.471659 596.7 
L 609.191618 603 
L 608.4 603.791618 
L 602.1 604.071659 
L 539.1 604.083557 
L 135.9 604.071659 
L 129.6 603.791618 
L 129.6 603.791618 
" style="fill:none;stroke:#44aa00;stroke-width:1.5;"/>
   </g>
   <g id="LineCollection_61">
    <path clip-path="url(#pe5a731416b)" d="M 129.6 603.89053 
L 128.70947 603 
L 128.443643 596.7 
L 128.432959 527.4 
L 128.443643 130.5 
L 128.70947 124.2 
L 129.6 123.30947 
L 135.9 123.043643 
L 205.2 123.032959 
L 602.1 123.043643 
L 608.4 123.30947 
L 609.29053 124.2 
L 609.556357 130.5 
L 609.567041 199.8 
L 609.556357 596.7 
L 609.29053 603 
L 608.4 603.89053 
L 602.1 604.156357 
L 532.8 604.167041 
L 135.9 604.156357 
L 129.6 603.89053 
L 129.6 603.89053 
" style="fill:none;stroke:#44aa00;stroke-width:1.5;"/>
   </g>
   <g id="LineCollection_62">
    <path clip-path="url(#pe5a731416b)" d="M 129.6 603.991301 
L 128.608699 603 
L 128.356363 596.7 
L 128.346768 514.8 
L 128.356363 130.5 
L 128.608699 124.2 
L 129.6 123.208699 
L 135.9 122.956363 
L 217.8 122.946768 
L 602.1 122.956363 
L 608.4 123.208699 
L 609.391301 124.2 
L 609.643637 130.5 
L 609.653232 212.4 
L 609.643637 596.7 
L 609.391301 603 
L 608.4 603.991301 
L 602.1 604.243637 
L 520.2 604.253232 
L 135.9 604.243637 
L 129.6 603.991301 
L 129.6 603.991301 
" style="fill:none;stroke:#44aa00;stroke-width:1.5;"/>
   </g>
   <g id="LineCollection_63">
    <path clip-path="url(#pe5a731416b)" d="M 129.6 604.094215 
L 128.505785 603 
L 128.266254 596.7 
L 128.257636 508.5 
L 128.266254 130.5 
L 128.505785 124.2 
L 129.6 123.105785 
L 135.9 122.866254 
L 224.1 122.857636 
L 602.1 122.866254 
L 608.4 123.105785 
L 609.494215 124.2 
L 609.733746 130.5 
L 609.742364 218.7 
L 609.733746 596.7 
L 609.494215 603 
L 608.4 604.094215 
L 602.1 604.333746 
L 513.9 604.342364 
L 135.9 604.333746 
L 129.6 604.094215 
L 129.6 604.094215 
" style="fill:none;stroke:#44aa00;stroke-width:1.5;"/>
   </g>
   <g id="LineCollection_64">
    <path clip-path="url(#pe5a731416b)" d="M 129.6 604.199559 
L 128.400441 603 
L 128.173065 596.7 
L 128.165324 502.2 
L 128.173065 130.5 
L 128.400441 124.2 
L 129.6 123.000441 
L 135.9 122.773065 
L 230.4 122.765324 
L 602.1 122.773065 
L 608.4 123.000441 
L 609.599559 124.2 
L 609.826935 130.5 
L 609.834676 225 
L 609.826935 596.7 
L 609.599559 603 
L 608.4 604.199559 
L 602.1 604.426935 
L 507.6 604.434676 
L 135.9 604.426935 
L 129.6 604.199559 
L 129.6 604.199559 
" style="fill:none;stroke:#44aa00;stroke-width:1.5;"/>
   </g>
   <g id="LineCollection_65">
    <path clip-path="url(#pe5a731416b)" d="M 129.6 604.307622 
L 128.292378 603 
L 128.076539 596.7 
L 128.069585 489.6 
L 128.076539 130.5 
L 128.292378 124.2 
L 129.6 122.892378 
L 135.9 122.676539 
L 243 122.669585 
L 602.1 122.676539 
L 608.4 122.892378 
L 609.707622 124.2 
L 609.923461 130.5 
L 609.930415 237.6 
L 609.923461 596.7 
L 609.707622 603 
L 608.4 604.307622 
L 602.1 604.523461 
L 495 604.530415 
L 135.9 604.523461 
L 129.6 604.307622 
L 129.6 604.307622 
" style="fill:none;stroke:#44aa00;stroke-width:1.5;"/>
   </g>
   <g id="LineCollection_66">
    <path clip-path="url(#pe5a731416b)" d="M 129.6 604.4187 
L 128.1813 603 
L 127.976411 596.7 
L 127.970163 477 
L 127.976411 130.5 
L 128.1813 124.2 
L 129.6 122.7813 
L 135.9 122.576411 
L 255.6 122.570163 
L 602.1 122.576411 
L 608.4 122.7813 
L 609.8187 124.2 
L 610.023589 130.5 
L 610.029837 250.2 
L 610.023589 596.7 
L 609.8187 603 
L 608.4 604.4187 
L 602.1 604.623589 
L 482.4 604.629837 
L 135.9 604.623589 
L 129.6 604.4187 
L 129.6 604.4187 
" style="fill:none;stroke:#44aa00;stroke-width:1.5;"/>
   </g>
   <g id="LineCollection_67">
    <path clip-path="url(#pe5a731416b)" d="M 129.6 604.533096 
L 128.066904 603 
L 127.87241 596.7 
L 127.866796 464.4 
L 127.87241 130.5 
L 128.066904 124.2 
L 129.6 122.666904 
L 135.9 122.47241 
L 268.2 122.466796 
L 602.1 122.47241 
L 608.4 122.666904 
L 609.933096 124.2 
L 610.12759 130.5 
L 610.133204 262.8 
L 610.12759 596.7 
L 609.933096 603 
L 608.4 604.533096 
L 602.1 604.72759 
L 469.8 604.733204 
L 135.9 604.72759 
L 129.6 604.533096 
L 129.6 604.533096 
" style="fill:none;stroke:#44aa00;stroke-width:1.5;"/>
   </g>
   <g id="LineCollection_68">
    <path clip-path="url(#pe5a731416b)" d="M 129.6 604.651117 
L 127.948883 603 
L 127.764255 596.7 
L 127.75921 451.8 
L 127.764255 130.5 
L 127.948883 124.2 
L 129.6 122.548883 
L 135.9 122.364255 
L 280.8 122.35921 
L 602.1 122.364255 
L 608.4 122.548883 
L 610.051117 124.2 
L 610.235745 130.5 
L 610.24079 275.4 
L 610.235745 596.7 
L 610.051117 603 
L 608.4 604.651117 
L 602.1 604.835745 
L 457.2 604.84079 
L 135.9 604.835745 
L 129.6 604.651117 
L 129.6 604.651117 
" style="fill:none;stroke:#44aa00;stroke-width:1.5;"/>
   </g>
   <g id="LineCollection_69">
    <path clip-path="url(#pe5a731416b)" d="M 129.6 604.77308 
L 127.82692 603 
L 127.651657 596.7 
L 127.647123 432.9 
L 127.651657 130.5 
L 127.82692 124.2 
L 129.6 122.42692 
L 135.9 122.251657 
L 299.7 122.247123 
L 602.1 122.251657 
L 608.4 122.42692 
L 610.17308 124.2 
L 610.348343 130.5 
L 610.352877 294.3 
L 610.348343 596.7 
L 610.17308 603 
L 608.4 604.77308 
L 602.1 604.948343 
L 438.3 604.952877 
L 135.9 604.948343 
L 129.6 604.77308 
L 129.6 604.77308 
" style="fill:none;stroke:#44aa00;stroke-width:1.5;"/>
   </g>
   <g id="LineCollection_70">
    <path clip-path="url(#pe5a731416b)" d="M 129.6 604.89931 
L 127.70069 603 
L 127.534316 596.7 
L 127.530241 420.3 
L 127.534316 130.5 
L 127.70069 124.2 
L 129.6 122.30069 
L 135.9 122.134316 
L 312.3 122.130241 
L 602.1 122.134316 
L 608.4 122.30069 
L 610.29931 124.2 
L 610.465684 130.5 
L 610.469759 306.9 
L 610.465684 596.7 
L 610.29931 603 
L 608.4 604.89931 
L 602.1 605.065684 
L 425.7 605.069759 
L 135.9 605.065684 
L 129.6 604.89931 
L 129.6 604.89931 
" style="fill:none;stroke:#44aa00;stroke-width:1.5;"/>
   </g>
   <g id="LineCollection_71">
    <path clip-path="url(#pe5a731416b)" d="M 129.6 605.030143 
L 127.569857 603 
L 127.411922 596.7 
L 127.408259 401.4 
L 127.411922 130.5 
L 127.569857 124.2 
L 129.6 122.169857 
L 135.9 122.011922 
L 331.2 122.008259 
L 602.1 122.011922 
L 608.4 122.169857 
L 610.430143 124.2 
L 610.588078 130.5 
L 610.591741 325.8 
L 610.588078 596.7 
L 610.430143 603 
L 608.4 605.030143 
L 602.1 605.188078 
L 406.8 605.191741 
L 135.9 605.188078 
L 129.6 605.030143 
L 129.6 605.030143 
" style="fill:none;stroke:#44aa00;stroke-width:1.5;"/>
   </g>
   <g id="LineCollection_72">
    <path clip-path="url(#pe5a731416b)" d="M 129.6 605.165923 
L 127.434077 603 
L 127.284151 596.7 
L 127.280858 376.2 
L 127.284151 130.5 
L 127.434077 124.2 
L 129.6 122.034077 
L 135.9 121.884151 
L 356.4 121.880858 
L 602.1 121.884151 
L 608.4 122.034077 
L 610.565923 124.2 
L 610.715849 130.5 
L 610.719142 351 
L 610.715849 596.7 
L 610.565923 603 
L 608.4 605.165923 
L 602.1 605.315849 
L 381.6 605.319142 
L 135.9 605.315849 
L 129.6 605.165923 
L 129.6 605.165923 
" style="fill:none;stroke:#44aa00;stroke-width:1.5;"/>
   </g>
   <g id="LineCollection_73">
    <path clip-path="url(#pe5a731416b)" d="M 129.6 605.307009 
L 127.292991 603 
L 127.150668 596.7 
L 127.147708 351 
L 127.150668 130.5 
L 127.292991 124.2 
L 129.6 121.892991 
L 135.9 121.750668 
L 381.6 121.747708 
L 602.1 121.750668 
L 608.4 121.892991 
L 610.707009 124.2 
L 610.849332 130.5 
L 610.852292 376.2 
L 610.849332 596.7 
L 610.707009 603 
L 608.4 605.307009 
L 602.1 605.449332 
L 356.4 605.452292 
L 135.9 605.449332 
L 129.6 605.307009 
L 129.6 605.307009 
" style="fill:none;stroke:#44aa00;stroke-width:1.5;"/>
   </g>
   <g id="LineCollection_74">
    <path clip-path="url(#pe5a731416b)" d="M 129.6 605.453771 
L 127.146229 603 
L 127.011123 596.7 
L 127.008462 325.8 
L 127.011123 130.5 
L 127.146229 124.2 
L 129.6 121.746229 
L 135.9 121.611123 
L 406.8 121.608462 
L 602.1 121.611123 
L 608.4 121.746229 
L 610.853771 124.2 
L 610.988877 130.5 
L 610.991538 401.4 
L 610.988877 596.7 
L 610.853771 603 
L 608.4 605.453771 
L 602.1 605.588877 
L 331.2 605.591538 
L 135.9 605.588877 
L 129.6 605.453771 
L 129.6 605.453771 
" style="fill:none;stroke:#44aa00;stroke-width:1.5;"/>
   </g>
   <g id="LineCollection_75">
    <path clip-path="url(#pe5a731416b)" d="M 129.6 605.606593 
L 126.993407 603 
L 126.865151 596.7 
L 126.862759 294.3 
L 126.865151 130.5 
L 126.993407 124.2 
L 129.6 121.593407 
L 135.9 121.465151 
L 438.3 121.462759 
L 602.1 121.465151 
L 608.4 121.593407 
L 611.006593 124.2 
L 611.134849 130.5 
L 611.137241 432.9 
L 611.134849 596.7 
L 611.006593 603 
L 608.4 605.606593 
L 602.1 605.734849 
L 299.7 605.737241 
L 135.9 605.734849 
L 129.6 605.606593 
L 129.6 605.606593 
" style="fill:none;stroke:#44aa00;stroke-width:1.5;"/>
   </g>
   <g id="LineCollection_76">
    <path clip-path="url(#pe5a731416b)" d="M 129.6 605.765874 
L 126.834126 603 
L 126.712373 596.7 
L 126.710222 262.8 
L 126.712373 130.5 
L 126.834126 124.2 
L 129.6 121.434126 
L 135.9 121.312373 
L 469.8 121.310222 
L 602.1 121.312373 
L 608.4 121.434126 
L 611.165874 124.2 
L 611.287627 130.5 
L 611.289778 464.4 
L 611.287627 596.7 
L 611.165874 603 
L 608.4 605.765874 
L 602.1 605.887627 
L 268.2 605.889778 
L 135.9 605.887627 
L 129.6 605.765874 
L 129.6 605.765874 
" style="fill:none;stroke:#44aa00;stroke-width:1.5;"/>
   </g>
   <g id="LineCollection_77">
    <path clip-path="url(#pe5a731416b)" d="M 129.6 605.932029 
L 126.667971 603 
L 126.55239 596.7 
L 126.550456 225 
L 126.55239 130.5 
L 126.667971 124.2 
L 129.6 121.267971 
L 135.9 121.15239 
L 507.6 121.150456 
L 602.1 121.15239 
L 608.4 121.267971 
L 611.332029 124.2 
L 611.44761 130.5 
L 611.449544 502.2 
L 611.44761 596.7 
L 611.332029 603 
L 608.4 605.932029 
L 602.1 606.04761 
L 230.4 606.049544 
L 135.9 606.04761 
L 129.6 605.932029 
L 129.6 605.932029 
" style="fill:none;stroke:#44aa00;stroke-width:1.5;"/>
   </g>
   <g id="LineCollection_78">
    <path clip-path="url(#pe5a731416b)" d="M 129.6 606.10549 
L 126.49451 603 
L 126.383074 590.4 
L 126.384789 130.5 
L 126.49451 124.2 
L 129.6 121.09451 
L 142.2 120.983074 
L 602.1 120.984789 
L 608.4 121.09451 
L 611.50549 124.2 
L 611.616926 136.8 
L 611.615211 596.7 
L 611.50549 603 
L 608.4 606.10549 
L 595.8 606.216926 
L 135.9 606.215211 
L 129.6 606.10549 
L 129.6 606.10549 
" style="fill:none;stroke:#44aa00;stroke-width:1.5;"/>
   </g>
   <g id="LineCollection_79">
    <path clip-path="url(#pe5a731416b)" d="M 129.6 606.286708 
L 126.313292 603 
L 126.20759 590.4 
L 126.313292 124.2 
L 129.6 120.913292 
L 142.2 120.80759 
L 608.4 120.913292 
L 611.686708 124.2 
L 611.79241 136.8 
L 611.686708 603 
L 608.4 606.286708 
L 595.8 606.39241 
L 129.6 606.286708 
L 129.6 606.286708 
" style="fill:none;stroke:#44aa00;stroke-width:1.5;"/>
   </g>
   <g id="LineCollection_80">
    <path clip-path="url(#pe5a731416b)" d="M 129.6 606.476152 
L 126.123848 603 
L 126.023581 590.4 
L 126.123848 124.2 
L 129.6 120.723848 
L 142.2 120.623581 
L 608.4 120.723848 
L 611.876152 124.2 
L 611.976419 136.8 
L 611.876152 603 
L 608.4 606.476152 
L 595.8 606.576419 
L 129.6 606.476152 
L 129.6 606.476152 
" style="fill:none;stroke:#44aa00;stroke-width:1.5;"/>
   </g>
   <g id="LineCollection_81">
    <path clip-path="url(#pe5a731416b)" d="M 129.6 606.674312 
L 125.925688 603 
L 125.830572 590.4 
L 125.925688 124.2 
L 129.6 120.525688 
L 142.2 120.430572 
L 608.4 120.525688 
L 612.074312 124.2 
L 612.169428 136.8 
L 612.074312 603 
L 608.4 606.674312 
L 595.8 606.769428 
L 129.6 606.674312 
L 129.6 606.674312 
" style="fill:none;stroke:#44aa00;stroke-width:1.5;"/>
   </g>
   <g id="LineCollection_82">
    <path clip-path="url(#pe5a731416b)" d="M 129.6 606.8817 
L 125.7183 603 
L 125.628066 590.4 
L 125.7183 124.2 
L 129.6 120.3183 
L 142.2 120.228066 
L 608.4 120.3183 
L 612.2817 124.2 
L 612.371934 136.8 
L 612.2817 603 
L 608.4 606.8817 
L 595.8 606.971934 
L 129.6 606.8817 
L 129.6 606.8817 
" style="fill:none;stroke:#44aa00;stroke-width:1.5;"/>
   </g>
   <g id="LineCollection_83">
    <path clip-path="url(#pe5a731416b)" d="M 129.6 607.098854 
L 125.501146 603 
L 125.415541 590.4 
L 125.501146 124.2 
L 129.6 120.101146 
L 142.2 120.015541 
L 608.4 120.101146 
L 612.498854 124.2 
L 612.584459 136.8 
L 612.498854 603 
L 608.4 607.098854 
L 595.8 607.184459 
L 129.6 607.098854 
L 129.6 607.098854 
" style="fill:none;stroke:#44aa00;stroke-width:1.5;"/>
   </g>
   <g id="LineCollection_84">
    <path clip-path="url(#pe5a731416b)" d="M 129.6 607.326332 
L 125.273668 603 
L 125.192451 590.4 
L 125.273668 124.2 
L 129.6 119.873668 
L 142.2 119.792451 
L 608.4 119.873668 
L 612.726332 124.2 
L 612.807549 136.8 
L 612.726332 603 
L 608.4 607.326332 
L 595.8 607.407549 
L 129.6 607.326332 
L 129.6 607.326332 
" style="fill:none;stroke:#44aa00;stroke-width:1.5;"/>
   </g>
   <g id="LineCollection_85">
    <path clip-path="url(#pe5a731416b)" d="M 129.6 607.564722 
L 125.035278 603 
L 124.958222 590.4 
L 125.035278 124.2 
L 129.6 119.635278 
L 142.2 119.558222 
L 608.4 119.635278 
L 612.964722 124.2 
L 613.041778 136.8 
L 612.964722 603 
L 608.4 607.564722 
L 595.8 607.641778 
L 129.6 607.564722 
L 129.6 607.564722 
" style="fill:none;stroke:#44aa00;stroke-width:1.5;"/>
   </g>
   <g id="LineCollection_86">
    <path clip-path="url(#pe5a731416b)" d="M 129.6 607.814638 
L 124.785362 603 
L 124.712252 590.4 
L 124.785362 124.2 
L 129.6 119.385362 
L 142.2 119.312252 
L 608.4 119.385362 
L 613.214638 124.2 
L 613.287748 136.8 
L 613.214638 603 
L 608.4 607.814638 
L 595.8 607.887748 
L 129.6 607.814638 
L 129.6 607.814638 
" style="fill:none;stroke:#44aa00;stroke-width:1.5;"/>
   </g>
   <g id="LineCollection_87">
    <path clip-path="url(#pe5a731416b)" d="M 129.6 608.076723 
L 124.523277 603 
L 124.453908 590.4 
L 124.523277 124.2 
L 129.6 119.123277 
L 142.2 119.053908 
L 608.4 119.123277 
L 613.476723 124.2 
L 613.546092 136.8 
L 613.476723 603 
L 608.4 608.076723 
L 595.8 608.146092 
L 129.6 608.076723 
L 129.6 608.076723 
" style="fill:none;stroke:#44aa00;stroke-width:1.5;"/>
   </g>
   <g id="LineCollection_88">
    <path clip-path="url(#pe5a731416b)" d="M 129.6 608.351653 
L 124.248347 603 
L 124.182526 590.4 
L 124.248347 124.2 
L 129.6 118.848347 
L 142.2 118.782526 
L 608.4 118.848347 
L 613.751653 124.2 
L 613.817474 136.8 
L 613.751653 603 
L 608.4 608.351653 
L 595.8 608.417474 
L 129.6 608.351653 
L 129.6 608.351653 
" style="fill:none;stroke:#44aa00;stroke-width:1.5;"/>
   </g>
   <g id="LineCollection_89">
    <path clip-path="url(#pe5a731416b)" d="M 129.6 608.640135 
L 123.959865 603 
L 123.897409 590.4 
L 123.959865 124.2 
L 129.6 118.559865 
L 142.2 118.497409 
L 608.4 118.559865 
L 614.040135 124.2 
L 614.102591 136.8 
L 614.040135 603 
L 608.4 608.640135 
L 595.8 608.702591 
L 129.6 608.640135 
L 129.6 608.640135 
" style="fill:none;stroke:#44aa00;stroke-width:1.5;"/>
   </g>
   <g id="LineCollection_90">
    <path clip-path="url(#pe5a731416b)" d="M 129.6 608.94291 
L 123.65709 603 
L 123.597825 590.4 
L 123.65709 124.2 
L 129.6 118.25709 
L 142.2 118.197825 
L 608.4 118.25709 
L 614.34291 124.2 
L 614.402175 136.8 
L 614.34291 603 
L 608.4 608.94291 
L 595.8 609.002175 
L 129.6 608.94291 
L 129.6 608.94291 
" style="fill:none;stroke:#44aa00;stroke-width:1.5;"/>
   </g>
   <g id="LineCollection_91">
    <path clip-path="url(#pe5a731416b)" d="M 135.9 609.300165 
L 129.6 609.260758 
L 123.339242 603 
L 123.29983 590.4 
L 123.339242 124.2 
L 129.6 117.939242 
L 142.2 117.89983 
L 608.4 117.939242 
L 614.660758 124.2 
L 614.70017 136.8 
L 614.660758 603 
L 608.4 609.260758 
L 595.8 609.30017 
L 135.9 609.300165 
L 135.9 609.300165 
" style="fill:none;stroke:#44aa00;stroke-width:1.5;"/>
   </g>
   <g id="LineCollection_92">
    <path clip-path="url(#pe5a731416b)" d="M 129.6 609.302795 
L 129.305505 609.3 
L 123.3 603.294495 
L 123.296702 596.7 
L 123.3 123.905505 
L 129.305505 117.9 
L 135.9 117.896702 
L 608.694495 117.9 
L 614.7 123.905505 
L 614.703298 130.5 
L 614.7 603.294495 
L 608.694495 609.3 
L 602.1 609.303298 
L 129.6 609.302795 
L 129.6 609.302795 
" style="fill:none;stroke:#44aa00;stroke-width:1.5;"/>
   </g>
   <g id="LineCollection_93">
    <path clip-path="url(#pe5a731416b)" d="M 129.6 609.305819 
L 128.955021 609.3 
L 123.3 603.644979 
L 123.293727 596.7 
L 123.3 123.555021 
L 128.955021 117.9 
L 135.9 117.893727 
L 609.044979 117.9 
L 614.7 123.555021 
L 614.706273 130.5 
L 614.7 603.644979 
L 609.044979 609.3 
L 602.1 609.306273 
L 129.6 609.305819 
L 129.6 609.305819 
" style="fill:none;stroke:#44aa00;stroke-width:1.5;"/>
   </g>
   <g id="LineCollection_94">
    <path clip-path="url(#pe5a731416b)" d="M 129.6 609.308689 
L 128.586889 609.3 
L 123.3 604.013111 
L 123.290899 590.4 
L 123.3 123.186889 
L 128.586889 117.9 
L 142.2 117.890899 
L 609.413111 117.9 
L 614.7 123.186889 
L 614.709101 136.8 
L 614.7 604.013111 
L 609.413111 609.3 
L 595.8 609.309101 
L 129.6 609.308689 
L 129.6 609.308689 
" style="fill:none;stroke:#44aa00;stroke-width:1.5;"/>
   </g>
   <g id="LineCollection_95">
    <path clip-path="url(#pe5a731416b)" d="M 129.6 609.311412 
L 128.200165 609.3 
L 123.3 604.399835 
L 123.288216 590.4 
L 123.3 122.800165 
L 128.200165 117.9 
L 142.2 117.888216 
L 609.799835 117.9 
L 614.7 122.800165 
L 614.711784 136.8 
L 614.7 604.399835 
L 609.799835 609.3 
L 595.8 609.311784 
L 129.6 609.311412 
L 129.6 609.311412 
" style="fill:none;stroke:#44aa00;stroke-width:1.5;"/>
   </g>
   <g id="LineCollection_96">
    <path clip-path="url(#pe5a731416b)" d="M 129.6 609.313997 
L 127.793854 609.3 
L 123.3 604.806146 
L 123.285667 590.4 
L 123.3 122.393854 
L 127.793854 117.9 
L 142.2 117.885667 
L 610.206146 117.9 
L 614.7 122.393854 
L 614.714333 136.8 
L 614.7 604.806146 
L 610.206146 609.3 
L 595.8 609.314333 
L 129.6 609.313997 
L 129.6 609.313997 
" style="fill:none;stroke:#44aa00;stroke-width:1.5;"/>
   </g>
   <g id="LineCollection_97">
    <path clip-path="url(#pe5a731416b)" d="M 129.6 609.316451 
L 127.366913 609.3 
L 123.3 605.233087 
L 123.283247 590.4 
L 123.3 121.966913 
L 127.366913 117.9 
L 142.2 117.883247 
L 610.633087 117.9 
L 614.7 121.966913 
L 614.716753 136.8 
L 614.7 605.233087 
L 610.633087 609.3 
L 595.8 609.316753 
L 129.6 609.316451 
L 129.6 609.316451 
" style="fill:none;stroke:#44aa00;stroke-width:1.5;"/>
   </g>
   <g id="LineCollection_98">
    <path clip-path="url(#pe5a731416b)" d="M 129.6 609.31878 
L 126.918247 609.3 
L 123.3 605.681753 
L 123.280947 590.4 
L 123.3 121.518247 
L 126.918247 117.9 
L 142.2 117.880947 
L 611.081753 117.9 
L 614.7 121.518247 
L 614.719053 136.8 
L 614.7 605.681753 
L 611.081753 609.3 
L 595.8 609.319053 
L 129.6 609.31878 
L 129.6 609.31878 
" style="fill:none;stroke:#44aa00;stroke-width:1.5;"/>
   </g>
   <g id="LineCollection_99">
    <path clip-path="url(#pe5a731416b)" d="M 129.6 609.320991 
L 126.446703 609.3 
L 123.3 606.153297 
L 123.278763 590.4 
L 123.3 121.046703 
L 126.446703 117.9 
L 142.2 117.878763 
L 611.553297 117.9 
L 614.7 121.046703 
L 614.721237 136.8 
L 614.7 606.153297 
L 611.553297 609.3 
L 595.8 609.321237 
L 129.6 609.320991 
L 129.6 609.320991 
" style="fill:none;stroke:#44aa00;stroke-width:1.5;"/>
   </g>
   <g id="LineCollection_100">
    <path clip-path="url(#pe5a731416b)" d="M 129.6 609.32309 
L 125.951071 609.3 
L 123.3 606.648929 
L 123.276687 590.4 
L 123.3 120.551071 
L 125.951071 117.9 
L 142.2 117.876687 
L 612.048929 117.9 
L 614.7 120.551071 
L 614.723313 136.8 
L 614.7 606.648929 
L 612.048929 609.3 
L 595.8 609.323313 
L 129.6 609.32309 
L 129.6 609.32309 
" style="fill:none;stroke:#44aa00;stroke-width:1.5;"/>
   </g>
   <g id="line2d_37">
    <path clip-path="url(#pe5a731416b)" d="M 117 615.6 
L 117 111.6 
L 621 111.6 
L 621 615.6 
L 117 615.6 
" style="fill:none;stroke:#ff0000;stroke-dasharray:11.1,4.8;stroke-dashoffset:0;stroke-width:3;"/>
   </g>
   <g id="patch_3">
    <path d="M 91.8 640.8 
L 91.8 86.4 
" style="fill:none;stroke:#000000;stroke-linecap:square;stroke-linejoin:miter;stroke-width:0.8;"/>
   </g>
   <g id="patch_4">
    <path d="M 646.2 640.8 
L 646.2 86.4 
" style="fill:none;stroke:#000000;stroke-linecap:square;stroke-linejoin:miter;stroke-width:0.8;"/>
   </g>
   <g id="patch_5">
    <path d="M 91.8 640.8 
L 646.2 640.8 
" style="fill:none;stroke:#000000;stroke-linecap:square;stroke-linejoin:miter;stroke-width:0.8;"/>
   </g>
   <g id="patch_6">
    <path d="M 91.8 86.4 
L 646.2 86.4 
" style="fill:none;stroke:#000000;stroke-linecap:square;stroke-linejoin:miter;stroke-width:0.8;"/>
   </g>
   <g id="text_19">
    <g clip-path="url(#pe5a731416b)">
     <!-- n=4 -->
     <defs>
      <path d="M 54.890625 33.015625 
L 54.890625 0 
L 45.90625 0 
L 45.90625 32.71875 
Q 45.90625 40.484375 42.875 44.328125 
Q 39.84375 48.1875 33.796875 48.1875 
Q 26.515625 48.1875 22.3125 43.546875 
Q 18.109375 38.921875 18.109375 30.90625 
L 18.109375 0 
L 9.078125 0 
L 9.078125 54.6875 
L 18.109375 54.6875 
L 18.109375 46.1875 
Q 21.34375 51.125 25.703125 53.5625 
Q 30.078125 56 35.796875 56 
Q 45.21875 56 50.046875 50.171875 
Q 54.890625 44.34375 54.890625 33.015625 
z
" id="DejaVuSans-110"/>
      <path d="M 10.59375 45.40625 
L 73.1875 45.40625 
L 73.1875 37.203125 
L 10.59375 37.203125 
z
M 10.59375 25.484375 
L 73.1875 25.484375 
L 73.1875 17.1875 
L 10.59375 17.1875 
z
" id="DejaVuSans-61"/>
      <path d="M 37.796875 64.3125 
L 12.890625 25.390625 
L 37.796875 25.390625 
z
M 35.203125 72.90625 
L 47.609375 72.90625 
L 47.609375 25.390625 
L 58.015625 25.390625 
L 58.015625 17.1875 
L 47.609375 17.1875 
L 47.609375 0 
L 37.796875 0 
L 37.796875 17.1875 
L 4.890625 17.1875 
L 4.890625 26.703125 
z
" id="DejaVuSans-52"/>
     </defs>
     <g style="fill:#44aa00;" transform="translate(293.025451 347.446463)rotate(-81.912044)scale(0.2 -0.2)">
      <use xlink:href="#DejaVuSans-110"/>
      <use x="63.378906" xlink:href="#DejaVuSans-61"/>
      <use x="147.167969" xlink:href="#DejaVuSans-52"/>
     </g>
    </g>
   </g>
   <g id="text_20">
    <g clip-path="url(#pe5a731416b)">
     <!-- n=6 -->
     <defs>
      <path d="M 33.015625 40.375 
Q 26.375 40.375 22.484375 35.828125 
Q 18.609375 31.296875 18.609375 23.390625 
Q 18.609375 15.53125 22.484375 10.953125 
Q 26.375 6.390625 33.015625 6.390625 
Q 39.65625 6.390625 43.53125 10.953125 
Q 47.40625 15.53125 47.40625 23.390625 
Q 47.40625 31.296875 43.53125 35.828125 
Q 39.65625 40.375 33.015625 40.375 
z
M 52.59375 71.296875 
L 52.59375 62.3125 
Q 48.875 64.0625 45.09375 64.984375 
Q 41.3125 65.921875 37.59375 65.921875 
Q 27.828125 65.921875 22.671875 59.328125 
Q 17.53125 52.734375 16.796875 39.40625 
Q 19.671875 43.65625 24.015625 45.921875 
Q 28.375 48.1875 33.59375 48.1875 
Q 44.578125 48.1875 50.953125 41.515625 
Q 57.328125 34.859375 57.328125 23.390625 
Q 57.328125 12.15625 50.6875 5.359375 
Q 44.046875 -1.421875 33.015625 -1.421875 
Q 20.359375 -1.421875 13.671875 8.265625 
Q 6.984375 17.96875 6.984375 36.375 
Q 6.984375 53.65625 15.1875 63.9375 
Q 23.390625 74.21875 37.203125 74.21875 
Q 40.921875 74.21875 44.703125 73.484375 
Q 48.484375 72.75 52.59375 71.296875 
z
" id="DejaVuSans-54"/>
     </defs>
     <g style="fill:#44aa00;" transform="translate(257.759432 378.379953)rotate(-89.997244)scale(0.2 -0.2)">
      <use xlink:href="#DejaVuSans-110"/>
      <use x="63.378906" xlink:href="#DejaVuSans-61"/>
      <use x="147.167969" xlink:href="#DejaVuSans-54"/>
     </g>
    </g>
   </g>
   <g id="text_21">
    <!-- $x^n + y^n = 0.01$ -->
    <defs>
     <path d="M 60.015625 54.6875 
L 34.90625 27.875 
L 50.296875 0 
L 39.984375 0 
L 28.421875 21.6875 
L 8.296875 0 
L -2.59375 0 
L 24.3125 28.8125 
L 10.015625 54.6875 
L 20.3125 54.6875 
L 30.8125 34.90625 
L 49.125 54.6875 
z
" id="DejaVuSans-Oblique-120"/>
     <path d="M 55.71875 33.015625 
L 49.3125 0 
L 40.28125 0 
L 46.6875 32.671875 
Q 47.125 34.96875 47.359375 36.71875 
Q 47.609375 38.484375 47.609375 39.5 
Q 47.609375 43.609375 45.015625 45.890625 
Q 42.4375 48.1875 37.796875 48.1875 
Q 30.5625 48.1875 25.34375 43.375 
Q 20.125 38.578125 18.5 30.328125 
L 12.5 0 
L 3.515625 0 
L 14.109375 54.6875 
L 23.09375 54.6875 
L 21.296875 46.09375 
Q 25.046875 50.828125 30.3125 53.40625 
Q 35.59375 56 41.40625 56 
Q 48.640625 56 52.609375 52.09375 
Q 56.59375 48.1875 56.59375 41.109375 
Q 56.59375 39.359375 56.375 37.359375 
Q 56.15625 35.359375 55.71875 33.015625 
z
" id="DejaVuSans-Oblique-110"/>
     <path d="M 46 62.703125 
L 46 35.5 
L 73.1875 35.5 
L 73.1875 27.203125 
L 46 27.203125 
L 46 0 
L 37.796875 0 
L 37.796875 27.203125 
L 10.59375 27.203125 
L 10.59375 35.5 
L 37.796875 35.5 
L 37.796875 62.703125 
z
" id="DejaVuSans-43"/>
     <path d="M 24.8125 -5.078125 
Q 18.5625 -15.578125 14.625 -18.1875 
Q 10.6875 -20.796875 4.59375 -20.796875 
L -2.484375 -20.796875 
L -0.984375 -13.28125 
L 4.203125 -13.28125 
Q 7.953125 -13.28125 10.59375 -11.234375 
Q 13.234375 -9.1875 16.5 -3.21875 
L 19.28125 2 
L 7.171875 54.6875 
L 16.703125 54.6875 
L 25.78125 12.796875 
L 50.875 54.6875 
L 60.296875 54.6875 
z
" id="DejaVuSans-Oblique-121"/>
    </defs>
    <g transform="translate(265.5 80.1)scale(0.3 -0.3)">
     <use transform="translate(0 0.51875)" xlink:href="#DejaVuSans-Oblique-120"/>
     <use transform="translate(63.645833 38.8)scale(0.7)" xlink:href="#DejaVuSans-Oblique-110"/>
     <use transform="translate(130.227865 0.51875)" xlink:href="#DejaVuSans-43"/>
     <use transform="translate(233.499349 0.51875)" xlink:href="#DejaVuSans-Oblique-121"/>
     <use transform="translate(297.145182 38.8)scale(0.7)" xlink:href="#DejaVuSans-Oblique-110"/>
     <use transform="translate(363.727214 0.51875)" xlink:href="#DejaVuSans-61"/>
     <use transform="translate(466.998698 0.51875)" xlink:href="#DejaVuSans-48"/>
     <use transform="translate(530.621745 0.51875)" xlink:href="#DejaVuSans-46"/>
     <use transform="translate(562.408854 0.51875)" xlink:href="#DejaVuSans-48"/>
     <use transform="translate(626.031901 0.51875)" xlink:href="#DejaVuSans-49"/>
    </g>
   </g>
  </g>
 </g>
 <defs>
  <clipPath id="pe5a731416b">
   <rect height="554.4" width="554.4" x="91.8" y="86.4"/>
  </clipPath>
 </defs>
</svg>
